NotoSansMono.glyphspackage
{
category = Punctuation;
color = 10;
glyphname = exclam;
layers = (
{
layerId = UUID0;
shapes = (
{
closed = 1;
nodes = (
(339,202,l),
(355,714,l),
(246,714,l),
(262,202,l)
);
},
{
closed = 1;
nodes = (
(334,-10,o),
(362,10,o),
(362,58,cs),
(362,108,o),
(334,126,o),
(300,126,cs),
(265,126,o),
(238,108,o),
(238,58,cs),
(238,10,o),
(265,-10,o),
(300,-10,cs)
);
}
);
width = 600;
},
{
associatedMasterId = UUID0;
attr = {
coordinates = (
151,
100
);
};
background = {
shapes = (
{
closed = 1;
nodes = (
(367.06,232.5,l),
(388.55,714,l),
(217.33,714,l),
(238.82,232.5,l)
);
},
{
closed = 1;
nodes = (
(349.25,-11.22,o),
(388.23,13.05,o),
(388.23,72.03,cs),
(388.23,133.62,o),
(349.25,155.89,o),
(302.44,155.89,cs),
(254.63,155.89,o),
(215.43,133.62,o),
(215.43,72.03,cs),
(215.43,13.05,o),
(254.63,-11.22,o),
(302.44,-11.22,cs)
);
}
);
};
layerId = "f22fba54-a805-44d0-9408-cc26be74ed66";
name = "SemiBold (intermediate)";
shapes = (
{
closed = 1;
nodes = (
(364,237,l),
(385,714,l),
(216,714,l),
(237,237,l)
);
},
{
closed = 1;
nodes = (
(356,-10,o),
(390,24,o),
(390,78,cs),
(390,134,o),
(357,166,o),
(300,166,cs),
(241,166,o),
(209,136,o),
(209,78,cs),
(209,22,o),
(242,-10,o),
(300,-10,cs)
);
}
);
width = 600;
},
{
layerId = "963C7F4A-CFE2-43FC-8D10-B7434095D111";
shapes = (
{
closed = 1;
nodes = (
(385,252,l),
(410,714,l),
(199,714,l),
(224,252,l)
);
},
{
closed = 1;
nodes = (
(359,-12,o),
(405,15,o),
(405,81,cs),
(405,150,o),
(359,175,o),
(304,175,cs),
(248,175,o),
(201,150,o),
(201,81,cs),
(201,15,o),
(248,-12,o),
(304,-12,cs)
);
}
);
width = 600;
},
{
layerId = "02EF4DD5-EF93-4764-9336-ED93C6797AC3";
shapes = (
{
closed = 1;
nodes = (
(313,174,l),
(315,714,l),
(286,714,l),
(288,174,l)
);
},
{
closed = 1;
nodes = (
(326,-12,o),
(329,4,o),
(329,23,cs),
(329,41,o),
(326,58,o),
(299,58,cs),
(277,58,o),
(271,41,o),
(271,23,cs),
(271,4,o),
(277,-12,o),
(299,-12,cs)
);
}
);
width = 600;
},
{
layerId = "82FB5ACD-33BC-4284-9837-1B4D88A7F1E9";
shapes = (
{
closed = 1;
nodes = (
(263,174,l),
(265,714,l),
(237,714,l),
(239,174,l)
);
},
{
closed = 1;
nodes = (
(276,-12,o),
(279,4,o),
(279,23,cs),
(279,41,o),
(276,58,o),
(249,58,cs),
(227,58,o),
(221,41,o),
(221,23,cs),
(221,4,o),
(227,-12,o),
(249,-12,cs)
);
}
);
width = 500;
},
{
layerId = "C5665599-2906-40DA-AF7F-7DBC0844951A";
shapes = (
{
closed = 1;
nodes = (
(290,201,l),
(307,714,l),
(205,714,l),
(223,201,l)
);
},
{
closed = 1;
nodes = (
(288,-12,o),
(314,9,o),
(314,55,cs),
(314,102,o),
(289,120,o),
(256,120,cs),
(221,120,o),
(198,100,o),
(198,55,cs),
(198,10,o),
(221,-12,o),
(256,-12,cs)
);
}
);
width = 500;
},
{
layerId = "35DC4C3B-953E-41FE-A906-9781CEBB9B49";
shapes = (
{
closed = 1;
nodes = (
(312,242,l),
(334,714,l),
(165,714,l),
(188,242,l)
);
},
{
closed = 1;
nodes = (
(301,-11,o),
(333,20,o),
(333,76,cs),
(333,133,o),
(303,164,o),
(250,164,cs),
(194,164,o),
(165,132,o),
(165,76,cs),
(165,20,o),
(198,-11,o),
(250,-11,cs)
);
}
);
width = 500;
}
);
script = "";
subCategory = Other;
unicode = 33;
}
{
category = Punctuation;
glyphname = numbersign;
layers = (
{
layerId = UUID0;
shapes = (
{
closed = 1;
nodes = (
(171,0,l),
(210,209,l),
(333,209,l),
(292,0,l),
(363,0,l),
(404,209,l),
(546,209,l),
(546,276,l),
(417,276,l),
(448,436,l),
(580,436,l),
(580,502,l),
(461,502,l),
(501,714,l),
(432,714,l),
(392,502,l),
(268,502,l),
(308,714,l),
(236,714,l),
(196,502,l),
(57,502,l),
(57,436,l),
(184,436,l),
(152,276,l),
(20,276,l),
(20,209,l),
(139,209,l),
(101,0,l)
);
},
{
closed = 1;
nodes = (
(254,436,l),
(377,436,l),
(346,276,l),
(223,276,l)
);
}
);
width = 600;
},
{
layerId = "A3018D0F-8B4B-4295-AE04-84912D9BB11D";
shapes = (
{
closed = 1;
nodes = (
(199,0,l),
(230,200,l),
(316,200,l),
(283,0,l),
(385,0,l),
(418,200,l),
(556,200,l),
(556,298,l),
(433,298,l),
(453,418,l),
(585,418,l),
(585,517,l),
(469,517,l),
(501,714,l),
(401,714,l),
(369,517,l),
(282,517,l),
(315,714,l),
(214,714,l),
(181,517,l),
(44,517,l),
(44,418,l),
(166,418,l),
(146,298,l),
(15,298,l),
(15,200,l),
(130,200,l),
(99,0,l)
);
},
{
closed = 1;
nodes = (
(267,418,l),
(353,418,l),
(333,298,l),
(247,298,l)
);
}
);
width = 600;
},
{
layerId = "963C7F4A-CFE2-43FC-8D10-B7434095D111";
shapes = (
{
closed = 1;
nodes = (
(205,0,l),
(236,191,l),
(308,191,l),
(276,0,l),
(400,0,l),
(432,191,l),
(563,191,l),
(563,310,l),
(451,310,l),
(466,402,l),
(590,402,l),
(590,524,l),
(485,524,l),
(517,714,l),
(393,714,l),
(362,524,l),
(291,524,l),
(323,714,l),
(199,714,l),
(168,524,l),
(38,524,l),
(38,402,l),
(148,402,l),
(133,310,l),
(10,310,l),
(10,191,l),
(113,191,l),
(82,0,l)
);
},
{
closed = 1;
nodes = (
(271,402,l),
(342,402,l),
(327,310,l),
(256,310,l)
);
}
);
width = 600;
},
{
layerId = "02EF4DD5-EF93-4764-9336-ED93C6797AC3";
shapes = (
{
closed = 1;
nodes = (
(129,0,l),
(165,231,l),
(330,231,l),
(294,0,l),
(319,0,l),
(355,231,l),
(479,231,l),
(479,255,l),
(358,255,l),
(391,471,l),
(512,471,l),
(512,495,l),
(394,495,l),
(427,714,l),
(403,714,l),
(369,495,l),
(205,495,l),
(238,714,l),
(214,714,l),
(180,495,l),
(54,495,l),
(54,471,l),
(176,471,l),
(143,255,l),
(23,255,l),
(23,231,l),
(140,231,l),
(105,0,l)
);
},
{
closed = 1;
nodes = (
(201,471,l),
(366,471,l),
(334,255,l),
(168,255,l)
);
}
);
width = 600;
},
{
layerId = "82FB5ACD-33BC-4284-9837-1B4D88A7F1E9";
shapes = (
{
closed = 1;
nodes = (
(127,0,l),
(163,231,l),
(298,231,l),
(262,0,l),
(287,0,l),
(323,231,l),
(447,231,l),
(447,255,l),
(326,255,l),
(359,471,l),
(480,471,l),
(480,495,l),
(362,495,l),
(395,714,l),
(371,714,l),
(337,495,l),
(203,495,l),
(236,714,l),
(212,714,l),
(178,495,l),
(52,495,l),
(52,471,l),
(174,471,l),
(141,255,l),
(21,255,l),
(21,231,l),
(138,231,l),
(103,0,l)
);
},
{
closed = 1;
nodes = (
(199,471,l),
(334,471,l),
(302,255,l),
(166,255,l)
);
}
);
width = 500;
},
{
layerId = "C5665599-2906-40DA-AF7F-7DBC0844951A";
shapes = (
{
closed = 1;
nodes = (
(156,0,l),
(182,217,l),
(281,217,l),
(254,0,l),
(317,0,l),
(344,217,l),
(439,217,l),
(439,282,l),
(352,282,l),
(372,449,l),
(462,449,l),
(462,513,l),
(379,513,l),
(404,714,l),
(343,714,l),
(318,513,l),
(219,513,l),
(244,714,l),
(181,714,l),
(157,513,l),
(61,513,l),
(61,449,l),
(149,449,l),
(129,282,l),
(38,282,l),
(38,217,l),
(121,217,l),
(95,0,l)
);
},
{
closed = 1;
nodes = (
(211,449,l),
(310,449,l),
(289,282,l),
(191,282,l)
);
}
);
width = 500;
},
{
layerId = "28AE7390-0F8D-4D03-A566-30BDF518EAE7";
shapes = (
{
closed = 1;
nodes = (
(162,0,l),
(188,204,l),
(269,204,l),
(241,0,l),
(333,0,l),
(360,204,l),
(460,204,l),
(460,294,l),
(371,294,l),
(388,427,l),
(484,427,l),
(484,519,l),
(400,519,l),
(426,714,l),
(337,714,l),
(311,519,l),
(230,519,l),
(257,714,l),
(167,714,l),
(141,519,l),
(39,519,l),
(39,427,l),
(129,427,l),
(111,294,l),
(16,294,l),
(16,204,l),
(99,204,l),
(73,0,l)
);
},
{
closed = 1;
nodes = (
(219,427,l),
(299,427,l),
(281,294,l),
(201,294,l)
);
}
);
width = 500;
},
{
layerId = "35DC4C3B-953E-41FE-A906-9781CEBB9B49";
shapes = (
{
closed = 1;
nodes = (
(166,0,l),
(192,196,l),
(262,196,l),
(234,0,l),
(336,0,l),
(364,196,l),
(468,196,l),
(468,295,l),
(377,295,l),
(393,420,l),
(492,420,l),
(492,522,l),
(407,522,l),
(434,714,l),
(333,714,l),
(307,522,l),
(237,522,l),
(265,714,l),
(164,714,l),
(137,522,l),
(32,522,l),
(32,420,l),
(122,420,l),
(106,295,l),
(8,295,l),
(8,196,l),
(92,196,l),
(65,0,l)
);
},
{
closed = 1;
nodes = (
(223,420,l),
(292,420,l),
(276,295,l),
(207,295,l)
);
}
);
width = 500;
}
);
script = "";
subCategory = Other;
unicode = 35;
}
{
category = Symbol;
glyphname = dollar;
layers = (
{
layerId = UUID0;
shapes = (
{
closed = 1;
nodes = (
(263,-58,l),
(327,-58,l),
(327,38,l),
(450,52,o),
(520,119,o),
(520,212,cs),
(520,320,o),
(455,357,o),
(327,395,c),
(327,611,l),
(376,607,o),
(423,593,o),
(466,576,c),
(493,650,l),
(445,670,o),
(394,685,o),
(327,687,c),
(327,759,l),
(263,759,l),
(263,686,l),
(151,678,o),
(80,615,o),
(80,515,cs),
(80,413,o),
(142,367,o),
(263,328,c),
(263,111,l),
(201,112,o),
(135,131,o),
(90,152,c),
(90,67,l),
(133,47,o),
(196,35,o),
(263,34,c)
);
},
{
closed = 1;
nodes = (
(327,307,l),
(410,285,o),
(434,264,o),
(434,214,cs),
(434,161,o),
(401,125,o),
(327,116,c)
);
},
{
closed = 1;
nodes = (
(263,417,l),
(189,437,o),
(166,464,o),
(166,515,cs),
(166,567,o),
(196,603,o),
(263,609,c)
);
}
);
width = 600;
},
{
layerId = "963C7F4A-CFE2-43FC-8D10-B7434095D111";
shapes = (
{
closed = 1;
nodes = (
(263,-58,l),
(344,-58,l),
(344,26,l),
(468,44,o),
(530,125,o),
(530,232,cs),
(530,340,o),
(466,384,o),
(344,426,c),
(344,563,l),
(388,558,o),
(439,545,o),
(482,523,c),
(523,651,l),
(465,675,o),
(410,693,o),
(344,697,c),
(344,760,l),
(263,760,l),
(263,696,l),
(147,685,o),
(70,624,o),
(70,506,cs),
(70,393,o),
(144,340,o),
(263,299,c),
(263,156,l),
(202,159,o),
(126,183,o),
(71,213,c),
(71,65,l),
(124,41,o),
(190,26,o),
(263,23,c)
);
},
{
closed = 1;
nodes = (
(344,272,l),
(375,258,o),
(388,246,o),
(388,219,cs),
(388,186,o),
(374,170,o),
(344,161,c)
);
},
{
closed = 1;
nodes = (
(263,455,l),
(229,469,o),
(215,482,o),
(215,508,cs),
(215,539,o),
(229,555,o),
(263,562,c)
);
}
);
width = 600;
},
{
layerId = "02EF4DD5-EF93-4764-9336-ED93C6797AC3";
shapes = (
{
closed = 1;
nodes = (
(286,-58,l),
(310,-58,l),
(310,20,l),
(421,26,o),
(502,79,o),
(502,186,cs),
(502,292,o),
(422,329,o),
(310,370,c),
(310,669,l),
(353,668,o),
(405,659,o),
(461,634,c),
(472,657,l),
(418,682,o),
(363,693,o),
(310,694,c),
(310,759,l),
(286,759,l),
(286,694,l),
(178,688,o),
(97,635,o),
(97,536,cs),
(97,428,o),
(183,392,o),
(286,353,c),
(286,45,l),
(213,46,o),
(146,60,o),
(100,78,c),
(100,49,l),
(142,35,o),
(202,21,o),
(286,20,c)
);
},
{
closed = 1;
nodes = (
(310,343,l),
(411,304,o),
(475,271,o),
(475,187,cs),
(475,94,o),
(405,50,o),
(310,45,c)
);
},
{
closed = 1;
nodes = (
(286,379,l),
(201,411,o),
(124,445,o),
(124,538,cs),
(124,623,o),
(196,665,o),
(286,669,c)
);
}
);
width = 600;
},
{
layerId = "82FB5ACD-33BC-4284-9837-1B4D88A7F1E9";
shapes = (
{
closed = 1;
nodes = (
(252,-58,l),
(276,-58,l),
(276,26,l),
(385,34,o),
(453,91,o),
(453,187,cs),
(453,283,o),
(387,325,o),
(276,371,c),
(276,670,l),
(320,670,o),
(365,659,o),
(411,636,c),
(423,660,l),
(376,683,o),
(327,695,o),
(276,696,c),
(276,760,l),
(252,760,l),
(252,695,l),
(156,689,o),
(85,633,o),
(85,537,cs),
(85,436,o),
(156,395,o),
(252,354,c),
(252,51,l),
(193,52,o),
(128,68,o),
(87,86,c),
(87,57,l),
(125,42,o),
(184,27,o),
(252,26,c)
);
},
{
closed = 1;
nodes = (
(276,343,l),
(374,300,o),
(427,266,o),
(427,187,cs),
(427,101,o),
(364,57,o),
(276,52,c)
);
},
{
closed = 1;
nodes = (
(252,381,l),
(173,416,o),
(112,451,o),
(112,538,cs),
(112,621,o),
(174,665,o),
(252,670,c)
);
}
);
width = 500;
},
{
layerId = "C5665599-2906-40DA-AF7F-7DBC0844951A";
shapes = (
{
closed = 1;
nodes = (
(232,-58,l),
(281,-58,l),
(281,41,l),
(383,57,o),
(442,122,o),
(442,212,cs),
(442,303,o),
(389,348,o),
(281,392,c),
(281,617,l),
(325,614,o),
(361,605,o),
(396,587,c),
(419,652,l),
(377,673,o),
(332,684,o),
(281,687,c),
(281,760,l),
(232,760,l),
(232,685,l),
(136,676,o),
(72,613,o),
(72,521,cs),
(72,428,o),
(117,380,o),
(232,335,c),
(232,105,l),
(175,107,o),
(120,125,o),
(83,148,c),
(83,70,l),
(120,51,o),
(172,38,o),
(232,37,c)
);
},
{
closed = 1;
nodes = (
(281,315,l),
(344,289,o),
(371,259,o),
(371,207,cs),
(371,159,o),
(341,121,o),
(281,109,c)
);
},
{
closed = 1;
nodes = (
(232,413,l),
(167,442,o),
(144,466,o),
(144,523,cs),
(144,572,o),
(176,609,o),
(232,616,c)
);
}
);
width = 500;
},
{
layerId = "35DC4C3B-953E-41FE-A906-9781CEBB9B49";
shapes = (
{
closed = 1;
nodes = (
(223,-58,l),
(290,-58,l),
(290,41,l),
(393,61,o),
(451,134,o),
(451,231,cs),
(451,326,o),
(401,373,o),
(290,416,c),
(290,573,l),
(328,568,o),
(369,556,o),
(406,535,c),
(438,644,l),
(390,670,o),
(339,685,o),
(290,689,c),
(290,759,l),
(223,759,l),
(223,688,l),
(125,675,o),
(56,616,o),
(56,511,cs),
(56,414,o),
(111,360,o),
(223,315,c),
(223,148,l),
(170,150,o),
(107,178,o),
(61,209,c),
(61,78,l),
(109,55,o),
(169,40,o),
(223,37,c)
);
},
{
closed = 1;
nodes = (
(290,286,l),
(320,270,o),
(336,251,o),
(336,221,cs),
(336,191,o),
(323,168,o),
(290,157,c)
);
},
{
closed = 1;
nodes = (
(223,444,l),
(188,463,o),
(174,480,o),
(174,508,cs),
(174,541,o),
(187,564,o),
(223,572,c)
);
}
);
width = 500;
}
);
script = "";
subCategory = Currency;
unicode = 36;
}
{
category = Symbol;
glyphname = percent;
layers = (
{
layerId = UUID0;
shapes = (
{
closed = 1;
nodes = (
(160,0,l),
(516,714,l),
(439,714,l),
(83,0,l)
);
},
{
closed = 1;
nodes = (
(544,-9,o),
(600,53,o),
(600,161,cs),
(600,269,o),
(539,330,o),
(458,330,cs),
(369,330,o),
(314,269,o),
(314,161,cs),
(314,53,o),
(374,-9,o),
(456,-9,cs)
);
},
{
closed = 1;
nodes = (
(411,49,o),
(388,84,o),
(388,161,cs),
(388,239,o),
(411,271,o),
(457,271,cs),
(502,271,o),
(525,239,o),
(525,161,cs),
(525,84,o),
(502,49,o),
(457,49,cs)
);
},
{
closed = 1;
nodes = (
(230,383,o),
(286,445,o),
(286,553,cs),
(286,661,o),
(225,722,o),
(144,722,cs),
(55,722,o),
(0,661,o),
(0,553,cs),
(0,445,o),
(60,383,o),
(142,383,cs)
);
},
{
closed = 1;
nodes = (
(97,441,o),
(74,476,o),
(74,553,cs),
(74,631,o),
(97,663,o),
(143,663,cs),
(188,663,o),
(211,631,o),
(211,553,cs),
(211,476,o),
(188,441,o),
(143,441,cs)
);
}
);
width = 600;
},
{
layerId = "A3018D0F-8B4B-4295-AE04-84912D9BB11D";
shapes = (
{
closed = 1;
nodes = (
(167,0,l),
(531,714,l),
(424,714,l),
(59,0,l)
);
},
{
closed = 1;
nodes = (
(548,-9,o),
(600,52,o),
(600,158,cs),
(600,269,o),
(548,330,o),
(456,330,cs),
(369,330,o),
(314,269,o),
(314,158,cs),
(314,52,o),
(369,-9,o),
(456,-9,cs)
);
},
{
closed = 1;
nodes = (
(425,76,o),
(412,103,o),
(412,158,cs),
(412,218,o),
(425,245,o),
(458,245,cs),
(486,245,o),
(502,218,o),
(502,158,cs),
(502,103,o),
(486,76,o),
(458,76,cs)
);
},
{
closed = 1;
nodes = (
(234,383,o),
(286,444,o),
(286,550,cs),
(286,661,o),
(234,722,o),
(142,722,cs),
(55,722,o),
(0,661,o),
(0,550,cs),
(0,444,o),
(55,383,o),
(142,383,cs)
);
},
{
closed = 1;
nodes = (
(111,468,o),
(98,495,o),
(98,550,cs),
(98,610,o),
(111,637,o),
(144,637,cs),
(172,637,o),
(188,610,o),
(188,550,cs),
(188,495,o),
(172,468,o),
(144,468,cs)
);
}
);
width = 600;
},
{
layerId = "963C7F4A-CFE2-43FC-8D10-B7434095D111";
shapes = (
{
closed = 1;
nodes = (
(179,-10,l),
(551,724,l),
(419,724,l),
(47,-10,l)
);
},
{
closed = 1;
nodes = (
(550,-10,o),
(600,52,o),
(600,159,cs),
(600,267,o),
(550,329,o),
(455,329,cs),
(366,329,o),
(313,269,o),
(313,159,cs),
(313,50,o),
(366,-10,o),
(455,-10,cs)
);
},
{
closed = 1;
nodes = (
(442,94,o),
(435,111,o),
(435,159,cs),
(435,208,o),
(442,225,o),
(458,225,cs),
(471,225,o),
(478,208,o),
(478,159,cs),
(478,111,o),
(471,94,o),
(458,94,cs)
);
},
{
closed = 1;
nodes = (
(237,385,o),
(287,447,o),
(287,554,cs),
(287,662,o),
(237,724,o),
(142,724,cs),
(53,724,o),
(0,664,o),
(0,554,cs),
(0,445,o),
(53,385,o),
(142,385,cs)
);
},
{
closed = 1;
nodes = (
(129,489,o),
(122,506,o),
(122,554,cs),
(122,603,o),
(129,620,o),
(144,620,cs),
(158,620,o),
(165,603,o),
(165,554,cs),
(165,506,o),
(158,489,o),
(144,489,cs)
);
}
);
width = 600;
},
{
layerId = "02EF4DD5-EF93-4764-9336-ED93C6797AC3";
shapes = (
{
closed = 1;
nodes = (
(124,0,l),
(494,714,l),
(464,714,l),
(94,0,l)
);
},
{
closed = 1;
nodes = (
(556,-9,o),
(600,63,o),
(600,163,cs),
(600,258,o),
(556,330,o),
(463,330,cs),
(368,330,o),
(324,258,o),
(324,163,cs),
(324,63,o),
(368,-9,o),
(463,-9,cs)
);
},
{
closed = 1;
nodes = (
(385,15,o),
(350,78,o),
(350,163,cs),
(350,246,o),
(385,306,o),
(463,306,cs),
(539,306,o),
(574,244,o),
(574,163,cs),
(574,77,o),
(538,15,o),
(463,15,cs)
);
},
{
closed = 1;
nodes = (
(232,383,o),
(276,455,o),
(276,555,cs),
(276,650,o),
(232,722,o),
(139,722,cs),
(44,722,o),
(0,650,o),
(0,555,cs),
(0,455,o),
(44,383,o),
(139,383,cs)
);
},
{
closed = 1;
nodes = (
(61,407,o),
(26,470,o),
(26,555,cs),
(26,638,o),
(61,698,o),
(139,698,cs),
(215,698,o),
(250,636,o),
(250,555,cs),
(250,469,o),
(214,407,o),
(139,407,cs)
);
}
);
width = 600;
},
{
layerId = "82FB5ACD-33BC-4284-9837-1B4D88A7F1E9";
shapes = (
{
closed = 1;
nodes = (
(71,168,l),
(458,545,l),
(423,545,l),
(36,168,l)
);
},
{
closed = 1;
nodes = (
(456,-9,o),
(500,63,o),
(500,163,cs),
(500,258,o),
(456,330,o),
(363,330,cs),
(268,330,o),
(224,258,o),
(224,163,cs),
(224,63,o),
(268,-9,o),
(363,-9,cs)
);
},
{
closed = 1;
nodes = (
(285,15,o),
(250,78,o),
(250,163,cs),
(250,246,o),
(285,306,o),
(363,306,cs),
(439,306,o),
(474,244,o),
(474,163,cs),
(474,77,o),
(438,15,o),
(363,15,cs)
);
},
{
closed = 1;
nodes = (
(232,383,o),
(276,455,o),
(276,555,cs),
(276,650,o),
(232,722,o),
(139,722,cs),
(44,722,o),
(0,650,o),
(0,555,cs),
(0,455,o),
(44,383,o),
(139,383,cs)
);
},
{
closed = 1;
nodes = (
(61,407,o),
(26,470,o),
(26,555,cs),
(26,638,o),
(61,698,o),
(139,698,cs),
(215,698,o),
(250,636,o),
(250,555,cs),
(250,469,o),
(214,407,o),
(139,407,cs)
);
}
);
width = 500;
},
{
layerId = "C5665599-2906-40DA-AF7F-7DBC0844951A";
shapes = (
{
closed = 1;
nodes = (
(93,168,l),
(483,545,l),
(405,545,l),
(15,168,l)
);
},
{
closed = 1;
nodes = (
(446,-9,o),
(500,53,o),
(500,161,cs),
(500,269,o),
(441,330,o),
(363,330,cs),
(277,330,o),
(224,269,o),
(224,161,cs),
(224,53,o),
(282,-9,o),
(361,-9,cs)
);
},
{
closed = 1;
nodes = (
(315,44,o),
(293,83,o),
(293,161,cs),
(293,239,o),
(314,276,o),
(362,276,cs),
(409,276,o),
(430,239,o),
(430,161,cs),
(430,83,o),
(408,44,o),
(362,44,cs)
);
},
{
closed = 1;
nodes = (
(222,383,o),
(276,445,o),
(276,553,cs),
(276,661,o),
(217,722,o),
(139,722,cs),
(53,722,o),
(0,661,o),
(0,553,cs),
(0,445,o),
(58,383,o),
(137,383,cs)
);
},
{
closed = 1;
nodes = (
(91,436,o),
(69,475,o),
(69,553,cs),
(69,631,o),
(90,668,o),
(138,668,cs),
(185,668,o),
(206,631,o),
(206,553,cs),
(206,475,o),
(184,436,o),
(138,436,cs)
);
}
);
width = 500;
},
{
layerId = "28AE7390-0F8D-4D03-A566-30BDF518EAE7";
shapes = (
{
closed = 1;
nodes = (
(112,168,l),
(483,545,l),
(387,545,l),
(15,168,l)
);
},
{
closed = 1;
nodes = (
(450,-9,o),
(500,51,o),
(500,158,cs),
(500,269,o),
(451,330,o),
(361,330,cs),
(275,330,o),
(224,267,o),
(224,158,cs),
(224,53,o),
(275,-9,o),
(361,-9,cs)
);
},
{
closed = 1;
nodes = (
(328,66,o),
(312,95,o),
(312,158,cs),
(312,225,o),
(327,255,o),
(363,255,cs),
(395,255,o),
(412,222,o),
(412,158,cs),
(412,99,o),
(395,66,o),
(363,66,cs)
);
},
{
closed = 1;
nodes = (
(226,383,o),
(276,443,o),
(276,550,cs),
(276,661,o),
(227,722,o),
(137,722,cs),
(51,722,o),
(0,659,o),
(0,550,cs),
(0,445,o),
(51,383,o),
(137,383,cs)
);
},
{
closed = 1;
nodes = (
(104,458,o),
(88,487,o),
(88,550,cs),
(88,617,o),
(103,647,o),
(139,647,cs),
(171,647,o),
(188,614,o),
(188,550,cs),
(188,491,o),
(171,458,o),
(139,458,cs)
);
}
);
width = 500;
},
{
layerId = "35DC4C3B-953E-41FE-A906-9781CEBB9B49";
shapes = (
{
closed = 1;
nodes = (
(121,168,l),
(500,545,l),
(379,545,l),
(0,168,l)
);
},
{
closed = 1;
nodes = (
(451,-10,o),
(500,53,o),
(500,159,cs),
(500,266,o),
(451,329,o),
(360,329,cs),
(272,329,o),
(223,265,o),
(223,159,cs),
(223,54,o),
(273,-10,o),
(360,-10,cs)
);
},
{
closed = 1;
nodes = (
(341,84,o),
(335,109,o),
(335,159,cs),
(335,210,o),
(341,235,o),
(363,235,cs),
(382,235,o),
(388,210,o),
(388,159,cs),
(388,109,o),
(382,84,o),
(363,84,cs)
);
},
{
closed = 1;
nodes = (
(228,385,o),
(277,448,o),
(277,554,cs),
(277,661,o),
(228,724,o),
(137,724,cs),
(49,724,o),
(0,660,o),
(0,554,cs),
(0,449,o),
(50,385,o),
(137,385,cs)
);
},
{
closed = 1;
nodes = (
(118,479,o),
(112,504,o),
(112,554,cs),
(112,605,o),
(118,630,o),
(139,630,cs),
(159,630,o),
(165,605,o),
(165,554,cs),
(165,504,o),
(159,479,o),
(139,479,cs)
);
}
);
width = 500;
}
);
script = "";
subCategory = Math;
unicode = 37;
}
{
category = Symbol;
glyphname = ampersand;
layers = (
{
layerId = UUID0;
shapes = (
{
closed = 1;
nodes = (
(397,-10,o),
(514,159,o),
(547,349,c),
(464,349,l),
(445,230,o),
(357,67,o),
(234,67,cs),
(166,67,o),
(125,117,o),
(125,181,cs),
(125,262,o),
(189,313,o),
(248,359,cs),
(318,414,o),
(399,479,o),
(399,580,cs),
(399,665,o),
(342,725,o),
(249,725,cs),
(156,725,o),
(99,666,o),
(99,578,cs),
(99,497,o),
(147,422,o),
(192,364,cs),
(474,0,l),
(581,0,l),
(244,420,ls),
(210,463,o),
(181,524,o),
(181,576,cs),
(181,626,o),
(207,656,o),
(249,656,cs),
(290,656,o),
(318,628,o),
(318,580,cs),
(318,502,o),
(242,446,o),
(197,414,cs),
(115,355,o),
(39,290,o),
(39,176,cs),
(39,69,o),
(105,-10,o),
(224,-10,cs)
);
}
);
width = 600;
},
{
layerId = "A3018D0F-8B4B-4295-AE04-84912D9BB11D";
shapes = (
{
closed = 1;
nodes = (
(426,-10,o),
(534,197,o),
(557,377,c),
(429,377,l),
(413,277,o),
(354,107,o),
(233,107,cs),
(184,107,o),
(158,147,o),
(158,188,cs),
(158,247,o),
(196,280,o),
(260,332,cs),
(355,409,o),
(415,486,o),
(415,564,cs),
(415,662,o),
(355,723,o),
(248,723,cs),
(150,723,o),
(87,659,o),
(87,554,cs),
(87,455,o),
(146,390,o),
(175,349,cs),
(427,0,l),
(585,0,l),
(265,422,ls),
(250,442,o),
(207,491,o),
(207,562,cs),
(207,605,o),
(226,626,o),
(255,626,cs),
(282,626,o),
(299,606,o),
(299,566,cs),
(299,507,o),
(249,468,o),
(197,430,cs),
(84,347,o),
(30,277,o),
(30,179,cs),
(30,71,o),
(89,-10,o),
(217,-10,cs)
);
}
);
width = 600;
},
{
layerId = "963C7F4A-CFE2-43FC-8D10-B7434095D111";
shapes = (
{
closed = 1;
nodes = (
(423,-10,o),
(558,230,o),
(567,401,c),
(433,401,l),
(429,313,o),
(349,133,o),
(241,133,cs),
(195,133,o),
(172,165,o),
(172,206,cs),
(172,252,o),
(201,283,o),
(261,331,cs),
(352,404,o),
(433,446,o),
(433,557,cs),
(433,655,o),
(371,723,o),
(260,723,cs),
(151,723,o),
(82,657,o),
(82,553,cs),
(82,465,o),
(131,391,o),
(165,345,cs),
(418,0,l),
(590,0,l),
(277,434,ls),
(255,464,o),
(219,508,o),
(219,555,cs),
(219,588,o),
(236,605,o),
(261,605,cs),
(286,605,o),
(300,588,o),
(300,563,cs),
(300,510,o),
(235,467,o),
(190,434,cs),
(113,378,o),
(20,307,o),
(20,184,cs),
(20,78,o),
(90,-10,o),
(216,-10,cs)
);
}
);
width = 600;
},
{
layerId = "02EF4DD5-EF93-4764-9336-ED93C6797AC3";
shapes = (
{
closed = 1;
nodes = (
(426,-10,o),
(523,149,o),
(544,317,c),
(519,317,l),
(504,172,o),
(412,15,o),
(261,15,cs),
(168,15,o),
(110,75,o),
(110,174,cs),
(110,283,o),
(180,330,o),
(257,379,cs),
(324,422,o),
(400,473,o),
(400,583,cs),
(400,674,o),
(349,725,o),
(276,725,cs),
(200,725,o),
(149,669,o),
(149,583,cs),
(149,515,o),
(181,456,o),
(239,381,cs),
(532,0,l),
(563,0,l),
(259,393,ls),
(212,454,o),
(174,517,o),
(174,585,cs),
(174,652,o),
(212,700,o),
(276,700,cs),
(338,700,o),
(374,654,o),
(374,584,cs),
(374,488,o),
(305,438,o),
(241,398,cs),
(160,347,o),
(84,296,o),
(84,175,cs),
(84,60,o),
(153,-10,o),
(262,-10,cs)
);
}
);
width = 600;
},
{
layerId = "82FB5ACD-33BC-4284-9837-1B4D88A7F1E9";
shapes = (
{
closed = 1;
nodes = (
(348,-10,o),
(430,149,o),
(448,317,c),
(423,317,l),
(410,175,o),
(330,15,o),
(199,15,cs),
(122,15,o),
(64,75,o),
(64,176,cs),
(64,265,o),
(111,327,o),
(191,379,cs),
(272,431,o),
(334,489,o),
(334,581,cs),
(334,675,o),
(283,725,o),
(211,725,cs),
(134,725,o),
(83,670,o),
(83,582,cs),
(83,512,o),
(122,453,o),
(172,382,cs),
(444,0,l),
(475,0,l),
(194,394,ls),
(148,458,o),
(108,516,o),
(108,582,cs),
(108,654,o),
(146,700,o),
(211,700,cs),
(272,700,o),
(308,655,o),
(308,581,cs),
(308,505,o),
(254,447,o),
(175,398,cs),
(87,343,o),
(38,277,o),
(38,176,cs),
(38,60,o),
(104,-10,o),
(197,-10,cs)
);
}
);
width = 500;
},
{
layerId = "C5665599-2906-40DA-AF7F-7DBC0844951A";
shapes = (
{
closed = 1;
nodes = (
(373,-10,o),
(453,186,o),
(464,340,c),
(387,340,l),
(383,234,o),
(319,60,o),
(207,60,cs),
(154,60,o),
(122,98,o),
(122,164,cs),
(122,251,o),
(179,306,o),
(232,355,cs),
(290,409,o),
(340,485,o),
(340,578,cs),
(340,666,o),
(296,724,o),
(219,724,cs),
(143,724,o),
(95,666,o),
(95,580,cs),
(95,505,o),
(132,431,o),
(178,357,cs),
(401,0,l),
(492,0,l),
(228,414,ls),
(203,453,o),
(169,517,o),
(169,582,cs),
(169,631,o),
(188,658,o),
(220,658,cs),
(251,658,o),
(269,634,o),
(269,581,cs),
(269,485,o),
(209,431,o),
(181,407,cs),
(105,341,o),
(42,272,o),
(42,165,cs),
(42,72,o),
(90,-10,o),
(201,-10,cs)
);
}
);
width = 500;
},
{
layerId = "28AE7390-0F8D-4D03-A566-30BDF518EAE7";
shapes = (
{
closed = 1;
nodes = (
(370,-10,o),
(452,186,o),
(474,371,c),
(376,371,l),
(362,267,o),
(306,100,o),
(205,100,cs),
(162,100,o),
(138,131,o),
(138,183,cs),
(138,258,o),
(187,307,o),
(234,349,cs),
(307,414,o),
(372,466,o),
(372,571,cs),
(372,659,o),
(327,723,o),
(228,723,cs),
(132,723,o),
(80,661,o),
(80,562,cs),
(80,471,o),
(124,411,o),
(154,356,cs),
(348,0,l),
(476,0,l),
(232,433,ls),
(212,469,o),
(185,520,o),
(185,571,cs),
(185,611,o),
(202,631,o),
(228,631,cs),
(253,631,o),
(269,611,o),
(269,574,cs),
(269,503,o),
(211,453,o),
(177,425,cs),
(100,361,o),
(23,292,o),
(23,169,cs),
(23,64,o),
(79,-10,o),
(190,-10,cs)
);
}
);
width = 500;
},
{
layerId = "35DC4C3B-953E-41FE-A906-9781CEBB9B49";
shapes = (
{
closed = 1;
nodes = (
(399,-10,o),
(462,178,o),
(488,371,c),
(376,371,l),
(361,263,o),
(312,110,o),
(217,110,cs),
(178,110,o),
(144,135,o),
(144,190,cs),
(144,245,o),
(179,279,o),
(234,328,cs),
(313,399,o),
(382,467,o),
(382,574,cs),
(382,663,o),
(335,723,o),
(228,723,cs),
(127,723,o),
(68,670,o),
(68,565,cs),
(68,478,o),
(108,412,o),
(143,352,cs),
(348,0,l),
(476,0,l),
(237,433,ls),
(219,466,o),
(185,519,o),
(185,569,cs),
(185,604,o),
(202,621,o),
(228,621,cs),
(253,621,o),
(269,606,o),
(269,571,cs),
(269,503,o),
(209,452,o),
(177,425,cs),
(74,339,o),
(20,287,o),
(20,176,cs),
(20,64,o),
(74,-10,o),
(199,-10,cs)
);
}
);
width = 500;
}
);
script = "";
subCategory = Other;
unicode = 38;
}
{
category = Punctuation;
glyphname = parenleft;
layers = (
{
layerId = UUID0;
shapes = (
{
closed = 1;
nodes = (
(429,-158,l),
(337,-33,o),
(289,120,o),
(289,275,cs),
(289,433,o),
(337,589,o),
(430,714,c),
(347,714,l),
(246,593,o),
(200,437,o),
(200,274,cs),
(200,113,o),
(246,-41,o),
(347,-158,c)
);
}
);
width = 600;
},
{
layerId = "A3018D0F-8B4B-4295-AE04-84912D9BB11D";
shapes = (
{
closed = 1;
nodes = (
(449,-165,l),
(363,-37,o),
(316,113,o),
(316,272,cs),
(316,435,o),
(361,587,o),
(450,714,c),
(331,714,l),
(240,597,o),
(190,443,o),
(190,271,cs),
(190,101,o),
(239,-49,o),
(331,-165,c)
);
}
);
width = 600;
},
{
layerId = "963C7F4A-CFE2-43FC-8D10-B7434095D111";
shapes = (
{
closed = 1;
nodes = (
(470,-178,l),
(385,-47,o),
(343,104,o),
(343,265,cs),
(343,431,o),
(382,587,o),
(470,714,c),
(315,714,l),
(227,598,o),
(180,440,o),
(180,264,cs),
(180,90,o),
(225,-62,o),
(315,-178,c)
);
}
);
width = 600;
},
{
layerId = "02EF4DD5-EF93-4764-9336-ED93C6797AC3";
shapes = (
{
closed = 1;
nodes = (
(396,-158,l),
(295,-39,o),
(249,109,o),
(249,275,cs),
(249,443,o),
(294,596,o),
(397,714,c),
(367,714,l),
(276,606,o),
(222,451,o),
(222,274,cs),
(222,99,o),
(276,-46,o),
(367,-158,c)
);
}
);
width = 600;
},
{
layerId = "82FB5ACD-33BC-4284-9837-1B4D88A7F1E9";
shapes = (
{
closed = 1;
nodes = (
(356,-158,l),
(255,-39,o),
(209,109,o),
(209,275,cs),
(209,443,o),
(253,596,o),
(356,714,c),
(327,714,l),
(236,606,o),
(182,451,o),
(182,274,cs),
(182,99,o),
(236,-46,o),
(327,-158,c)
);
}
);
width = 500;
},
{
layerId = "C5665599-2906-40DA-AF7F-7DBC0844951A";
shapes = (
{
closed = 1;
nodes = (
(371,-164,l),
(287,-40,o),
(241,116,o),
(241,272,cs),
(241,430,o),
(285,583,o),
(372,714,c),
(301,714,l),
(210,598,o),
(159,440,o),
(159,271,cs),
(159,104,o),
(207,-50,o),
(301,-164,c)
);
}
);
width = 500;
},
{
layerId = "28AE7390-0F8D-4D03-A566-30BDF518EAE7";
shapes = (
{
closed = 1;
nodes = (
(413,-171,l),
(330,-39,o),
(284,106,o),
(284,268,cs),
(284,435,o),
(327,584,o),
(414,714,c),
(303,714,l),
(220,600,o),
(166,447,o),
(166,267,cs),
(166,90,o),
(217,-56,o),
(303,-171,c)
);
}
);
width = 500;
},
{
layerId = "35DC4C3B-953E-41FE-A906-9781CEBB9B49";
shapes = (
{
closed = 1;
nodes = (
(411,-175,l),
(330,-38,o),
(284,101,o),
(284,266,cs),
(284,437,o),
(325,584,o),
(412,714,c),
(279,714,l),
(200,602,o),
(144,450,o),
(144,265,cs),
(144,83,o),
(197,-60,o),
(279,-175,c)
);
}
);
width = 500;
}
);
script = "";
subCategory = Parenthesis;
unicode = 40;
}
{
category = Punctuation;
glyphname = asterisk;
layers = (
{
layerId = UUID0;
shapes = (
{
closed = 1;
nodes = (
(458,381,l),
(352,514,l),
(513,534,l),
(498,616,l),
(327,569,l),
(339,746,l),
(260,746,l),
(274,569,l),
(104,612,l),
(90,537,l),
(252,516,l),
(146,382,l),
(220,335,l),
(300,489,l),
(381,334,l)
);
}
);
width = 600;
},
{
layerId = "963C7F4A-CFE2-43FC-8D10-B7434095D111";
shapes = (
{
closed = 1;
nodes = (
(488,374,l),
(390,497,l),
(535,520,l),
(508,647,l),
(354,601,l),
(371,762,l),
(227,762,l),
(245,601,l),
(94,645,l),
(65,518,l),
(209,497,l),
(112,370,l),
(226,302,l),
(298,433,l),
(378,300,l)
);
}
);
width = 600;
},
{
layerId = "02EF4DD5-EF93-4764-9336-ED93C6797AC3";
shapes = (
{
closed = 1;
nodes = (
(462,374,l),
(339,537,l),
(533,594,l),
(525,621,l),
(332,556,l),
(337,758,l),
(309,758,l),
(313,556,l),
(121,621,l),
(112,594,l),
(307,536,l),
(185,374,l),
(208,358,l),
(323,524,l),
(439,357,l)
);
}
);
width = 600;
},
{
layerId = "82FB5ACD-33BC-4284-9837-1B4D88A7F1E9";
shapes = (
{
closed = 1;
nodes = (
(360,446,l),
(257,578,l),
(409,627,l),
(402,650,l),
(252,594,l),
(256,759,l),
(231,759,l),
(235,594,l),
(83,649,l),
(75,627,l),
(230,578,l),
(125,445,l),
(145,431,l),
(243,568,l),
(341,431,l)
);
}
);
width = 500;
},
{
layerId = "C5665599-2906-40DA-AF7F-7DBC0844951A";
shapes = (
{
closed = 1;
nodes = (
(378,469,l),
(293,580,l),
(412,589,l),
(397,667,l),
(277,631,l),
(292,761,l),
(208,761,l),
(222,631,l),
(103,666,l),
(87,588,l),
(204,580,l),
(122,469,l),
(189,428,l),
(250,550,l),
(309,428,l)
);
}
);
width = 500;
},
{
layerId = "35DC4C3B-953E-41FE-A906-9781CEBB9B49";
shapes = (
{
closed = 1;
nodes = (
(428,414,l),
(328,524,l),
(462,540,l),
(431,667,l),
(299,617,l),
(317,762,l),
(182,762,l),
(200,617,l),
(68,667,l),
(37,540,l),
(171,524,l),
(71,414,l),
(179,337,l),
(249,468,l),
(319,337,l)
);
}
);
width = 500;
}
);
script = "";
subCategory = Other;
unicode = 42;
}
{
category = Punctuation;
glyphname = comma;
kernLeft = period;
kernRight = period;
layers = (
{
layerId = UUID0;
shapes = (
{
closed = 1;
nodes = (
(285,-140,l),
(321,-60,o),
(360,39,o),
(380,117,c),
(372,129,l),
(265,129,l),
(254,53,o),
(232,-53,o),
(211,-140,c)
);
}
);
width = 600;
},
{
layerId = "963C7F4A-CFE2-43FC-8D10-B7434095D111";
shapes = (
{
closed = 1;
nodes = (
(322,-160,ls),
(355,-85,o),
(391,69,o),
(409,141,c),
(402,153,ls),
(233,153,l),
(224,71,o),
(204,-68,o),
(184,-160,cs)
);
}
);
width = 600;
},
{
layerId = "02EF4DD5-EF93-4764-9336-ED93C6797AC3";
shapes = (
{
closed = 1;
nodes = (
(270,-129,l),
(298,-60,o),
(320,30,o),
(335,104,c),
(332,116,l),
(304,116,l),
(293,40,o),
(277,-32,o),
(248,-129,c)
);
}
);
width = 600;
},
{
layerId = "82FB5ACD-33BC-4284-9837-1B4D88A7F1E9";
shapes = (
{
closed = 1;
nodes = (
(230,-129,l),
(258,-60,o),
(280,30,o),
(295,104,c),
(292,116,l),
(264,116,l),
(253,40,o),
(237,-32,o),
(208,-129,c)
);
}
);
width = 500;
},
{
layerId = "C5665599-2906-40DA-AF7F-7DBC0844951A";
shapes = (
{
closed = 1;
nodes = (
(222,-131,l),
(254,-59,o),
(284,27,o),
(303,104,c),
(296,115,l),
(206,115,l),
(198,44,o),
(179,-52,o),
(159,-131,c)
);
}
);
width = 500;
},
{
layerId = "35DC4C3B-953E-41FE-A906-9781CEBB9B49";
shapes = (
{
closed = 1;
nodes = (
(276,-137,l),
(305,-64,o),
(327,23,o),
(343,128,c),
(337,139,l),
(194,139,l),
(190,65,o),
(172,-60,o),
(156,-137,c)
);
}
);
width = 500;
}
);
script = "";
subCategory = Other;
unicode = 44;
}
{
category = Punctuation;
glyphname = hyphen;
layers = (
{
layerId = UUID0;
shapes = (
{
closed = 1;
nodes = (
(450,230,l),
(450,310,l),
(150,310,l),
(150,230,l)
);
}
);
width = 600;
},
{
layerId = "963C7F4A-CFE2-43FC-8D10-B7434095D111";
shapes = (
{
closed = 1;
nodes = (
(450,195,l),
(450,345,l),
(150,345,l),
(150,195,l)
);
}
);
width = 600;
},
{
layerId = "02EF4DD5-EF93-4764-9336-ED93C6797AC3";
shapes = (
{
closed = 1;
nodes = (
(450,265,l),
(450,290,l),
(150,290,l),
(150,265,l)
);
}
);
width = 600;
},
{
layerId = "82FB5ACD-33BC-4284-9837-1B4D88A7F1E9";
shapes = (
{
closed = 1;
nodes = (
(375,265,l),
(375,290,l),
(125,290,l),
(125,265,l)
);
}
);
width = 500;
},
{
layerId = "C5665599-2906-40DA-AF7F-7DBC0844951A";
shapes = (
{
closed = 1;
nodes = (
(375,232,l),
(375,310,l),
(124,310,l),
(124,232,l)
);
}
);
width = 500;
},
{
layerId = "35DC4C3B-953E-41FE-A906-9781CEBB9B49";
shapes = (
{
closed = 1;
nodes = (
(375,200,l),
(375,340,l),
(125,340,l),
(125,200,l)
);
}
);
width = 500;
}
);
script = "";
subCategory = Dash;
unicode = 45;
}
{
category = Punctuation;
glyphname = period;
kernLeft = period;
kernRight = period;
layers = (
{
layerId = UUID0;
shapes = (
{
closed = 1;
nodes = (
(334,-10,o),
(362,10,o),
(362,58,cs),
(362,108,o),
(334,126,o),
(300,126,cs),
(265,126,o),
(238,108,o),
(238,58,cs),
(238,10,o),
(265,-10,o),
(300,-10,cs)
);
}
);
width = 600;
},
{
layerId = "963C7F4A-CFE2-43FC-8D10-B7434095D111";
shapes = (
{
closed = 1;
nodes = (
(355,-7,o),
(400,19,o),
(400,84,cs),
(400,151,o),
(355,176,o),
(302,176,cs),
(247,176,o),
(201,151,o),
(201,84,cs),
(201,19,o),
(247,-7,o),
(302,-7,cs)
);
}
);
width = 600;
},
{
layerId = "02EF4DD5-EF93-4764-9336-ED93C6797AC3";
shapes = (
{
closed = 1;
nodes = (
(325,-12,o),
(330,4,o),
(330,23,cs),
(330,41,o),
(325,58,o),
(300,58,cs),
(276,58,o),
(270,41,o),
(270,23,cs),
(270,4,o),
(276,-12,o),
(300,-12,cs)
);
}
);
width = 600;
},
{
layerId = "82FB5ACD-33BC-4284-9837-1B4D88A7F1E9";
shapes = (
{
closed = 1;
nodes = (
(273,-12,o),
(279,4,o),
(279,23,cs),
(279,41,o),
(273,58,o),
(251,58,cs),
(227,58,o),
(221,41,o),
(221,23,cs),
(221,4,o),
(227,-12,o),
(251,-12,cs)
);
}
);
width = 500;
},
{
layerId = "C5665599-2906-40DA-AF7F-7DBC0844951A";
shapes = (
{
closed = 1;
nodes = (
(282,-12,o),
(308,9,o),
(308,55,cs),
(308,102,o),
(283,120,o),
(249,120,cs),
(215,120,o),
(192,100,o),
(192,55,cs),
(192,10,o),
(215,-12,o),
(249,-12,cs)
);
}
);
width = 500;
},
{
layerId = "35DC4C3B-953E-41FE-A906-9781CEBB9B49";
shapes = (
{
closed = 1;
nodes = (
(303,-11,o),
(334,20,o),
(334,76,cs),
(334,133,o),
(304,164,o),
(251,164,cs),
(196,164,o),
(166,132,o),
(166,76,cs),
(166,20,o),
(199,-11,o),
(251,-11,cs)
);
}
);
width = 500;
}
);
script = "";
subCategory = Other;
unicode = 46;
}
{
category = Punctuation;
glyphname = slash;
layers = (
{
layerId = UUID0;
shapes = (
{
closed = 1;
nodes = (
(206,0,l),
(480,714,l),
(394,714,l),
(120,0,l)
);
}
);
width = 600;
},
{
layerId = "963C7F4A-CFE2-43FC-8D10-B7434095D111";
shapes = (
{
closed = 1;
nodes = (
(235,-10,l),
(520,724,l),
(365,724,l),
(80,-10,l)
);
}
);
width = 600;
},
{
layerId = "02EF4DD5-EF93-4764-9336-ED93C6797AC3";
shapes = (
{
closed = 1;
nodes = (
(180,0,l),
(448,714,l),
(420,714,l),
(152,0,l)
);
}
);
width = 600;
},
{
layerId = "82FB5ACD-33BC-4284-9837-1B4D88A7F1E9";
shapes = (
{
closed = 1;
nodes = (
(130,0,l),
(398,714,l),
(370,714,l),
(102,0,l)
);
}
);
width = 500;
},
{
layerId = "C5665599-2906-40DA-AF7F-7DBC0844951A";
shapes = (
{
closed = 1;
nodes = (
(96,-3,l),
(358,717,l),
(282,717,l),
(19,-3,l)
);
}
);
width = 500;
},
{
layerId = "35DC4C3B-953E-41FE-A906-9781CEBB9B49";
shapes = (
{
closed = 1;
nodes = (
(176,-8,l),
(452,722,l),
(324,722,l),
(48,-8,l)
);
}
);
width = 500;
}
);
script = "";
subCategory = Other;
unicode = 47;
}
{
category = Number;
color = 10;
glyphname = zero;
layers = (
{
layerId = UUID0;
shapes = (
{
closed = 1;
nodes = (
(472,-10,o),
(540,127,o),
(540,358,cs),
(540,590,o),
(467,724,o),
(299,724,cs),
(127,724,o),
(60,589,o),
(60,358,cs),
(60,127,o),
(132,-10,o),
(299,-10,cs)
);
},
{
closed = 1;
nodes = (
(458,560,l),
(406,626,l),
(126,152,l),
(185,100,l)
);
},
{
closed = 1;
nodes = (
(187,69,o),
(144,172,o),
(144,358,cs),
(144,553,o),
(191,645,o),
(299,645,cs),
(409,645,o),
(459,547,o),
(459,358,cs),
(459,161,o),
(408,69,o),
(299,69,cs)
);
}
);
width = 600;
},
{
associatedMasterId = UUID0;
attr = {
coordinates = (
151,
100
);
};
background = {
shapes = (
{
closed = 1;
nodes = (
(471.44,-10,o),
(529.66,132.29,o),
(529.66,357,cs),
(529.66,597.34,o),
(457.71,723,o),
(311,723,cs),
(159.24,723,o),
(92.95,600.29,o),
(92.95,357,cs),
(92.95,98.27,o),
(168.29,-10,o),
(311,-10,cs)
);
},
{
closed = 1;
nodes = (
(453.36,525.33,l),
(420.27,654.13,l),
(144.78,158.78,l),
(192.8,61.06,l)
);
},
{
closed = 1;
nodes = (
(240.34,105.34,o),
(215.95,179.39,o),
(215.95,357,cs),
(215.95,527.39,o),
(240.29,608.27,o),
(311,608.27,cs),
(374.98,608.27,o),
(404.83,526.39,o),
(404.83,357,cs),
(404.83,185.44,o),
(378.88,105.34,o),
(311,105.34,cs)
);
}
);
};
layerId = "1566fe30-c03b-4d66-82ae-b6f7657f0e04";
name = "SemiBold (intermediate)";
shapes = (
{
closed = 1;
nodes = (
(487,-10,o),
(550,139,o),
(550,352,cs),
(550,593,o),
(470,724,o),
(297,724,cs),
(128,724,o),
(50,599,o),
(50,361,cs),
(50,121,o),
(129,-10,o),
(302,-10,cs)
);
},
{
closed = 1;
nodes = (
(460,529,l),
(385,603,l),
(125,172,l),
(201,106,l)
);
},
{
closed = 1;
nodes = (
(217,107,o),
(190,188,o),
(190,352,cs),
(190,515,o),
(217,603,o),
(299,603,cs),
(384,603,o),
(407,506,o),
(407,350,cs),
(407,188,o),
(382,107,o),
(299,107,cs)
);
}
);
width = 600;
},
{
layerId = "963C7F4A-CFE2-43FC-8D10-B7434095D111";
shapes = (
{
closed = 1;
nodes = (
(499,-10,o),
(560,139,o),
(560,356,cs),
(560,594,o),
(475,724,o),
(299,724,cs),
(115,724,o),
(40,599,o),
(40,356,cs),
(40,121,o),
(124,-10,o),
(299,-10,cs)
);
},
{
closed = 1;
nodes = (
(460,516,l),
(385,607,l),
(125,179,l),
(201,97,l)
);
},
{
closed = 1;
nodes = (
(217,138,o),
(193,208,o),
(193,356,cs),
(193,503,o),
(218,577,o),
(299,577,cs),
(381,577,o),
(405,503,o),
(405,356,cs),
(405,207,o),
(381,138,o),
(299,138,cs)
);
}
);
width = 600;
},
{
layerId = "02EF4DD5-EF93-4764-9336-ED93C6797AC3";
shapes = (
{
closed = 1;
nodes = (
(445,-10,o),
(512,113,o),
(512,365,cs),
(512,573,o),
(466,725,o),
(303,725,cs),
(141,725,o),
(87,574,o),
(87,359,cs),
(87,105,o),
(162,-10,o),
(301,-10,cs)
);
},
{
closed = 1;
nodes = (
(463,617,l),
(446,637,l),
(143,121,l),
(151,87,l)
);
},
{
closed = 1;
nodes = (
(177,15,o),
(114,123,o),
(114,360,cs),
(114,559,o),
(159,700,o),
(303,700,cs),
(447,700,o),
(485,560,o),
(485,363,cs),
(485,127,o),
(430,15,o),
(302,15,cs)
);
}
);
width = 600;
},
{
layerId = "82FB5ACD-33BC-4284-9837-1B4D88A7F1E9";
shapes = (
{
closed = 1;
nodes = (
(380,-8,o),
(436,130,o),
(436,359,cs),
(436,571,o),
(390,725,o),
(253,725,cs),
(113,725,o),
(64,572,o),
(64,358,cs),
(64,126,o),
(130,-8,o),
(252,-8,cs)
);
},
{
closed = 1;
nodes = (
(405,579,l),
(388,599,l),
(108,118,l),
(116,84,l)
);
},
{
closed = 1;
nodes = (
(143,17,o),
(91,141,o),
(91,359,cs),
(91,558,o),
(132,700,o),
(253,700,cs),
(374,700,o),
(409,559,o),
(409,359,cs),
(409,144,o),
(366,17,o),
(253,17,cs)
);
}
);
width = 500;
},
{
layerId = "C5665599-2906-40DA-AF7F-7DBC0844951A";
shapes = (
{
closed = 1;
nodes = (
(411,-10,o),
(468,127,o),
(468,358,cs),
(468,590,o),
(406,725,o),
(249,725,cs),
(88,725,o),
(32,589,o),
(32,358,cs),
(32,127,o),
(92,-10,o),
(249,-10,cs)
);
},
{
closed = 1;
nodes = (
(408,566,l),
(356,621,l),
(76,140,l),
(135,99,l)
);
},
{
closed = 1;
nodes = (
(153,62,o),
(119,175,o),
(119,358,cs),
(119,553,o),
(155,653,o),
(249,653,cs),
(356,653,o),
(383,547,o),
(383,358,cs),
(383,161,o),
(345,62,o),
(249,62,cs)
);
}
);
width = 500;
},
{
associatedMasterId = "C5665599-2906-40DA-AF7F-7DBC0844951A";
attr = {
coordinates = (
151,
70
);
};
background = {
shapes = (
{
closed = 1;
nodes = (
(425.03,-10,o),
(476.54,141.03,o),
(476.54,356.78,cs),
(476.54,596.1,o),
(404.17,725,o),
(249,725,cs),
(90.44,725,o),
(22.85,601.81,o),
(22.85,356.78,cs),
(22.85,119.07,o),
(93.83,-10,o),
(249,-10,cs)
);
},
{
closed = 1;
nodes = (
(423.86,567.83,l),
(338.92,589.28,l),
(76.61,157.69,l),
(156.96,130.11,l)
);
},
{
closed = 1;
nodes = (
(174.96,107.75,o),
(151.94,197.57,o),
(151.94,356.78,cs),
(151.94,523.11,o),
(178.18,607.25,o),
(249,607.25,cs),
(327.94,607.25,o),
(348.23,520.77,o),
(348.23,356.78,cs),
(348.23,186.62,o),
(323.65,107.75,o),
(249,107.75,cs)
);
}
);
};
layerId = "23cd08ea-9416-44de-82a6-c2b602389e61";
name = "SemiBold Condensed (intermediate)";
shapes = (
{
closed = 1;
nodes = (
(408,-10,o),
(454,139,o),
(454,357,cs),
(454,601,o),
(390,724,o),
(261,724,cs),
(130,724,o),
(68,607,o),
(68,357,cs),
(68,94,o),
(135,-10,o),
(261,-10,cs)
);
},
{
closed = 1;
nodes = (
(418,560,l),
(366,629,l),
(96,148,l),
(155,93,l)
);
},
{
closed = 1;
nodes = (
(210,102,o),
(194,183,o),
(194,357,cs),
(194,528,o),
(211,612,o),
(261,612,cs),
(311,612,o),
(327,527,o),
(327,357,cs),
(327,183,o),
(311,102,o),
(261,102,cs)
);
}
);
width = 500;
},
{
layerId = "35DC4C3B-953E-41FE-A906-9781CEBB9B49";
shapes = (
{
closed = 1;
nodes = (
(434,-10,o),
(482,150,o),
(482,356,cs),
(482,600,o),
(403,725,o),
(249,725,cs),
(92,725,o),
(17,610,o),
(17,356,cs),
(17,114,o),
(95,-10,o),
(249,-10,cs)
);
},
{
closed = 1;
nodes = (
(434,569,l),
(328,569,l),
(77,169,l),
(171,150,l)
);
},
{
closed = 1;
nodes = (
(189,137,o),
(173,212,o),
(173,356,cs),
(173,504,o),
(193,578,o),
(249,578,cs),
(310,578,o),
(326,504,o),
(326,356,cs),
(326,203,o),
(310,137,o),
(249,137,cs)
);
}
);
width = 500;
}
);
script = "";
subCategory = "Decimal Digit";
unicode = 48;
}
{
category = Number;
glyphname = one;
layers = (
{
layerId = UUID0;
shapes = (
{
closed = 1;
nodes = (
(283,0,l),
(369,0,l),
(369,714,l),
(296,714,l),
(97,613,l),
(136,545,l),
(219,588,ls),
(253,605,o),
(265,610,o),
(287,622,c),
(285,578,o),
(283,502,o),
(283,446,cs)
);
},
{
closed = 1;
nodes = (
(520,0,l),
(520,60,l),
(369,70,l),
(283,70,l),
(133,60,l),
(133,0,l)
);
}
);
width = 600;
},
{
layerId = "A3018D0F-8B4B-4295-AE04-84912D9BB11D";
shapes = (
{
closed = 1;
nodes = (
(251,0,l),
(396,0,l),
(396,714,l),
(278,714,l),
(68,602,l),
(133,485,l),
(201,522,ls),
(216,530,o),
(235,542,o),
(255,555,c),
(252,508,o),
(251,465,o),
(251,413,cs)
);
},
{
closed = 1;
nodes = (
(530,0,l),
(530,101,l),
(396,116,l),
(252,116,l),
(113,101,l),
(113,0,l)
);
}
);
width = 600;
},
{
layerId = "963C7F4A-CFE2-43FC-8D10-B7434095D111";
shapes = (
{
closed = 1;
nodes = (
(229,0,l),
(405,0,l),
(405,714,l),
(248,714,l),
(40,595,l),
(110,462,l),
(171,495,ls),
(189,505,o),
(207,517,o),
(231,533,c),
(229,489,o),
(229,397,o),
(229,365,cs)
);
},
{
closed = 1;
nodes = (
(540,0,l),
(540,130,l),
(405,142,l),
(230,142,l),
(94,130,l),
(94,0,l)
);
}
);
width = 600;
},
{
layerId = "02EF4DD5-EF93-4764-9336-ED93C6797AC3";
shapes = (
{
closed = 1;
nodes = (
(333,0,l),
(359,0,l),
(359,714,l),
(336,714,l),
(141,572,l),
(157,551,l),
(280,642,ls),
(305,661,o),
(318,671,o),
(334,685,c),
(333,658,o),
(333,620,o),
(333,563,cs)
);
},
{
closed = 1;
nodes = (
(486,0,l),
(486,20,l),
(359,23,l),
(333,23,l),
(200,20,l),
(200,0,l)
);
}
);
width = 600;
},
{
layerId = "82FB5ACD-33BC-4284-9837-1B4D88A7F1E9";
shapes = (
{
closed = 1;
nodes = (
(251,0,l),
(278,0,l),
(278,714,l),
(255,714,l),
(87,580,l),
(104,560,l),
(204,641,ls),
(224,658,o),
(237,668,o),
(252,683,c),
(251,648,o),
(251,614,o),
(251,565,cs)
);
},
{
closed = 1;
nodes = (
(406,0,l),
(406,20,l),
(278,23,l),
(251,23,l),
(126,20,l),
(126,0,l)
);
}
);
width = 500;
},
{
layerId = "C5665599-2906-40DA-AF7F-7DBC0844951A";
shapes = (
{
closed = 1;
nodes = (
(232,0,l),
(316,0,l),
(316,714,l),
(247,714,l),
(67,603,l),
(107,540,l),
(181,585,ls),
(205,599,o),
(216,607,o),
(235,625,c),
(233,581,o),
(232,504,o),
(232,448,cs)
);
},
{
closed = 1;
nodes = (
(436,0,l),
(436,59,l),
(317,69,l),
(232,69,l),
(102,59,l),
(102,0,l)
);
}
);
width = 500;
},
{
layerId = "28AE7390-0F8D-4D03-A566-30BDF518EAE7";
shapes = (
{
closed = 1;
nodes = (
(207,0,l),
(335,0,l),
(335,714,l),
(211,714,l),
(10,602,l),
(65,502,l),
(142,543,ls),
(167,556,o),
(190,567,o),
(213,587,c),
(208,541,o),
(207,495,o),
(207,422,cs)
);
},
{
closed = 1;
nodes = (
(465,0,l),
(465,97,l),
(329,110,l),
(222,110,l),
(74,97,l),
(74,0,l)
);
}
);
width = 500;
},
{
layerId = "35DC4C3B-953E-41FE-A906-9781CEBB9B49";
shapes = (
{
closed = 1;
nodes = (
(189,0,l),
(350,0,l),
(350,714,l),
(216,714,l),
(18,585,l),
(94,459,l),
(140,489,ls),
(162,504,o),
(176,516,o),
(193,530,c),
(191,486,o),
(189,420,o),
(189,378,cs)
);
},
{
closed = 1;
nodes = (
(469,0,l),
(469,118,l),
(349,131,l),
(190,131,l),
(60,118,l),
(60,0,l)
);
}
);
width = 500;
}
);
script = "";
subCategory = "Decimal Digit";
unicode = 49;
}
{
category = Number;
glyphname = two;
layers = (
{
layerId = UUID0;
shapes = (
{
closed = 1;
nodes = (
(545,0,l),
(545,80,l),
(191,80,l),
(191,84,l),
(344,233,ls),
(446,332,o),
(507,419,o),
(507,527,cs),
(507,654,o),
(424,724,o),
(296,724,cs),
(203,724,o),
(131,687,o),
(77,640,c),
(127,578,l),
(175,617,o),
(230,645,o),
(293,645,cs),
(365,645,o),
(417,609,o),
(417,524,cs),
(417,434,o),
(359,361,o),
(260,263,cs),
(70,76,l),
(70,0,l)
);
}
);
width = 600;
},
{
layerId = "963C7F4A-CFE2-43FC-8D10-B7434095D111";
shapes = (
{
closed = 1;
nodes = (
(565,0,l),
(565,150,l),
(291,150,l),
(291,155,l),
(392,243,ls),
(524,358,o),
(564,424,o),
(564,509,cs),
(564,653,o),
(448,724,o),
(302,724,cs),
(200,724,o),
(121,689,o),
(40,609,c),
(133,492,l),
(189,548,o),
(231,576,o),
(290,576,cs),
(343,576,o),
(378,553,o),
(378,499,cs),
(378,432,o),
(326,389,o),
(196,265,cs),
(47,123,l),
(47,0,l)
);
}
);
width = 600;
},
{
layerId = "02EF4DD5-EF93-4764-9336-ED93C6797AC3";
shapes = (
{
closed = 1;
nodes = (
(521,0,l),
(521,25,l),
(145,25,l),
(145,27,l),
(353,246,ls),
(445,342,o),
(487,419,o),
(487,539,cs),
(487,652,o),
(414,724,o),
(300,724,cs),
(238,724,o),
(171,705,o),
(110,655,c),
(125,635,l),
(178,678,o),
(241,699,o),
(298,699,cs),
(399,699,o),
(460,639,o),
(460,539,cs),
(460,428,o),
(424,357,o),
(333,260,cs),
(109,23,l),
(109,0,l)
);
}
);
width = 600;
},
{
layerId = "82FB5ACD-33BC-4284-9837-1B4D88A7F1E9";
shapes = (
{
closed = 1;
nodes = (
(437,0,l),
(437,25,l),
(104,25,l),
(104,27,l),
(273,235,ls),
(355,336,o),
(412,418,o),
(412,539,cs),
(412,657,o),
(345,724,o),
(245,724,cs),
(189,724,o),
(132,705,o),
(86,668,c),
(101,648,l),
(142,680,o),
(194,699,o),
(244,699,cs),
(330,699,o),
(385,646,o),
(385,539,cs),
(385,427,o),
(339,356,o),
(256,254,cs),
(68,21,l),
(68,0,l)
);
}
);
width = 500;
},
{
layerId = "C5665599-2906-40DA-AF7F-7DBC0844951A";
shapes = (
{
closed = 1;
nodes = (
(445,0,l),
(445,79,l),
(165,79,l),
(165,84,l),
(272,228,ls),
(357,343,o),
(423,422,o),
(423,536,cs),
(423,652,o),
(354,724,o),
(242,724,cs),
(164,724,o),
(103,691,o),
(53,643,c),
(98,586,l),
(132,619,o),
(181,651,o),
(234,651,cs),
(296,651,o),
(338,608,o),
(338,528,cs),
(338,428,o),
(273,358,o),
(201,263,cs),
(58,74,l),
(58,0,l)
);
}
);
width = 500;
},
{
layerId = "35DC4C3B-953E-41FE-A906-9781CEBB9B49";
shapes = (
{
closed = 1;
nodes = (
(453,0,l),
(453,146,l),
(237,146,l),
(237,151,l),
(319,250,ls),
(415,366,o),
(443,438,o),
(443,515,cs),
(443,651,o),
(357,724,o),
(237,724,cs),
(153,724,o),
(86,692,o),
(21,610,c),
(102,501,l),
(147,556,o),
(183,578,o),
(220,578,cs),
(260,578,o),
(276,552,o),
(276,510,cs),
(276,462,o),
(256,413,o),
(172,300,cs),
(37,119,l),
(37,0,l)
);
}
);
width = 500;
}
);
script = "";
subCategory = "Decimal Digit";
unicode = 50;
}
{
category = Number;
color = 10;
glyphname = four;
layers = (
{
layerId = UUID0;
shapes = (
{
closed = 1;
nodes = (
(446,0,l),
(446,160,l),
(550,160,l),
(550,237,l),
(446,237,l),
(446,718,l),
(344,718,l),
(50,234,l),
(50,160,l),
(360,160,l),
(360,0,l)
);
},
{
closed = 1;
nodes = (
(318,538,ls),
(331,560,o),
(353,600,o),
(362,626,c),
(366,626,l),
(364,581,o),
(360,488,o),
(360,415,cs),
(360,237,l),
(137,237,l)
);
}
);
width = 600;
},
{
associatedMasterId = UUID0;
attr = {
coordinates = (
151,
100
);
};
background = {
shapes = (
{
closed = 1;
nodes = (
(471.27,0,l),
(471.27,149.05,l),
(560,149.05,l),
(560,252.27,l),
(471.27,252.27,l),
(471.27,717,l),
(336.56,717,l),
(40,249.27,l),
(40,149.05,l),
(341.39,149.05,l),
(341.39,0,l)
);
},
{
closed = 1;
nodes = (
(295.19,479.09,ls),
(307.63,499.36,o),
(323.07,520.29,o),
(337.56,544.17,c),
(342.56,544.17,l),
(340.56,500.9,o),
(340.39,481.27,o),
(340.39,438.78,cs),
(340.39,252.27,l),
(154.93,252.27,l)
);
}
);
};
layerId = "9da33425-fa2b-42fc-ad5e-5d78759069d5";
name = "SemiBold (intermediate)";
shapes = (
{
closed = 1;
nodes = (
(468,0,l),
(468,148,l),
(560,148,l),
(560,265,l),
(468,265,l),
(468,714,l),
(333,714,l),
(40,253,l),
(40,148,l),
(330,148,l),
(330,0,l)
);
},
{
closed = 1;
nodes = (
(290,461,ls),
(306,488,o),
(321,512,o),
(333,539,c),
(337,539,l),
(335,528,o),
(330,416,o),
(330,386,cs),
(330,265,l),
(173,265,l)
);
}
);
width = 600;
},
{
layerId = "963C7F4A-CFE2-43FC-8D10-B7434095D111";
shapes = (
{
closed = 1;
nodes = (
(481,0,l),
(481,142,l),
(570,142,l),
(570,279,l),
(481,279,l),
(481,714,l),
(317,714,l),
(30,276,l),
(30,142,l),
(315,142,l),
(315,0,l)
);
},
{
closed = 1;
nodes = (
(263,410,ls),
(276,431,o),
(295,459,o),
(311,488,c),
(316,488,l),
(315,442,o),
(315,397,o),
(315,376,cs),
(315,279,l),
(180,279,l)
);
}
);
width = 600;
},
{
layerId = "02EF4DD5-EF93-4764-9336-ED93C6797AC3";
shapes = (
{
closed = 1;
nodes = (
(426,0,l),
(426,195,l),
(540,195,l),
(540,219,l),
(426,219,l),
(426,718,l),
(394,718,l),
(60,213,l),
(60,195,l),
(400,195,l),
(400,0,l)
);
},
{
closed = 1;
nodes = (
(337,587,ls),
(365,629,o),
(377,650,o),
(399,686,c),
(401,686,l),
(400,635,o),
(400,610,o),
(400,524,cs),
(400,219,l),
(94,219,l)
);
}
);
width = 600;
},
{
layerId = "82FB5ACD-33BC-4284-9837-1B4D88A7F1E9";
shapes = (
{
closed = 1;
nodes = (
(362,0,l),
(362,185,l),
(450,185,l),
(450,210,l),
(362,210,l),
(362,718,l),
(329,718,l),
(50,207,l),
(50,185,l),
(336,185,l),
(336,0,l)
);
},
{
closed = 1;
nodes = (
(282,582,ls),
(302,619,o),
(317,646,o),
(336,682,c),
(337,682,l),
(336,645,o),
(336,626,o),
(336,571,cs),
(336,210,l),
(80,210,l)
);
}
);
width = 500;
},
{
layerId = "C5665599-2906-40DA-AF7F-7DBC0844951A";
shapes = (
{
closed = 1;
nodes = (
(377,0,l),
(377,161,l),
(460,161,l),
(460,240,l),
(377,240,l),
(377,718,l),
(275,718,l),
(40,237,l),
(40,161,l),
(292,161,l),
(292,0,l)
);
},
{
closed = 1;
nodes = (
(249,503,ls),
(264,534,o),
(284,587,o),
(294,622,c),
(297,622,l),
(295,576,o),
(292,483,o),
(292,409,cs),
(292,240,l),
(123,240,l)
);
}
);
width = 500;
},
{
associatedMasterId = "C5665599-2906-40DA-AF7F-7DBC0844951A";
attr = {
coordinates = (
151,
70
);
};
background = {
shapes = (
{
closed = 1;
nodes = (
(394.08,0,l),
(394.08,146.97,l),
(472.2,146.97,l),
(472.2,261.35,l),
(394.08,261.35,l),
(394.08,715.56,l),
(260.97,715.56,l),
(27.8,258.35,l),
(27.8,146.97,l),
(265.16,146.97,l),
(265.16,0,l)
);
},
{
closed = 1;
nodes = (
(228.26,443.83,ls),
(240.82,469.95,o),
(256.55,507.7,o),
(265.33,539.65,c),
(268.94,539.65,l),
(267.55,497.31,o),
(265.16,423.22,o),
(265.16,386.43,cs),
(265.16,261.35,l),
(141.3,261.35,l)
);
}
);
};
layerId = "bd1116a1-0b38-481d-9340-11e0ffaaf3d4";
name = "SemiBold Condensed (intermediate)";
shapes = (
{
closed = 1;
nodes = (
(398,0,l),
(398,147,l),
(470,147,l),
(470,251,l),
(398,251,l),
(398,717,l),
(270,717,l),
(30,248,l),
(30,147,l),
(274,147,l),
(274,0,l)
);
},
{
closed = 1;
nodes = (
(239,463,ls),
(251,488,o),
(262,514,o),
(272,542,c),
(276,542,l),
(274,502,o),
(273,472,o),
(273,434,cs),
(273,251,l),
(133,251,l)
);
}
);
width = 500;
},
{
layerId = "35DC4C3B-953E-41FE-A906-9781CEBB9B49";
shapes = (
{
closed = 1;
nodes = (
(405,0,l),
(405,138,l),
(480,138,l),
(480,275,l),
(405,275,l),
(405,714,l),
(252,714,l),
(20,272,l),
(20,138,l),
(248,138,l),
(248,0,l)
);
},
{
closed = 1;
nodes = (
(215,406,ls),
(226,429,o),
(239,457,o),
(247,487,c),
(251,487,l),
(250,447,o),
(248,385,o),
(248,372,cs),
(248,275,l),
(153,275,l)
);
}
);
width = 500;
}
);
script = "";
subCategory = "Decimal Digit";
unicode = 52;
}
{
category = Number;
color = 10;
glyphname = five;
layers = (
{
layerId = UUID0;
shapes = (
{
closed = 1;
nodes = (
(424,-10,o),
(519,80,o),
(519,220,cs),
(519,366,o),
(415,438,o),
(285,438,cs),
(254,438,o),
(208,434,o),
(180,428,c),
(199,634,l),
(478,634,l),
(478,714,l),
(122,714,l),
(95,378,l),
(139,350,l),
(172,358,o),
(218,365,o),
(256,365,cs),
(360,365,o),
(427,314,o),
(427,214,cs),
(427,115,o),
(361,69,o),
(249,69,cs),
(186,69,o),
(125,84,o),
(80,114,c),
(80,29,l),
(125,3,o),
(194,-10,o),
(257,-10,cs)
);
}
);
width = 600;
},
{
associatedMasterId = UUID0;
attr = {
coordinates = (
151,
100
);
};
background = {
shapes = (
{
closed = 1;
nodes = (
(427.66,-10,o),
(534.25,77.56,o),
(534.25,235.25,cs),
(534.25,374.54,o),
(449.77,456.3,o),
(317.33,456.3,cs),
(289.99,456.3,o),
(256.19,452.91,o),
(225.14,446.91,c),
(237.43,591.3,l),
(492.03,591.3,l),
(492.03,714,l),
(102.48,714,l),
(77.31,355.43,l),
(132.29,323.16,l),
(165.29,332.38,o),
(210.07,339.38,o),
(246.24,339.38,cs),
(333.77,339.38,o),
(386.13,298.75,o),
(386.13,224.98,cs),
(386.13,149.16,o),
(333.55,111.09,o),
(247.78,111.09,cs),
(177.46,111.09,o),
(114.63,130.36,o),
(64.75,156.09,c),
(64.75,28.39,l),
(117.07,3,o),
(186.07,-10,o),
(253.34,-10,cs)
);
}
);
};
layerId = "cd11e791-2b46-4920-bc15-561e4f51b24a";
name = "SemiBold (intermediate)";
shapes = (
{
closed = 1;
nodes = (
(407,-10,o),
(525,71,o),
(525,232,cs),
(525,375,o),
(433,454,o),
(311,454,cs),
(292,454,o),
(266,452,o),
(235,446,c),
(246,590,l),
(486,590,l),
(486,714,l),
(116,714,l),
(88,350,l),
(148,320,l),
(174,331,o),
(216,337,o),
(254,337,cs),
(316,337,o),
(373,308,o),
(373,222,cs),
(373,150,o),
(333,116,o),
(255,116,cs),
(200,116,o),
(134,130,o),
(76,159,c),
(76,29,l),
(125,3,o),
(193,-10,o),
(253,-10,cs)
);
}
);
width = 600;
},
{
layerId = "963C7F4A-CFE2-43FC-8D10-B7434095D111";
shapes = (
{
closed = 1;
nodes = (
(430,-10,o),
(544,76,o),
(544,245,cs),
(544,380,o),
(472,468,o),
(338,468,cs),
(313,468,o),
(287,465,o),
(254,459,c),
(262,564,l),
(501,564,l),
(501,714,l),
(90,714,l),
(66,341,l),
(128,306,l),
(161,316,o),
(205,323,o),
(240,323,cs),
(317,323,o),
(360,289,o),
(360,232,cs),
(360,171,o),
(316,138,o),
(247,138,cs),
(172,138,o),
(108,160,o),
(55,183,c),
(55,28,l),
(112,3,o),
(181,-10,o),
(251,-10,cs)
);
}
);
width = 600;
},
{
layerId = "02EF4DD5-EF93-4764-9336-ED93C6797AC3";
shapes = (
{
closed = 1;
nodes = (
(423,-10,o),
(505,77,o),
(505,219,cs),
(505,351,o),
(427,426,o),
(289,426,cs),
(229,426,o),
(174,413,o),
(155,406,c),
(181,689,l),
(472,689,l),
(472,714,l),
(158,714,l),
(128,393,l),
(147,378,l),
(195,393,o),
(244,401,o),
(288,401,cs),
(418,401,o),
(478,331,o),
(478,217,cs),
(478,91,o),
(404,15,o),
(278,15,cs),
(215,15,o),
(150,34,o),
(104,62,c),
(104,32,l),
(143,9,o),
(211,-10,o),
(276,-10,cs)
);
}
);
width = 600;
},
{
layerId = "82FB5ACD-33BC-4284-9837-1B4D88A7F1E9";
shapes = (
{
closed = 1;
nodes = (
(359,-10,o),
(438,84,o),
(438,220,cs),
(438,348,o),
(368,426,o),
(238,426,cs),
(184,426,o),
(142,415,o),
(114,408,c),
(137,689,l),
(398,689,l),
(398,714,l),
(114,714,l),
(87,393,l),
(104,378,l),
(141,391,o),
(185,401,o),
(237,401,cs),
(358,401,o),
(411,331,o),
(411,220,cs),
(411,99,o),
(343,15,o),
(218,15,cs),
(158,15,o),
(107,33,o),
(71,55,c),
(71,26,l),
(106,6,o),
(156,-10,o),
(218,-10,cs)
);
}
);
width = 500;
},
{
layerId = "C5665599-2906-40DA-AF7F-7DBC0844951A";
shapes = (
{
closed = 1;
nodes = (
(353,-10,o),
(435,80,o),
(435,229,cs),
(435,365,o),
(355,437,o),
(241,437,cs),
(211,437,o),
(185,431,o),
(159,427,c),
(174,635,l),
(393,635,l),
(393,714,l),
(99,714,l),
(76,379,l),
(116,351,l),
(140,356,o),
(181,364,o),
(214,364,cs),
(297,364,o),
(346,313,o),
(346,219,cs),
(346,113,o),
(298,64,o),
(211,64,cs),
(162,64,o),
(106,81,o),
(63,111,c),
(63,29,l),
(100,3,o),
(153,-10,o),
(211,-10,cs)
);
}
);
width = 500;
},
{
layerId = "35DC4C3B-953E-41FE-A906-9781CEBB9B49";
shapes = (
{
closed = 1;
nodes = (
(372,-10,o),
(451,81,o),
(451,233,cs),
(451,379,o),
(378,468,o),
(275,468,cs),
(264,468,o),
(241,467,o),
(213,459,c),
(220,567,l),
(415,567,l),
(415,714,l),
(79,714,l),
(58,345,l),
(111,310,l),
(139,321,o),
(164,327,o),
(189,327,cs),
(250,327,o),
(281,293,o),
(281,230,cs),
(281,167,o),
(250,134,o),
(193,134,cs),
(150,134,o),
(94,153,o),
(49,179,c),
(49,27,l),
(93,2,o),
(145,-10,o),
(206,-10,cs)
);
}
);
width = 500;
}
);
script = "";
subCategory = "Decimal Digit";
unicode = 53;
}
{
category = Number;
color = 10;
glyphname = six;
layers = (
{
layerId = UUID0;
shapes = (
{
closed = 1;
nodes = (
(450,-10,o),
(540,81,o),
(540,230,cs),
(540,371,o),
(455,452,o),
(322,452,cs),
(237,452,o),
(181,414,o),
(155,364,c),
(149,364,l),
(155,519,o),
(203,648,o),
(395,648,cs),
(425,648,o),
(458,644,o),
(481,636,c),
(481,715,l),
(459,721,o),
(418,724,o),
(392,724,cs),
(117,724,o),
(60,513,o),
(60,308,cs),
(60,94,o),
(156,-10,o),
(308,-10,cs)
);
},
{
closed = 1;
nodes = (
(202,65,o),
(149,160,o),
(149,247,cs),
(149,312,o),
(213,382,o),
(310,382,cs),
(405,382,o),
(454,329,o),
(454,230,cs),
(454,112,o),
(393,65,o),
(307,65,cs)
);
}
);
width = 600;
},
{
associatedMasterId = UUID0;
attr = {
coordinates = (
151,
100
);
};
background = {
shapes = (
{
closed = 1;
nodes = (
(451.29,-10,o),
(538.12,88.39,o),
(538.12,235.78,cs),
(538.12,373.17,o),
(466.78,466.95,o),
(344.32,466.95,cs),
(276.54,466.95,o),
(221.76,433.73,o),
(200.54,383.39,c),
(195.54,383.39,l),
(202.37,534.9,o),
(265.91,612,o),
(397,612,cs),
(426.95,612,o),
(461.51,608,o),
(490.95,601,c),
(490.95,715,l),
(459.17,721,o),
(416.17,724,o),
(384.17,724,cs),
(125.52,724,o),
(67.05,533.1,o),
(67.05,301.44,cs),
(67.05,101.24,o),
(161.15,-10,o),
(311,-10,cs)
);
},
{
closed = 1;
nodes = (
(239.66,103.83,o),
(203.37,172.9,o),
(203.37,244.92,cs),
(203.37,299.12,o),
(237.49,355.12,o),
(308.83,355.12,cs),
(373.9,355.12,o),
(404.19,312.46,o),
(404.19,230.29,cs),
(404.19,141.27,o),
(364.68,103.83,o),
(306.83,103.83,cs)
);
}
);
};
layerId = "77566c52-dd8b-4055-b1db-159b900c1fc7";
name = "SemiBold (intermediate)";
shapes = (
{
closed = 1;
nodes = (
(458,-11,o),
(545,85,o),
(545,238,cs),
(545,376,o),
(478,464,o),
(352,464,cs),
(280,464,o),
(232,436,o),
(200,381,c),
(194,381,l),
(206,530,o),
(270,604,o),
(405,604,cs),
(437,604,o),
(466,601,o),
(495,594,c),
(495,715,l),
(472,720,o),
(440,722,o),
(411,722,cs),
(170,722,o),
(55,586,o),
(55,326,cs),
(55,105,o),
(155,-11,o),
(309,-11,c)
);
},
{
closed = 1;
nodes = (
(244,116,o),
(205,162,o),
(205,230,cs),
(205,305,o),
(253,348,o),
(309,348,cs),
(370,348,o),
(399,306,o),
(399,236,cs),
(399,156,o),
(366,116,o),
(306,116,cs)
);
}
);
width = 600;
},
{
layerId = "963C7F4A-CFE2-43FC-8D10-B7434095D111";
shapes = (
{
closed = 1;
nodes = (
(455,-10,o),
(554,87,o),
(554,244,cs),
(554,391,o),
(479,476,o),
(362,476,cs),
(294,476,o),
(242,444,o),
(218,393,c),
(213,393,l),
(220,517,o),
(288,579,o),
(410,579,cs),
(440,579,o),
(475,576,o),
(509,570,c),
(509,716,l),
(472,721,o),
(425,724,o),
(390,724,cs),
(109,724,o),
(45,512,o),
(45,302,cs),
(45,97,o),
(153,-10,o),
(309,-10,cs)
);
},
{
closed = 1;
nodes = (
(257,139,o),
(227,174,o),
(227,233,cs),
(227,286,o),
(253,332,o),
(307,332,cs),
(356,332,o),
(375,297,o),
(375,235,cs),
(375,168,o),
(345,139,o),
(305,139,cs)
);
}
);
width = 600;
},
{
layerId = "02EF4DD5-EF93-4764-9336-ED93C6797AC3";
shapes = (
{
closed = 1;
nodes = (
(440,-10,o),
(514,88,o),
(514,225,cs),
(514,355,o),
(439,439,o),
(315,439,cs),
(204,439,o),
(143,379,o),
(117,322,c),
(115,322,l),
(115,599,o),
(230,701,o),
(362,701,cs),
(395,701,o),
(431,695,o),
(455,686,c),
(455,713,l),
(428,721,o),
(394,726,o),
(363,726,cs),
(210,726,o),
(90,604,o),
(90,327,cs),
(90,147,o),
(145,-10,o),
(312,-10,cs)
);
},
{
closed = 1;
nodes = (
(151,15,o),
(122,188,o),
(122,245,cs),
(122,337,o),
(197,414,o),
(314,414,cs),
(433,414,o),
(487,339,o),
(487,225,cs),
(487,97,o),
(425,15,o),
(312,15,cs)
);
}
);
width = 600;
},
{
layerId = "82FB5ACD-33BC-4284-9837-1B4D88A7F1E9";
shapes = (
{
closed = 1;
nodes = (
(367,-12,o),
(432,80,o),
(432,221,cs),
(432,350,o),
(371,438,o),
(258,438,cs),
(156,438,o),
(103,374,o),
(86,328,c),
(85,328,l),
(88,586,o),
(177,698,o),
(308,698,cs),
(340,698,o),
(371,692,o),
(393,684,c),
(393,710,l),
(371,718,o),
(341,723,o),
(308,723,cs),
(167,723,o),
(59,617,o),
(59,305,cs),
(59,119,o),
(113,-12,o),
(252,-12,cs)
);
},
{
closed = 1;
nodes = (
(119,13,o),
(90,169,o),
(90,248,cs),
(90,335,o),
(152,413,o),
(255,413,cs),
(361,413,o),
(405,337,o),
(405,222,cs),
(405,90,o),
(352,13,o),
(252,13,cs)
);
}
);
width = 500;
},
{
layerId = "C5665599-2906-40DA-AF7F-7DBC0844951A";
shapes = (
{
closed = 1;
nodes = (
(373,-10,o),
(444,82,o),
(444,228,cs),
(444,367,o),
(380,447,o),
(278,447,cs),
(210,447,o),
(171,411,o),
(144,363,c),
(139,363,l),
(145,520,o),
(189,653,o),
(331,653,cs),
(356,653,o),
(379,649,o),
(399,641,c),
(399,715,l),
(382,721,o),
(354,724,o),
(329,724,cs),
(130,724,o),
(54,528,o),
(54,312,cs),
(54,87,o),
(136,-10,o),
(256,-10,cs)
);
},
{
closed = 1;
nodes = (
(173,63,o),
(142,160,o),
(142,238,cs),
(142,317,o),
(193,378,o),
(260,378,cs),
(325,378,o),
(359,322,o),
(359,225,cs),
(359,118,o),
(317,63,o),
(258,63,cs)
);
}
);
width = 500;
},
{
associatedMasterId = "C5665599-2906-40DA-AF7F-7DBC0844951A";
attr = {
coordinates = (
151,
70
);
};
background = {
shapes = (
{
closed = 1;
nodes = (
(382.76,-10,o),
(457.42,86.27,o),
(457.42,237.76,cs),
(457.42,381.03,o),
(395.86,464.69,o),
(295.08,464.69,cs),
(236.23,464.69,o),
(198.45,433.57,o),
(173.89,381.3,c),
(169.5,381.3,l),
(174.28,524.88,o),
(221.94,610.91,o),
(340.15,610.91,cs),
(368.2,610.91,o),
(394.86,607.52,o),
(419.13,600.74,c),
(419.13,715.61,l),
(391.76,721,o),
(360.1,724,o),
(329.61,724,cs),
(105.6,724,o),
(41.8,521.29,o),
(41.8,305.9,cs),
(41.8,98.59,o),
(125.02,-10,o),
(256.61,-10,cs)
);
},
{
closed = 1;
nodes = (
(202.89,106.31,o),
(179.21,174.64,o),
(179.21,246.54,cs),
(179.21,306.02,o),
(211.91,352.38,o),
(256.34,352.38,cs),
(301.21,352.38,o),
(323.62,311.02,o),
(323.62,234.76,cs),
(323.62,147.89,o),
(295.04,106.31,o),
(254.95,106.31,cs)
);
}
);
};
layerId = "c2bcab97-3fff-4835-9cc2-a58f4b2c0cbf";
name = "SemiBold Condensed (intermediate)";
shapes = (
{
closed = 1;
nodes = (
(381,-10,o),
(447,90,o),
(447,235,cs),
(447,371,o),
(393,465,o),
(293,465,cs),
(241,465,o),
(202,435,o),
(181,383,c),
(177,383,l),
(182,542,o),
(233,617,o),
(333,617,cs),
(361,617,o),
(388,613,o),
(412,606,c),
(412,715,l),
(384,721,o),
(354,724,o),
(323,724,cs),
(119,724,o),
(58,542,o),
(58,303,cs),
(58,104,o),
(132,-10,o),
(259,-10,cs)
);
},
{
closed = 1;
nodes = (
(207,100,o),
(186,179,o),
(186,253,cs),
(186,309,o),
(212,356,o),
(257,356,cs),
(300,356,o),
(322,314,o),
(322,232,cs),
(322,143,o),
(296,100,o),
(256,100,cs)
);
}
);
width = 500;
},
{
layerId = "35DC4C3B-953E-41FE-A906-9781CEBB9B49";
shapes = (
{
closed = 1;
nodes = (
(389,-10,o),
(466,89,o),
(466,244,cs),
(466,390,o),
(406,476,o),
(306,476,cs),
(253,476,o),
(216,448,o),
(193,393,c),
(189,393,l),
(193,528,o),
(243,584,o),
(346,584,cs),
(376,584,o),
(405,581,o),
(432,575,c),
(432,716,l),
(398,721,o),
(364,724,o),
(330,724,cs),
(90,724,o),
(34,517,o),
(34,302,cs),
(34,106,o),
(118,-10,o),
(257,-10,cs)
);
},
{
closed = 1;
nodes = (
(222,134,o),
(203,184,o),
(203,252,cs),
(203,299,o),
(224,336,o),
(254,336,cs),
(286,336,o),
(301,304,o),
(301,241,cs),
(301,167,o),
(281,134,o),
(253,134,cs)
);
}
);
width = 500;
}
);
script = "";
subCategory = "Decimal Digit";
unicode = 54;
}
{
category = Number;
color = 10;
glyphname = seven;
layers = (
{
layerId = UUID0;
shapes = (
{
closed = 1;
nodes = (
(269,0,l),
(540,643,l),
(540,714,l),
(60,714,l),
(60,634,l),
(449,634,l),
(174,0,l)
);
}
);
width = 600;
},
{
associatedMasterId = UUID0;
attr = {
coordinates = (
151,
100
);
};
background = {
shapes = (
{
closed = 1;
nodes = (
(297.95,0,l),
(553.88,625.61,l),
(553.88,714.61,l),
(69.73,714.61,l),
(69.73,600.39,l),
(415.9,600.39,l),
(157.46,0,l)
);
}
);
};
layerId = "5148bf09-f4ff-4906-8a39-b9dcc8cdc076";
name = "SemiBold (intermediate)";
shapes = (
{
closed = 1;
nodes = (
(280,0,l),
(550,618,l),
(550,713,l),
(50,713,l),
(50,590,l),
(390,590,l),
(122,0,l)
);
}
);
width = 600;
},
{
layerId = "963C7F4A-CFE2-43FC-8D10-B7434095D111";
shapes = (
{
closed = 1;
nodes = (
(307,0,l),
(560,599,l),
(560,714,l),
(40,714,l),
(40,564,l),
(373,564,l),
(119,0,l)
);
}
);
width = 600;
},
{
layerId = "02EF4DD5-EF93-4764-9336-ED93C6797AC3";
shapes = (
{
closed = 1;
nodes = (
(242,0,l),
(510,697,l),
(510,714,l),
(128,714,l),
(128,689,l),
(480,689,l),
(213,0,l)
);
}
);
width = 600;
},
{
layerId = "82FB5ACD-33BC-4284-9837-1B4D88A7F1E9";
shapes = (
{
closed = 1;
nodes = (
(173,0,l),
(428,695,l),
(428,714,l),
(53,714,l),
(53,689,l),
(400,689,l),
(144,0,l)
);
}
);
width = 500;
},
{
layerId = "C5665599-2906-40DA-AF7F-7DBC0844951A";
shapes = (
{
closed = 1;
nodes = (
(219,0,l),
(447,644,l),
(447,714,l),
(50,714,l),
(50,635,l),
(355,635,l),
(126,0,l)
);
}
);
width = 500;
},
{
associatedMasterId = "C5665599-2906-40DA-AF7F-7DBC0844951A";
attr = {
coordinates = (
151,
70
);
};
background = {
shapes = (
{
closed = 1;
nodes = (
(245.23,0,l),
(454.32,616.55,l),
(454.32,713.39,l),
(42.07,713.39,l),
(42.07,592.91,l),
(314.74,592.91,l),
(100.99,0,l)
);
}
);
};
layerId = "caba3447-25b8-43c8-8ac7-4edc93c2c492";
name = "SemiBold Condensed (intermediate)";
shapes = (
{
closed = 1;
nodes = (
(251,0,l),
(456,626,l),
(456,714,l),
(64,714,l),
(64,602,l),
(328,602,l),
(118,0,l)
);
}
);
width = 500;
},
{
layerId = "35DC4C3B-953E-41FE-A906-9781CEBB9B49";
shapes = (
{
closed = 1;
nodes = (
(262,0,l),
(459,599,l),
(459,713,l),
(37,713,l),
(37,566,l),
(289,566,l),
(85,0,l)
);
}
);
width = 500;
}
);
script = "";
subCategory = "Decimal Digit";
unicode = 55;
}
{
category = Number;
glyphname = eight;
layers = (
{
layerId = UUID0;
shapes = (
{
closed = 1;
nodes = (
(440,-10,o),
(531,69,o),
(531,180,cs),
(531,278,o),
(461,333,o),
(373,378,c),
(450,414,o),
(508,466,o),
(508,554,cs),
(508,666,o),
(413,724,o),
(301,724,cs),
(189,724,o),
(91,666,o),
(91,554,cs),
(91,468,o),
(149,412,o),
(214,374,c),
(134,337,o),
(68,280,o),
(68,179,cs),
(68,62,o),
(157,-10,o),
(295,-10,cs)
);
},
{
closed = 1;
nodes = (
(199,63,o),
(156,112,o),
(156,180,cs),
(156,256,o),
(206,304,o),
(287,340,c),
(392,290,o),
(444,256,o),
(444,185,cs),
(444,114,o),
(393,63,o),
(298,63,c)
);
},
{
closed = 1;
nodes = (
(239,442,o),
(178,474,o),
(178,549,cs),
(178,615,o),
(226,649,o),
(299,649,cs),
(374,649,o),
(421,614,o),
(421,549,cs),
(421,480,o),
(368,443,o),
(301,414,c)
);
}
);
width = 600;
},
{
layerId = "A3018D0F-8B4B-4295-AE04-84912D9BB11D";
shapes = (
{
closed = 1;
nodes = (
(432,-10,o),
(541,58,o),
(541,185,cs),
(541,259,o),
(500,320,o),
(400,377,c),
(483,422,o),
(519,478,o),
(519,551,cs),
(519,666,o),
(420,723,o),
(300,723,cs),
(182,723,o),
(81,664,o),
(81,552,cs),
(81,482,o),
(111,424,o),
(186,373,c),
(97,325,o),
(59,263,o),
(59,181,cs),
(59,49,o),
(162,-10,o),
(300,-10,cs)
);
},
{
closed = 1;
nodes = (
(237,107,o),
(199,139,o),
(199,190,cs),
(199,239,o),
(230,279,o),
(293,311,c),
(368,268,o),
(401,232,o),
(401,189,cs),
(401,141,o),
(367,107,o),
(298,107,cs)
);
},
{
closed = 1;
nodes = (
(253,466,o),
(223,493,o),
(223,540,cs),
(223,579,o),
(254,605,o),
(299,605,cs),
(345,605,o),
(377,580,o),
(377,540,cs),
(377,499,o),
(357,470,o),
(300,440,c)
);
}
);
width = 600;
},
{
layerId = "963C7F4A-CFE2-43FC-8D10-B7434095D111";
shapes = (
{
closed = 1;
nodes = (
(463,-10,o),
(549,69,o),
(549,183,cs),
(549,272,o),
(493,326,o),
(405,375,c),
(488,414,o),
(535,469,o),
(535,550,cs),
(535,664,o),
(444,724,o),
(300,724,cs),
(157,724,o),
(72,664,o),
(72,551,cs),
(72,475,o),
(110,419,o),
(173,373,c),
(96,330,o),
(49,276,o),
(49,188,cs),
(49,66,o),
(130,-10,o),
(294,-10,cs)
);
},
{
closed = 1;
nodes = (
(244,126,o),
(216,147,o),
(216,194,cs),
(216,234,o),
(250,264,o),
(292,291,c),
(339,259,o),
(383,236,o),
(383,190,cs),
(383,149,o),
(347,126,o),
(299,126,cs)
);
},
{
closed = 1;
nodes = (
(263,481,o),
(239,501,o),
(239,536,cs),
(239,568,o),
(264,589,o),
(303,589,cs),
(334,589,o),
(366,573,o),
(366,536,cs),
(366,502,o),
(339,481,o),
(299,458,c)
);
}
);
width = 600;
},
{
layerId = "02EF4DD5-EF93-4764-9336-ED93C6797AC3";
shapes = (
{
closed = 1;
nodes = (
(398,-10,o),
(493,59,o),
(493,181,cs),
(493,281,o),
(431,339,o),
(314,382,c),
(413,424,o),
(469,474,o),
(469,564,cs),
(469,663,o),
(393,724,o),
(287,724,cs),
(171,724,o),
(97,659,o),
(97,558,cs),
(97,461,o),
(166,415,o),
(251,381,c),
(143,342,o),
(74,282,o),
(74,176,cs),
(74,65,o),
(158,-10,o),
(278,-10,cs)
);
},
{
closed = 1;
nodes = (
(172,15,o),
(101,79,o),
(101,176,cs),
(101,282,o),
(181,332,o),
(281,368,c),
(420,318,o),
(466,269,o),
(466,183,cs),
(466,72,o),
(387,15,o),
(278,15,cs)
);
},
{
closed = 1;
nodes = (
(186,431,o),
(124,469,o),
(124,560,cs),
(124,649,o),
(190,699,o),
(287,699,cs),
(383,699,o),
(442,649,o),
(442,565,cs),
(442,477,o),
(390,437,o),
(284,395,c)
);
}
);
width = 600;
},
{
layerId = "82FB5ACD-33BC-4284-9837-1B4D88A7F1E9";
shapes = (
{
closed = 1;
nodes = (
(361,-10,o),
(440,65,o),
(440,177,cs),
(440,276,o),
(377,330,o),
(275,380,c),
(360,422,o),
(420,470,o),
(420,563,cs),
(420,661,o),
(355,724,o),
(251,724,cs),
(147,724,o),
(80,659,o),
(80,563,cs),
(80,471,o),
(141,421,o),
(222,380,c),
(128,339,o),
(60,280,o),
(60,173,cs),
(60,66,o),
(136,-10,o),
(247,-10,cs)
);
},
{
closed = 1;
nodes = (
(153,15,o),
(87,75,o),
(87,172,cs),
(87,275,o),
(158,327,o),
(248,367,c),
(366,311,o),
(412,262,o),
(412,176,cs),
(412,78,o),
(346,15,o),
(248,15,cs)
);
},
{
closed = 1;
nodes = (
(158,436,o),
(107,482,o),
(107,563,cs),
(107,647,o),
(165,698,o),
(251,698,cs),
(339,698,o),
(393,650,o),
(393,563,cs),
(393,477,o),
(332,433,o),
(250,393,c)
);
}
);
width = 500;
},
{
layerId = "C5665599-2906-40DA-AF7F-7DBC0844951A";
shapes = (
{
closed = 1;
nodes = (
(362,-10,o),
(443,66,o),
(443,187,cs),
(443,281,o),
(393,338,o),
(316,378,c),
(384,413,o),
(424,467,o),
(424,551,cs),
(424,669,o),
(344,725,o),
(250,725,cs),
(157,725,o),
(74,670,o),
(74,550,cs),
(74,469,o),
(112,412,o),
(173,374,c),
(98,336,o),
(55,279,o),
(55,183,cs),
(55,53,o),
(135,-10,o),
(243,-10,cs)
);
},
{
closed = 1;
nodes = (
(175,63,o),
(139,110,o),
(139,183,cs),
(139,253,o),
(173,302,o),
(241,341,c),
(332,290,o),
(360,254,o),
(360,188,cs),
(360,110,o),
(321,63,o),
(248,63,cs)
);
},
{
closed = 1;
nodes = (
(196,445,o),
(158,476,o),
(158,547,cs),
(158,617,o),
(194,652,o),
(249,652,cs),
(304,652,o),
(340,617,o),
(340,548,cs),
(340,482,o),
(308,442,o),
(250,413,c)
);
}
);
width = 500;
},
{
layerId = "28AE7390-0F8D-4D03-A566-30BDF518EAE7";
shapes = (
{
closed = 1;
nodes = (
(381,-10,o),
(457,65,o),
(457,185,cs),
(457,264,o),
(417,319,o),
(336,375,c),
(408,418,o),
(440,476,o),
(440,554,cs),
(440,660,o),
(374,724,o),
(259,724,cs),
(146,724,o),
(76,660,o),
(76,554,cs),
(76,483,o),
(106,424,o),
(171,373,c),
(93,324,o),
(58,262,o),
(58,182,cs),
(58,62,o),
(130,-10,o),
(259,-10,cs)
);
},
{
closed = 1;
nodes = (
(206,92,o),
(180,129,o),
(180,184,cs),
(180,237,o),
(200,274,o),
(253,312,c),
(311,267,o),
(337,237,o),
(337,184,cs),
(337,128,o),
(310,92,o),
(257,92,cs)
);
},
{
closed = 1;
nodes = (
(217,467,o),
(197,499,o),
(197,544,cs),
(197,592,o),
(221,622,o),
(259,622,cs),
(297,622,o),
(322,592,o),
(322,544,cs),
(322,501,o),
(305,470,o),
(258,436,c)
);
}
);
width = 500;
},
{
layerId = "35DC4C3B-953E-41FE-A906-9781CEBB9B49";
shapes = (
{
closed = 1;
nodes = (
(386,-10,o),
(467,64,o),
(467,187,cs),
(467,260,o),
(438,315,o),
(352,376,c),
(420,418,o),
(449,475,o),
(449,548,cs),
(449,662,o),
(377,724,o),
(252,724,cs),
(127,724,o),
(51,662,o),
(51,549,cs),
(51,482,o),
(78,424,o),
(141,373,c),
(64,325,o),
(33,265,o),
(33,187,cs),
(33,62,o),
(111,-10,o),
(248,-10,cs)
);
},
{
closed = 1;
nodes = (
(209,122,o),
(191,148,o),
(191,190,cs),
(191,228,o),
(206,259,o),
(248,291,c),
(291,255,o),
(309,231,o),
(309,189,cs),
(309,145,o),
(289,122,o),
(250,122,cs)
);
},
{
closed = 1;
nodes = (
(221,482,o),
(208,508,o),
(208,537,cs),
(208,570,o),
(225,592,o),
(250,592,cs),
(274,592,o),
(293,573,o),
(293,535,cs),
(293,509,o),
(284,488,o),
(249,459,c)
);
}
);
width = 500;
}
);
script = "";
subCategory = "Decimal Digit";
unicode = 56;
}
{
category = Number;
glyphname = nine;
layers = (
{
layerId = UUID0;
shapes = (
{
closed = 1;
nodes = (
(484,-10,o),
(540,211,o),
(540,391,cs),
(540,626,o),
(441,724,o),
(294,724,cs),
(150,724,o),
(60,633,o),
(60,488,cs),
(60,343,o),
(144,262,o),
(278,262,cs),
(361,262,o),
(418,300,o),
(445,350,c),
(451,350,l),
(445,196,o),
(394,66,o),
(213,66,cs),
(181,66,o),
(152,70,o),
(129,78,c),
(129,-1,l),
(151,-7,o),
(186,-10,o),
(217,-10,cs)
);
},
{
closed = 1;
nodes = (
(199,332,o),
(146,379,o),
(146,487,cs),
(146,596,o),
(203,649,o),
(293,649,cs),
(403,649,o),
(451,545,o),
(451,477,cs),
(451,392,o),
(381,332,o),
(287,332,cs)
);
}
);
width = 600;
},
{
layerId = "963C7F4A-CFE2-43FC-8D10-B7434095D111";
shapes = (
{
closed = 1;
nodes = (
(491,-10,o),
(555,202,o),
(555,412,cs),
(555,617,o),
(447,724,o),
(291,724,cs),
(141,724,o),
(45,627,o),
(45,470,cs),
(45,323,o),
(123,238,o),
(238,238,cs),
(303,238,o),
(358,270,o),
(382,321,c),
(387,321,l),
(380,197,o),
(311,135,o),
(188,135,cs),
(158,135,o),
(123,138,o),
(89,144,c),
(89,-2,l),
(126,-7,o),
(173,-10,o),
(208,-10,cs)
);
},
{
closed = 1;
nodes = (
(246,382,o),
(223,417,o),
(223,479,cs),
(223,546,o),
(254,575,o),
(295,575,cs),
(343,575,o),
(372,536,o),
(372,481,cs),
(372,428,o),
(346,382,o),
(293,382,cs)
);
}
);
width = 600;
},
{
layerId = "02EF4DD5-EF93-4764-9336-ED93C6797AC3";
shapes = (
{
closed = 1;
nodes = (
(388,-10,o),
(507,108,o),
(507,401,cs),
(507,569,o),
(448,726,o),
(287,726,cs),
(157,726,o),
(83,630,o),
(83,491,cs),
(83,361,o),
(154,277,o),
(280,277,cs),
(390,277,o),
(453,336,o),
(481,394,c),
(483,394,l),
(477,112,o),
(367,15,o),
(229,15,cs),
(187,15,o),
(145,22,o),
(121,31,c),
(121,3,l),
(148,-5,o),
(187,-10,o),
(229,-10,cs)
);
},
{
closed = 1;
nodes = (
(167,302,o),
(110,374,o),
(110,491,cs),
(110,621,o),
(172,701,o),
(287,701,cs),
(441,701,o),
(476,537,o),
(476,458,cs),
(476,389,o),
(402,302,o),
(282,302,cs)
);
}
);
width = 600;
},
{
layerId = "82FB5ACD-33BC-4284-9837-1B4D88A7F1E9";
shapes = (
{
closed = 1;
nodes = (
(331,-10,o),
(439,96,o),
(439,408,cs),
(439,594,o),
(385,725,o),
(246,725,cs),
(131,725,o),
(66,636,o),
(66,492,cs),
(66,363,o),
(127,276,o),
(242,276,cs),
(342,276,o),
(393,336,o),
(411,380,c),
(413,380,l),
(410,131,o),
(320,16,o),
(190,16,cs),
(156,16,o),
(121,22,o),
(100,30,c),
(100,3,l),
(122,-5,o),
(156,-10,o),
(190,-10,cs)
);
},
{
closed = 1;
nodes = (
(141,301,o),
(93,376,o),
(93,491,cs),
(93,623,o),
(147,700,o),
(247,700,cs),
(381,700,o),
(408,545,o),
(408,466,cs),
(408,379,o),
(348,301,o),
(242,301,cs)
);
}
);
width = 500;
},
{
layerId = "C5665599-2906-40DA-AF7F-7DBC0844951A";
shapes = (
{
closed = 1;
nodes = (
(370,-10,o),
(443,203,o),
(443,410,cs),
(443,623,o),
(365,724,o),
(242,724,cs),
(125,724,o),
(54,633,o),
(54,485,cs),
(54,346,o),
(117,268,o),
(219,268,cs),
(285,268,o),
(323,300,o),
(354,351,c),
(358,351,l),
(352,195,o),
(296,61,o),
(165,61,c),
(142,61,o),
(117,65,o),
(97,74,c),
(97,-1,l),
(115,-7,o),
(143,-10,o),
(167,-10,cs)
);
},
{
closed = 1;
nodes = (
(173,336,o),
(138,392,o),
(138,489,cs),
(138,594,o),
(179,651,o),
(242,651,cs),
(325,651,o),
(356,550,o),
(356,481,cs),
(356,384,o),
(296,336,o),
(237,336,cs)
);
}
);
width = 500;
},
{
layerId = "35DC4C3B-953E-41FE-A906-9781CEBB9B49";
shapes = (
{
closed = 1;
nodes = (
(393,-10,o),
(462,186,o),
(462,403,cs),
(462,608,o),
(377,724,o),
(240,724,cs),
(108,724,o),
(30,626,o),
(30,470,cs),
(30,326,o),
(89,238,o),
(191,238,cs),
(243,238,o),
(280,266,o),
(303,321,c),
(308,321,l),
(304,187,o),
(254,130,o),
(151,130,cs),
(121,130,o),
(92,133,o),
(65,140,c),
(65,-1,l),
(98,-7,o),
(132,-10,o),
(167,-10,cs)
);
},
{
closed = 1;
nodes = (
(211,378,o),
(195,410,o),
(195,473,cs),
(195,548,o),
(211,580,o),
(243,580,cs),
(272,580,o),
(294,547,o),
(294,462,cs),
(294,430,o),
(281,378,o),
(242,378,cs)
);
}
);
width = 500;
}
);
script = "";
subCategory = "Decimal Digit";
unicode = 57;
}
{
category = Punctuation;
glyphname = colon;
layers = (
{
layerId = "02EF4DD5-EF93-4764-9336-ED93C6797AC3";
shapes = (
{
closed = 1;
nodes = (
(325,466,o),
(328,482,o),
(328,501,cs),
(328,519,o),
(325,536,o),
(300,536,cs),
(276,536,o),
(270,519,o),
(270,501,cs),
(270,482,o),
(276,466,o),
(300,466,cs)
);
},
{
closed = 1;
nodes = (
(325,-12,o),
(328,4,o),
(328,23,cs),
(328,41,o),
(325,58,o),
(300,58,cs),
(276,58,o),
(270,41,o),
(270,23,cs),
(270,4,o),
(276,-12,o),
(300,-12,cs)
);
}
);
width = 600;
},
{
layerId = UUID0;
shapes = (
{
closed = 1;
nodes = (
(335,410,o),
(362,430,o),
(362,478,cs),
(362,528,o),
(335,546,o),
(301,546,cs),
(266,546,o),
(239,528,o),
(239,478,cs),
(239,430,o),
(266,410,o),
(301,410,cs)
);
},
{
closed = 1;
nodes = (
(334,-10,o),
(361,10,o),
(361,58,cs),
(361,108,o),
(334,126,o),
(300,126,cs),
(265,126,o),
(238,108,o),
(238,58,cs),
(238,10,o),
(265,-10,o),
(300,-10,cs)
);
}
);
width = 600;
},
{
layerId = "A3018D0F-8B4B-4295-AE04-84912D9BB11D";
shapes = (
{
closed = 1;
nodes = (
(356,380,o),
(390,414,o),
(390,468,cs),
(390,524,o),
(357,556,o),
(300,556,cs),
(241,556,o),
(209,526,o),
(209,468,cs),
(209,412,o),
(242,380,o),
(300,380,cs)
);
},
{
closed = 1;
nodes = (
(356,-10,o),
(390,24,o),
(390,78,cs),
(390,134,o),
(357,166,o),
(300,166,cs),
(241,166,o),
(209,136,o),
(209,78,cs),
(209,22,o),
(242,-10,o),
(300,-10,cs)
);
}
);
width = 600;
},
{
layerId = "963C7F4A-CFE2-43FC-8D10-B7434095D111";
shapes = (
{
closed = 1;
nodes = (
(355,376,o),
(400,402,o),
(400,467,cs),
(400,534,o),
(355,559,o),
(302,559,cs),
(247,559,o),
(201,534,o),
(201,467,cs),
(201,402,o),
(247,376,o),
(302,376,cs)
);
},
{
closed = 1;
nodes = (
(355,-7,o),
(400,19,o),
(400,84,cs),
(400,151,o),
(355,176,o),
(302,176,cs),
(247,176,o),
(201,151,o),
(201,84,cs),
(201,19,o),
(247,-7,o),
(302,-7,cs)
);
}
);
width = 600;
},
{
layerId = "82FB5ACD-33BC-4284-9837-1B4D88A7F1E9";
shapes = (
{
closed = 1;
nodes = (
(273,463,o),
(279,479,o),
(279,498,cs),
(279,516,o),
(273,533,o),
(251,533,cs),
(227,533,o),
(221,516,o),
(221,498,cs),
(221,479,o),
(227,463,o),
(251,463,cs)
);
},
{
closed = 1;
nodes = (
(273,-12,o),
(279,4,o),
(279,23,cs),
(279,41,o),
(273,58,o),
(251,58,cs),
(227,58,o),
(221,41,o),
(221,23,cs),
(221,4,o),
(227,-12,o),
(251,-12,cs)
);
}
);
width = 500;
},
{
layerId = "C5665599-2906-40DA-AF7F-7DBC0844951A";
shapes = (
{
closed = 1;
nodes = (
(282,413,o),
(308,433,o),
(308,479,cs),
(308,525,o),
(284,545,o),
(250,545,cs),
(215,545,o),
(192,525,o),
(192,479,cs),
(192,434,o),
(215,413,o),
(250,413,cs)
);
},
{
closed = 1;
nodes = (
(282,-12,o),
(308,9,o),
(308,55,cs),
(308,102,o),
(283,120,o),
(250,120,cs),
(215,120,o),
(192,100,o),
(192,55,cs),
(192,10,o),
(215,-12,o),
(250,-12,cs)
);
}
);
width = 500;
},
{
layerId = "28AE7390-0F8D-4D03-A566-30BDF518EAE7";
shapes = (
{
closed = 1;
nodes = (
(295,392,o),
(323,420,o),
(323,471,cs),
(323,522,o),
(298,551,o),
(251,551,cs),
(203,551,o),
(176,522,o),
(176,471,cs),
(176,421,o),
(203,392,o),
(251,392,cs)
);
},
{
closed = 1;
nodes = (
(295,-11,o),
(323,17,o),
(323,68,cs),
(323,121,o),
(297,147,o),
(251,147,cs),
(202,147,o),
(176,119,o),
(176,68,cs),
(176,17,o),
(204,-11,o),
(251,-11,cs)
);
}
);
width = 500;
},
{
layerId = "35DC4C3B-953E-41FE-A906-9781CEBB9B49";
shapes = (
{
closed = 1;
nodes = (
(303,381,o),
(334,413,o),
(334,469,cs),
(334,525,o),
(306,557,o),
(252,557,cs),
(196,557,o),
(166,525,o),
(166,469,cs),
(166,413,o),
(199,381,o),
(252,381,cs)
);
},
{
closed = 1;
nodes = (
(303,-11,o),
(334,20,o),
(334,76,cs),
(334,133,o),
(305,164,o),
(252,164,cs),
(196,164,o),
(166,132,o),
(166,76,cs),
(166,20,o),
(199,-11,o),
(252,-11,cs)
);
}
);
width = 500;
}
);
script = "";
subCategory = Other;
unicode = 58;
}
{
category = Punctuation;
glyphname = semicolon;
layers = (
{
layerId = UUID0;
shapes = (
{
closed = 1;
nodes = (
(285,-140,l),
(321,-60,o),
(360,39,o),
(380,117,c),
(372,129,l),
(265,129,l),
(254,53,o),
(232,-53,o),
(211,-140,c)
);
},
{
closed = 1;
nodes = (
(357,410,o),
(385,430,o),
(385,478,cs),
(385,528,o),
(357,546,o),
(323,546,cs),
(288,546,o),
(261,528,o),
(261,478,cs),
(261,430,o),
(288,410,o),
(323,410,cs)
);
}
);
width = 600;
},
{
layerId = "A3018D0F-8B4B-4295-AE04-84912D9BB11D";
shapes = (
{
closed = 1;
nodes = (
(301,-156,l),
(342,-66,o),
(375,59,o),
(392,125,c),
(385,136,l),
(248,136,l),
(236,60,o),
(215,-69,o),
(194,-156,c)
);
},
{
closed = 1;
nodes = (
(378,380,o),
(412,414,o),
(412,468,cs),
(412,524,o),
(379,556,o),
(322,556,cs),
(263,556,o),
(231,526,o),
(231,468,cs),
(231,412,o),
(264,380,o),
(322,380,cs)
);
}
);
width = 600;
},
{
layerId = "963C7F4A-CFE2-43FC-8D10-B7434095D111";
shapes = (
{
closed = 1;
nodes = (
(314,-161,ls),
(347,-86,o),
(383,68,o),
(401,140,c),
(394,152,ls),
(225,152,l),
(216,70,o),
(196,-69,o),
(176,-161,cs)
);
},
{
closed = 1;
nodes = (
(373,375,o),
(419,402,o),
(419,468,cs),
(419,537,o),
(373,562,o),
(319,562,cs),
(262,562,o),
(215,537,o),
(215,468,cs),
(215,402,o),
(262,375,o),
(319,375,cs)
);
}
);
width = 600;
},
{
layerId = "02EF4DD5-EF93-4764-9336-ED93C6797AC3";
shapes = (
{
closed = 1;
nodes = (
(260,-129,l),
(288,-60,o),
(310,30,o),
(325,104,c),
(322,116,l),
(294,116,l),
(283,40,o),
(267,-32,o),
(238,-129,c)
);
},
{
closed = 1;
nodes = (
(334,470,o),
(337,484,o),
(337,501,cs),
(337,517,o),
(334,532,o),
(310,532,cs),
(290,532,o),
(285,517,o),
(285,501,cs),
(285,484,o),
(290,470,o),
(310,470,cs)
);
}
);
width = 600;
},
{
layerId = "82FB5ACD-33BC-4284-9837-1B4D88A7F1E9";
shapes = (
{
closed = 1;
nodes = (
(210,-129,l),
(238,-59,o),
(260,28,o),
(273,96,c),
(270,109,l),
(242,109,l),
(231,31,o),
(220,-23,o),
(188,-129,c)
);
},
{
closed = 1;
nodes = (
(274,466,o),
(279,479,o),
(279,499,cs),
(279,519,o),
(274,532,o),
(253,532,cs),
(233,532,o),
(228,517,o),
(228,499,cs),
(228,480,o),
(233,466,o),
(253,466,cs)
);
}
);
width = 500;
},
{
layerId = "C5665599-2906-40DA-AF7F-7DBC0844951A";
shapes = (
{
closed = 1;
nodes = (
(218,-131,l),
(250,-59,o),
(280,27,o),
(299,104,c),
(292,115,l),
(202,115,l),
(193,44,o),
(174,-52,o),
(154,-131,c)
);
},
{
closed = 1;
nodes = (
(276,413,o),
(301,433,o),
(301,479,cs),
(301,525,o),
(278,545,o),
(243,545,cs),
(208,545,o),
(185,525,o),
(185,479,cs),
(185,434,o),
(208,413,o),
(243,413,cs)
);
}
);
width = 500;
},
{
layerId = "28AE7390-0F8D-4D03-A566-30BDF518EAE7";
shapes = (
{
closed = 1;
nodes = (
(264,-135,l),
(294,-63,o),
(317,22,o),
(334,119,c),
(328,130,l),
(206,130,l),
(199,55,o),
(183,-55,o),
(165,-135,c)
);
},
{
closed = 1;
nodes = (
(304,392,o),
(332,420,o),
(332,471,cs),
(332,522,o),
(307,551,o),
(260,551,cs),
(212,551,o),
(186,522,o),
(186,471,cs),
(186,421,o),
(214,392,o),
(260,392,cs)
);
}
);
width = 500;
},
{
layerId = "35DC4C3B-953E-41FE-A906-9781CEBB9B49";
shapes = (
{
closed = 1;
nodes = (
(277,-137,l),
(305,-64,o),
(328,23,o),
(344,128,c),
(338,139,l),
(195,139,l),
(189,63,o),
(173,-58,o),
(156,-137,cs)
);
},
{
closed = 1;
nodes = (
(312,381,o),
(343,413,o),
(343,469,cs),
(343,525,o),
(315,557,o),
(261,557,cs),
(205,557,o),
(176,525,o),
(176,469,cs),
(176,413,o),
(208,381,o),
(261,381,cs)
);
}
);
width = 500;
}
);
script = "";
subCategory = Other;
unicode = 59;
}
{
category = Symbol;
glyphname = equal;
layers = (
{
layerId = UUID0;
shapes = (
{
closed = 1;
nodes = (
(530,407,l),
(530,487,l),
(70,487,l),
(70,407,l)
);
},
{
closed = 1;
nodes = (
(530,217,l),
(530,297,l),
(70,297,l),
(70,217,l)
);
}
);
width = 600;
},
{
layerId = "A3018D0F-8B4B-4295-AE04-84912D9BB11D";
shapes = (
{
closed = 1;
nodes = (
(530,388,l),
(530,508,l),
(70,508,l),
(70,388,l)
);
},
{
closed = 1;
nodes = (
(530,178,l),
(530,298,l),
(70,298,l),
(70,178,l)
);
}
);
width = 600;
},
{
layerId = "963C7F4A-CFE2-43FC-8D10-B7434095D111";
shapes = (
{
closed = 1;
nodes = (
(530,389,l),
(530,529,l),
(70,529,l),
(70,389,l)
);
},
{
closed = 1;
nodes = (
(530,156,l),
(530,296,l),
(70,296,l),
(70,156,l)
);
}
);
width = 600;
},
{
layerId = "02EF4DD5-EF93-4764-9336-ED93C6797AC3";
shapes = (
{
closed = 1;
nodes = (
(530,442,l),
(530,467,l),
(70,467,l),
(70,442,l)
);
},
{
closed = 1;
nodes = (
(530,239,l),
(530,264,l),
(70,264,l),
(70,239,l)
);
}
);
width = 600;
},
{
layerId = "82FB5ACD-33BC-4284-9837-1B4D88A7F1E9";
shapes = (
{
closed = 1;
nodes = (
(450,445,l),
(450,470,l),
(50,470,l),
(50,445,l)
);
},
{
closed = 1;
nodes = (
(450,236,l),
(450,261,l),
(50,261,l),
(50,236,l)
);
}
);
width = 500;
},
{
layerId = "C5665599-2906-40DA-AF7F-7DBC0844951A";
shapes = (
{
closed = 1;
nodes = (
(450,415,l),
(450,493,l),
(50,493,l),
(50,415,l)
);
},
{
closed = 1;
nodes = (
(450,211,l),
(450,289,l),
(50,289,l),
(50,211,l)
);
}
);
width = 500;
},
{
layerId = "28AE7390-0F8D-4D03-A566-30BDF518EAE7";
shapes = (
{
closed = 1;
nodes = (
(450,391,l),
(450,511,l),
(50,511,l),
(50,391,l)
);
},
{
closed = 1;
nodes = (
(450,173,l),
(450,293,l),
(50,293,l),
(50,173,l)
);
}
);
width = 500;
},
{
layerId = "35DC4C3B-953E-41FE-A906-9781CEBB9B49";
shapes = (
{
closed = 1;
nodes = (
(450,392,l),
(450,522,l),
(50,522,l),
(50,392,l)
);
},
{
closed = 1;
nodes = (
(450,170,l),
(450,300,l),
(50,300,l),
(50,170,l)
);
}
);
width = 500;
}
);
script = "";
subCategory = Math;
unicode = 61;
}
{
category = Symbol;
glyphname = greater;
layers = (
{
layerId = UUID0;
shapes = (
{
closed = 1;
nodes = (
(510,323,l),
(510,373,l),
(90,608,l),
(90,530,l),
(416,351,l),
(90,194,l),
(90,116,l)
);
}
);
width = 600;
},
{
layerId = "963C7F4A-CFE2-43FC-8D10-B7434095D111";
shapes = (
{
closed = 1;
nodes = (
(520,313,l),
(520,397,l),
(80,623,l),
(80,478,l),
(342,358,l),
(80,244,l),
(80,100,l)
);
}
);
width = 600;
},
{
layerId = "02EF4DD5-EF93-4764-9336-ED93C6797AC3";
shapes = (
{
closed = 1;
nodes = (
(529,353,l),
(529,371,l),
(71,586,l),
(71,560,l),
(494,362,l),
(71,164,l),
(71,138,l)
);
}
);
width = 600;
},
{
layerId = "82FB5ACD-33BC-4284-9837-1B4D88A7F1E9";
shapes = (
{
closed = 1;
nodes = (
(449,354,l),
(449,374,l),
(50,572,l),
(50,545,l),
(418,364,l),
(50,170,l),
(50,143,l)
);
}
);
width = 500;
},
{
layerId = "C5665599-2906-40DA-AF7F-7DBC0844951A";
shapes = (
{
closed = 1;
nodes = (
(435,332,l),
(435,380,l),
(64,578,l),
(64,500,l),
(343,355,l),
(64,210,l),
(64,132,l)
);
}
);
width = 500;
},
{
layerId = "35DC4C3B-953E-41FE-A906-9781CEBB9B49";
shapes = (
{
closed = 1;
nodes = (
(462,322,l),
(462,398,l),
(38,603,l),
(38,471,l),
(291,360,l),
(38,247,l),
(38,116,l)
);
}
);
width = 500;
}
);
script = "";
subCategory = Math;
unicode = 62;
}
{
category = Punctuation;
glyphname = question;
layers = (
{
layerId = UUID0;
shapes = (
{
closed = 1;
nodes = (
(230,202,l),
(308,202,l),
(308,211,ls),
(308,268,o),
(319,292,o),
(398,350,cs),
(475,407,o),
(510,454,o),
(510,549,cs),
(510,656,o),
(427,724,o),
(293,724,cs),
(204,724,o),
(144,701,o),
(90,677,c),
(122,602,l),
(176,627,o),
(228,646,o),
(298,646,cs),
(381,646,o),
(425,603,o),
(425,545,cs),
(425,472,o),
(399,440,o),
(331,392,cs),
(254,337,o),
(230,295,o),
(230,220,cs)
);
},
{
closed = 1;
nodes = (
(307,-10,o),
(335,10,o),
(335,58,cs),
(335,108,o),
(307,126,o),
(273,126,cs),
(238,126,o),
(211,108,o),
(211,58,cs),
(211,10,o),
(238,-10,o),
(273,-10,cs)
);
}
);
width = 600;
},
{
layerId = "963C7F4A-CFE2-43FC-8D10-B7434095D111";
shapes = (
{
closed = 1;
nodes = (
(199,252,l),
(361,252,l),
(361,277,ls),
(361,308,o),
(375,329,o),
(426,362,cs),
(502,411,o),
(530,469,o),
(530,546,cs),
(530,653,o),
(449,724,o),
(309,724,cs),
(217,724,o),
(143,697,o),
(70,655,c),
(138,522,l),
(203,559,o),
(250,578,o),
(295,578,cs),
(327,578,o),
(350,559,o),
(350,530,cs),
(350,503,o),
(346,475,o),
(288,439,cs),
(218,395,o),
(199,354,o),
(199,294,cs)
);
},
{
closed = 1;
nodes = (
(335,-12,o),
(381,15,o),
(381,81,cs),
(381,150,o),
(335,175,o),
(281,175,cs),
(224,175,o),
(177,150,o),
(177,81,cs),
(177,15,o),
(224,-12,o),
(281,-12,cs)
);
}
);
width = 600;
},
{
layerId = "02EF4DD5-EF93-4764-9336-ED93C6797AC3";
shapes = (
{
closed = 1;
nodes = (
(238,174,l),
(263,174,l),
(263,186,ls),
(263,277,o),
(284,314,o),
(336,350,cs),
(415,405,o),
(468,454,o),
(468,554,cs),
(468,668,o),
(394,724,o),
(282,724,cs),
(228,724,o),
(190,715,o),
(132,691,c),
(142,665,l),
(190,689,o),
(233,699,o),
(282,699,cs),
(375,699,o),
(441,654,o),
(441,554,cs),
(441,463,o),
(395,422,o),
(323,371,cs),
(254,322,o),
(238,285,o),
(238,186,cs)
);
},
{
closed = 1;
nodes = (
(279,-12,o),
(282,4,o),
(282,23,cs),
(282,41,o),
(279,58,o),
(252,58,cs),
(230,58,o),
(224,41,o),
(224,23,cs),
(224,4,o),
(230,-12,o),
(252,-12,cs)
);
}
);
width = 600;
},
{
layerId = "82FB5ACD-33BC-4284-9837-1B4D88A7F1E9";
shapes = (
{
closed = 1;
nodes = (
(197,174,l),
(221,174,l),
(221,189,ls),
(221,268,o),
(234,304,o),
(284,357,c),
(343,413,o),
(389,461,o),
(389,560,cs),
(389,671,o),
(327,724,o),
(234,724,cs),
(187,724,o),
(150,713,o),
(110,692,c),
(121,669,l),
(157,689,o),
(193,699,o),
(233,699,cs),
(311,699,o),
(362,656,o),
(362,561,cs),
(362,473,o),
(324,430,o),
(266,372,cs),
(210,316,o),
(197,280,o),
(197,190,cs)
);
},
{
closed = 1;
nodes = (
(231,-12,o),
(237,2,o),
(237,23,cs),
(237,43,o),
(231,58,o),
(207,58,cs),
(185,58,o),
(179,41,o),
(179,22,cs),
(179,3,o),
(185,-12,o),
(207,-12,cs)
);
}
);
width = 500;
},
{
layerId = "C5665599-2906-40DA-AF7F-7DBC0844951A";
shapes = (
{
closed = 1;
nodes = (
(186,201,l),
(254,201,l),
(254,220,ls),
(254,275,o),
(266,303,o),
(320,358,cs),
(385,425,o),
(420,467,o),
(420,555,cs),
(420,661,o),
(357,724,o),
(244,724,cs),
(181,724,o),
(127,706,o),
(79,677,c),
(110,610,l),
(150,632,o),
(188,649,o),
(239,649,cs),
(302,649,o),
(337,614,o),
(337,550,cs),
(337,491,o),
(317,459,o),
(255,396,cs),
(202,343,o),
(186,301,o),
(186,229,cs)
);
},
{
closed = 1;
nodes = (
(255,-12,o),
(280,9,o),
(280,55,cs),
(280,102,o),
(256,120,o),
(223,120,cs),
(187,120,o),
(165,100,o),
(165,55,cs),
(165,10,o),
(188,-12,o),
(223,-12,cs)
);
}
);
width = 500;
},
{
layerId = "35DC4C3B-953E-41FE-A906-9781CEBB9B49";
shapes = (
{
closed = 1;
nodes = (
(167,242,l),
(291,242,l),
(291,266,ls),
(291,300,o),
(295,315,o),
(342,361,cs),
(401,418,o),
(433,463,o),
(433,549,cs),
(433,657,o),
(367,724,o),
(243,724,cs),
(183,724,o),
(124,703,o),
(66,660,c),
(113,545,l),
(157,577,o),
(194,594,o),
(230,594,cs),
(270,594,o),
(290,574,o),
(290,536,cs),
(290,495,o),
(275,472,o),
(233,431,cs),
(185,385,o),
(167,347,o),
(167,281,cs)
);
},
{
closed = 1;
nodes = (
(282,-11,o),
(313,20,o),
(313,76,cs),
(313,133,o),
(283,164,o),
(230,164,cs),
(175,164,o),
(145,132,o),
(145,76,cs),
(145,20,o),
(178,-11,o),
(230,-11,cs)
);
}
);
width = 500;
}
);
script = "";
subCategory = Other;
unicode = 63;
}
{
category = Letter;
color = 10;
glyphname = A;
layers = (
{
anchors = (
{
name = bottom;
pos = (300,0);
},
{
name = ogonek;
pos = (540,10);
},
{
name = top;
pos = (300,714);
},
{
name = topright;
pos = (580,714);
}
);
layerId = UUID0;
shapes = (
{
closed = 1;
nodes = (
(111,0,l),
(270,512,ls),
(277,534,o),
(291,581,o),
(299,622,c),
(308,581,o),
(322,535,o),
(329,512,cs),
(488,0,l),
(580,0,l),
(347,717,l),
(252,717,l),
(20,0,l)
);
},
{
closed = 1;
nodes = (
(437,219,l),
(411,299,l),
(184,299,l),
(154,219,l)
);
}
);
width = 600;
},
{
anchors = (
{
name = bottom;
pos = (300,0);
},
{
name = ogonek;
pos = (540,10);
},
{
name = top;
pos = (300,714);
},
{
name = topright;
pos = (580,714);
}
);
associatedMasterId = UUID0;
attr = {
coordinates = (
151,
100
);
};
background = {
shapes = (
{
closed = 1;
nodes = (
(154.93,0,l),
(270.78,453.49,ls),
(278.83,485.08,o),
(294.83,552.18,o),
(302.61,597.3,c),
(309.78,552.18,o),
(324.39,489.08,o),
(332.83,452.49,cs),
(443.02,0,l),
(590,0,l),
(390.49,718.78,l),
(209.73,718.78,l),
(10,0,l)
);
},
{
closed = 1;
nodes = (
(429.82,167.39,l),
(409.31,290,l),
(178.08,290,l),
(153.57,167.39,l)
);
}
);
};
layerId = "0c90dd3c-3b8d-4a25-b0c6-0cf840df9bd7";
name = "SemiBold (intermediate)";
shapes = (
{
closed = 1;
nodes = (
(151,0,l),
(269,473,ls),
(280,518,o),
(290,562,o),
(300,607,c),
(310,562,o),
(320,518,o),
(331,473,cs),
(445,0,l),
(590,0,l),
(392,717,l),
(207,717,l),
(10,0,l)
);
},
{
closed = 1;
nodes = (
(418,177,l),
(404,297,l),
(198,297,l),
(168,177,l)
);
}
);
width = 600;
},
{
anchors = (
{
name = bottom;
pos = (300,0);
},
{
name = ogonek;
pos = (540,10);
},
{
name = top;
pos = (300,714);
},
{
name = topright;
pos = (580,714);
}
);
layerId = "963C7F4A-CFE2-43FC-8D10-B7434095D111";
shapes = (
{
closed = 1;
nodes = (
(175,0,l),
(268,423,ls),
(279,474,o),
(295,552,o),
(302,597,c),
(309,552,o),
(325,474,o),
(335,423,cs),
(421,0,l),
(595,0,l),
(414,717,l),
(185,717,l),
(5,0,l)
);
},
{
closed = 1;
nodes = (
(411,147,l),
(394,288,l),
(202,288,l),
(181,147,l)
);
}
);
width = 600;
},
{
anchors = (
{
name = bottom;
pos = (300,0);
},
{
name = ogonek;
pos = (540,10);
},
{
name = top;
pos = (300,714);
},
{
name = topright;
pos = (580,714);
}
);
layerId = "02EF4DD5-EF93-4764-9336-ED93C6797AC3";
shapes = (
{
closed = 1;
nodes = (
(48,0,l),
(268,592,ls),
(278,619,o),
(290,651,o),
(300,681,c),
(311,651,o),
(324,618,o),
(334,592,cs),
(552,0,l),
(580,0,l),
(313,716,l),
(288,716,l),
(20,0,l)
);
},
{
closed = 1;
nodes = (
(465,271,l),
(456,296,l),
(147,296,l),
(137,271,l)
);
}
);
width = 600;
},
{
anchors = (
{
name = bottom;
pos = (250,0);
},
{
name = ogonek;
pos = (450,10);
},
{
name = top;
pos = (250,714);
},
{
name = topright;
pos = (480,714);
}
);
layerId = "82FB5ACD-33BC-4284-9837-1B4D88A7F1E9";
shapes = (
{
closed = 1;
nodes = (
(47,0,l),
(224,603,ls),
(233,633,o),
(241,659,o),
(249,689,c),
(259,656,o),
(267,631,o),
(275,603,cs),
(453,0,l),
(480,0,l),
(266,715,l),
(234,715,l),
(20,0,l)
);
},
{
closed = 1;
nodes = (
(380,276,l),
(371,301,l),
(128,301,l),
(119,276,l)
);
}
);
width = 500;
},
{
anchors = (
{
name = bottom;
pos = (250,0);
},
{
name = ogonek;
pos = (450,10);
},
{
name = top;
pos = (250,714);
},
{
name = topright;
pos = (480,714);
}
);
layerId = "C5665599-2906-40DA-AF7F-7DBC0844951A";
shapes = (
{
closed = 1;
nodes = (
(106,0,l),
(226,536,ls),
(234,571,o),
(243,616,o),
(248,647,c),
(253,616,o),
(263,572,o),
(271,536,cs),
(395,0,l),
(480,0,l),
(302,714,l),
(195,714,l),
(20,0,l)
);
},
{
closed = 1;
nodes = (
(376,226,l),
(376,301,l),
(133,301,l),
(133,226,l)
);
}
);
width = 500;
},
{
anchors = (
{
name = bottom;
pos = (250,0);
},
{
name = ogonek;
pos = (450,10);
},
{
name = top;
pos = (250,714);
},
{
name = topright;
pos = (480,714);
}
);
associatedMasterId = "C5665599-2906-40DA-AF7F-7DBC0844951A";
attr = {
coordinates = (
151,
70
);
};
background = {
shapes = (
{
closed = 1;
nodes = (
(137.11,0,l),
(226,476.22,ls),
(233.39,517.32,o),
(243.61,575.13,o),
(249.22,613.45,c),
(254.83,575.13,o),
(265.44,517.71,o),
(272.83,476.22,cs),
(365.11,0,l),
(489.15,0,l),
(337.38,715.22,l),
(158.4,715.22,l),
(10.85,0,l)
);
},
{
closed = 1;
nodes = (
(383.32,182.69,l),
(383.32,294.29,l),
(126.9,294.29,l),
(126.9,182.69,l)
);
}
);
};
layerId = "ba37cc00-2065-4e66-850d-a473496e8021";
name = "SemiBold Condensed (intermediate)";
shapes = (
{
closed = 1;
nodes = (
(142,0,l),
(228,472,ls),
(234,505,o),
(245,564,o),
(251,604,c),
(256,564,o),
(266,509,o),
(273,471,cs),
(361,0,l),
(490,0,l),
(340,717,l),
(157,717,l),
(10,0,l)
);
},
{
closed = 1;
nodes = (
(392,175,l),
(392,292,l),
(110,292,l),
(110,175,l)
);
}
);
width = 500;
},
{
anchors = (
{
name = bottom;
pos = (250,0);
},
{
name = ogonek;
pos = (450,10);
},
{
name = top;
pos = (250,714);
},
{
name = topright;
pos = (480,714);
}
);
layerId = "35DC4C3B-953E-41FE-A906-9781CEBB9B49";
shapes = (
{
closed = 1;
nodes = (
(157,0,l),
(226,438,ls),
(233,483,o),
(244,549,o),
(250,592,c),
(256,549,o),
(267,483,o),
(274,438,cs),
(346,0,l),
(495,0,l),
(360,716,l),
(135,716,l),
(5,0,l)
);
},
{
closed = 1;
nodes = (
(388,155,l),
(388,290,l),
(123,290,l),
(123,155,l)
);
}
);
width = 500;
}
);
script = latin;
subCategory = Uppercase;
unicode = 65;
}
{
category = Letter;
color = 10;
glyphname = D;
layers = (
{
anchors = (
{
name = bottom;
pos = (264,0);
},
{
name = center;
pos = (299,357);
},
{
name = top;
pos = (277,714);
},
{
name = topright;
pos = (600,714);
}
);
layerId = UUID0;
shapes = (
{
closed = 1;
nodes = (
(223,0,ls),
(432,0,o),
(555,123,o),
(555,364,cs),
(555,593,o),
(432,714,o),
(243,714,cs),
(70,714,l),
(70,0,l)
);
},
{
closed = 1;
nodes = (
(160,78,l),
(160,636,l),
(233,636,ls),
(376,636,o),
(463,550,o),
(463,361,cs),
(463,175,o),
(384,78,o),
(214,78,cs)
);
}
);
width = 600;
},
{
anchors = (
{
name = bottom;
pos = (255,0);
},
{
name = center;
pos = (305,357);
},
{
name = top;
pos = (284,714);
},
{
name = topright;
pos = (600,714);
}
);
associatedMasterId = UUID0;
attr = {
coordinates = (
151,
100
);
};
background = {
shapes = (
{
closed = 1;
nodes = (
(234.59,0,ls),
(442.37,0,o),
(570.25,126.66,o),
(570.25,368.88,cs),
(570.25,593,o),
(449.69,714,o),
(250.93,714,cs),
(51.7,714,l),
(51.7,0,l)
);
},
{
closed = 1;
nodes = (
(188.06,118.87,l),
(188.06,595.13,l),
(246.42,595.13,ls),
(361.97,595.13,o),
(426.4,521.33,o),
(426.4,363.44,cs),
(426.4,203.06,o),
(364.48,118.87,o),
(232.3,118.87,cs)
);
}
);
};
layerId = "2b8833ea-8a72-4e03-a597-0557d488c578";
name = "SemiBold (intermediate)";
shapes = (
{
closed = 1;
nodes = (
(255,0,ls),
(449,0,o),
(570,129,o),
(570,363,cs),
(570,595,o),
(451,714,o),
(266,714,cs),
(45,714,l),
(45,0,l)
);
},
{
closed = 1;
nodes = (
(188,123,l),
(188,591,l),
(259,591,ls),
(368,591,o),
(423,522,o),
(423,362,cs),
(423,201,o),
(368,123,o),
(247,123,cs)
);
}
);
width = 600;
},
{
anchors = (
{
name = bottom;
pos = (242,0);
},
{
name = center;
pos = (310,357);
},
{
name = top;
pos = (285,714);
},
{
name = topright;
pos = (600,714);
}
);
layerId = "963C7F4A-CFE2-43FC-8D10-B7434095D111";
shapes = (
{
closed = 1;
nodes = (
(242,0,ls),
(449,0,o),
(580,129,o),
(580,372,cs),
(580,593,o),
(461,714,o),
(256,714,cs),
(40,714,l),
(40,0,l)
);
},
{
closed = 1;
nodes = (
(206,145,l),
(206,569,l),
(255,569,ls),
(353,569,o),
(403,503,o),
(403,365,cs),
(403,221,o),
(352,145,o),
(244,145,cs)
);
}
);
width = 600;
},
{
anchors = (
{
name = bottom;
pos = (270,0);
},
{
name = center;
pos = (284,357);
},
{
name = top;
pos = (302,714);
},
{
name = topright;
pos = (600,714);
}
);
layerId = "02EF4DD5-EF93-4764-9336-ED93C6797AC3";
shapes = (
{
closed = 1;
nodes = (
(228,0,ls),
(437,0,o),
(545,126,o),
(545,363,cs),
(545,592,o),
(445,714,o),
(237,714,cs),
(95,714,l),
(95,0,l)
);
},
{
closed = 1;
nodes = (
(121,25,l),
(121,689,l),
(227,689,ls),
(431,689,o),
(518,575,o),
(518,362,cs),
(518,136,o),
(420,25,o),
(217,25,cs)
);
}
);
width = 600;
},
{
anchors = (
{
name = bottom;
pos = (189,0);
},
{
name = center;
pos = (248,357);
},
{
name = top;
pos = (233,714);
},
{
name = topright;
pos = (500,714);
}
);
layerId = "82FB5ACD-33BC-4284-9837-1B4D88A7F1E9";
shapes = (
{
closed = 1;
nodes = (
(189,0,ls),
(370,0,o),
(450,123,o),
(450,362,cs),
(450,595,o),
(370,714,o),
(190,714,cs),
(65,714,l),
(65,0,l)
);
},
{
closed = 1;
nodes = (
(91,25,l),
(91,689,l),
(185,689,ls),
(362,689,o),
(423,569,o),
(423,360,cs),
(423,140,o),
(353,25,o),
(184,25,cs)
);
}
);
width = 500;
},
{
anchors = (
{
name = bottom;
pos = (219,0);
},
{
name = center;
pos = (260,357);
},
{
name = top;
pos = (234,714);
},
{
name = topright;
pos = (500,714);
}
);
layerId = "C5665599-2906-40DA-AF7F-7DBC0844951A";
shapes = (
{
closed = 1;
nodes = (
(219,0,ls),
(389,0,o),
(475,125,o),
(475,366,cs),
(475,593,o),
(387,714,o),
(234,714,cs),
(45,714,l),
(45,0,l)
);
},
{
closed = 1;
nodes = (
(127,78,l),
(127,636,l),
(214,636,ls),
(339,636,o),
(388,560,o),
(388,366,cs),
(388,176,o),
(334,78,o),
(216,78,cs)
);
}
);
width = 500;
},
{
anchors = (
{
name = bottom;
pos = (227,0);
},
{
name = center;
pos = (250,357);
},
{
name = top;
pos = (242,714);
},
{
name = topright;
pos = (500,714);
}
);
layerId = "35DC4C3B-953E-41FE-A906-9781CEBB9B49";
shapes = (
{
closed = 1;
nodes = (
(227,0,ls),
(371,0,o),
(485,140,o),
(485,372,cs),
(485,581,o),
(392,714,o),
(228,714,cs),
(25,714,l),
(25,0,l)
);
},
{
closed = 1;
nodes = (
(178,140,l),
(178,574,l),
(215,574,ls),
(289,574,o),
(328,504,o),
(328,357,cs),
(328,227,o),
(292,140,o),
(208,140,cs)
);
}
);
width = 500;
}
);
metricLeft = H;
metricRight = O;
script = latin;
subCategory = Uppercase;
unicode = 68;
}
{
category = Letter;
glyphname = E;
layers = (
{
anchors = (
{
name = bottom;
pos = (304,0);
},
{
name = ogonek;
pos = (457,10);
},
{
name = top;
pos = (306,714);
},
{
name = topleft;
pos = (20,714);
},
{
name = topright;
pos = (580,714);
}
);
layerId = UUID0;
shapes = (
{
closed = 1;
nodes = (
(515,0,l),
(515,80,l),
(185,80,l),
(185,333,l),
(496,333,l),
(496,413,l),
(185,413,l),
(185,634,l),
(515,634,l),
(515,714,l),
(95,714,l),
(95,0,l)
);
}
);
width = 600;
},
{
anchors = (
{
name = bottom;
pos = (304,0);
},
{
name = ogonek;
pos = (468,10);
},
{
name = top;
pos = (302,714);
},
{
name = topleft;
pos = (20,714);
},
{
name = topright;
pos = (580,714);
}
);
layerId = "963C7F4A-CFE2-43FC-8D10-B7434095D111";
shapes = (
{
closed = 1;
nodes = (
(540,0,l),
(540,150,l),
(231,150,l),
(231,292,l),
(527,292,l),
(527,442,l),
(231,442,l),
(231,564,l),
(540,564,l),
(540,714,l),
(60,714,l),
(60,0,l)
);
}
);
width = 600;
},
{
anchors = (
{
name = bottom;
pos = (310,0);
},
{
name = ogonek;
pos = (457,10);
},
{
name = top;
pos = (310,714);
},
{
name = topleft;
pos = (20,714);
},
{
name = topright;
pos = (580,714);
}
);
layerId = "02EF4DD5-EF93-4764-9336-ED93C6797AC3";
shapes = (
{
closed = 1;
nodes = (
(510,0,l),
(510,25,l),
(141,25,l),
(141,364,l),
(490,364,l),
(490,389,l),
(141,389,l),
(141,689,l),
(510,689,l),
(510,714,l),
(115,714,l),
(115,0,l)
);
}
);
width = 600;
},
{
anchors = (
{
name = bottom;
pos = (254,0);
},
{
name = ogonek;
pos = (354,10);
},
{
name = top;
pos = (247,714);
},
{
name = topleft;
pos = (20,714);
},
{
name = topright;
pos = (480,714);
}
);
layerId = "82FB5ACD-33BC-4284-9837-1B4D88A7F1E9";
shapes = (
{
closed = 1;
nodes = (
(405,0,l),
(405,25,l),
(121,25,l),
(121,364,l),
(388,364,l),
(388,389,l),
(121,389,l),
(121,689,l),
(405,689,l),
(405,714,l),
(95,714,l),
(95,0,l)
);
}
);
width = 500;
},
{
anchors = (
{
name = bottom;
pos = (254,0);
},
{
name = ogonek;
pos = (386,10);
},
{
name = top;
pos = (249,714);
},
{
name = topleft;
pos = (20,714);
},
{
name = topright;
pos = (480,714);
}
);
layerId = "C5665599-2906-40DA-AF7F-7DBC0844951A";
shapes = (
{
closed = 1;
nodes = (
(440,0,l),
(440,78,l),
(149,78,l),
(149,331,l),
(422,331,l),
(422,409,l),
(149,409,l),
(149,636,l),
(440,636,l),
(440,714,l),
(65,714,l),
(65,0,l)
);
}
);
width = 500;
},
{
anchors = (
{
name = bottom;
pos = (254,0);
},
{
name = ogonek;
pos = (392,10);
},
{
name = top;
pos = (254,714);
},
{
name = topleft;
pos = (20,714);
},
{
name = topright;
pos = (480,714);
}
);
layerId = "35DC4C3B-953E-41FE-A906-9781CEBB9B49";
shapes = (
{
closed = 1;
nodes = (
(460,0,l),
(460,140,l),
(200,140,l),
(200,292,l),
(444,292,l),
(444,432,l),
(200,432,l),
(200,573,l),
(460,573,l),
(460,714,l),
(45,714,l),
(45,0,l)
);
}
);
width = 500;
}
);
metricLeft = B;
script = latin;
subCategory = Uppercase;
unicode = 69;
}
{
category = Letter;
glyphname = F;
layers = (
{
anchors = (
{
name = bottom;
pos = (317,0);
},
{
name = top;
pos = (317,714);
},
{
name = topright;
pos = (580,714);
}
);
layerId = UUID0;
shapes = (
{
closed = 1;
nodes = (
(185,0,l),
(185,302,l),
(496,302,l),
(496,382,l),
(185,382,l),
(185,634,l),
(515,634,l),
(515,714,l),
(95,714,l),
(95,0,l)
);
}
);
width = 600;
},
{
anchors = (
{
name = bottom;
pos = (310,0);
},
{
name = top;
pos = (310,714);
},
{
name = topright;
pos = (580,714);
}
);
layerId = "A3018D0F-8B4B-4295-AE04-84912D9BB11D";
shapes = (
{
closed = 1;
nodes = (
(220,0,l),
(220,278,l),
(515,278,l),
(515,403,l),
(220,403,l),
(220,589,l),
(530,589,l),
(530,714,l),
(80,714,l),
(80,0,l)
);
}
);
width = 600;
},
{
anchors = (
{
name = bottom;
pos = (312,0);
},
{
name = top;
pos = (312,714);
},
{
name = topright;
pos = (580,714);
}
);
layerId = "963C7F4A-CFE2-43FC-8D10-B7434095D111";
shapes = (
{
closed = 1;
nodes = (
(231,0,l),
(231,265,l),
(528,265,l),
(528,415,l),
(231,415,l),
(231,564,l),
(540,564,l),
(540,714,l),
(60,714,l),
(60,0,l)
);
}
);
width = 600;
},
{
anchors = (
{
name = bottom;
pos = (313,0);
},
{
name = top;
pos = (322,714);
},
{
name = topright;
pos = (580,714);
}
);
layerId = "02EF4DD5-EF93-4764-9336-ED93C6797AC3";
shapes = (
{
closed = 1;
nodes = (
(141,0,l),
(141,329,l),
(491,329,l),
(491,354,l),
(141,354,l),
(141,689,l),
(510,689,l),
(510,714,l),
(115,714,l),
(115,0,l)
);
}
);
width = 600;
},
{
anchors = (
{
name = bottom;
pos = (257,0);
},
{
name = top;
pos = (253,714);
},
{
name = topright;
pos = (480,714);
}
);
layerId = "82FB5ACD-33BC-4284-9837-1B4D88A7F1E9";
shapes = (
{
closed = 1;
nodes = (
(121,0,l),
(121,329,l),
(389,329,l),
(389,354,l),
(121,354,l),
(121,689,l),
(405,689,l),
(405,714,l),
(95,714,l),
(95,0,l)
);
}
);
width = 500;
},
{
anchors = (
{
name = bottom;
pos = (258,0);
},
{
name = top;
pos = (258,714);
},
{
name = topright;
pos = (480,714);
}
);
layerId = "C5665599-2906-40DA-AF7F-7DBC0844951A";
shapes = (
{
closed = 1;
nodes = (
(149,0,l),
(149,305,l),
(428,305,l),
(428,383,l),
(149,383,l),
(149,636,l),
(440,636,l),
(440,714,l),
(65,714,l),
(65,0,l)
);
}
);
width = 500;
},
{
anchors = (
{
name = bottom;
pos = (260,0);
},
{
name = top;
pos = (260,714);
},
{
name = topright;
pos = (480,714);
}
);
layerId = "28AE7390-0F8D-4D03-A566-30BDF518EAE7";
shapes = (
{
closed = 1;
nodes = (
(183,0,l),
(183,276,l),
(433,276,l),
(433,395,l),
(183,395,l),
(183,595,l),
(450,595,l),
(450,714,l),
(55,714,l),
(55,0,l)
);
}
);
width = 500;
},
{
anchors = (
{
name = bottom;
pos = (256,0);
},
{
name = top;
pos = (256,714);
},
{
name = topright;
pos = (480,714);
}
);
layerId = "35DC4C3B-953E-41FE-A906-9781CEBB9B49";
shapes = (
{
closed = 1;
nodes = (
(200,0,l),
(200,265,l),
(443,265,l),
(443,405,l),
(200,405,l),
(200,574,l),
(460,574,l),
(460,714,l),
(45,714,l),
(45,0,l)
);
}
);
width = 500;
}
);
metricLeft = B;
metricRight = E;
script = latin;
subCategory = Uppercase;
unicode = 70;
}
{
category = Letter;
glyphname = G;
layers = (
{
anchors = (
{
name = bottom;
pos = (337,0);
},
{
name = top;
pos = (322,714);
},
{
name = topright;
pos = (580,714);
}
);
layerId = UUID0;
shapes = (
{
closed = 1;
nodes = (
(415,-10,o),
(481,7,o),
(530,27,c),
(530,377,l),
(313,377,l),
(313,297,l),
(443,297,l),
(443,85,l),
(417,78,o),
(386,70,o),
(344,70,cs),
(189,70,o),
(137,190,o),
(137,350,cs),
(137,537,o),
(209,643,o),
(354,643,cs),
(411,643,o),
(456,628,o),
(490,607,c),
(522,682,l),
(473,709,o),
(420,724,o),
(352,724,cs),
(151,724,o),
(45,585,o),
(45,346,cs),
(45,114,o),
(145,-10,o),
(340,-10,cs)
);
}
);
width = 600;
},
{
anchors = (
{
name = bottom;
pos = (332,0);
},
{
name = top;
pos = (327,714);
},
{
name = topright;
pos = (580,714);
}
);
layerId = "A3018D0F-8B4B-4295-AE04-84912D9BB11D";
shapes = (
{
closed = 1;
nodes = (
(423,-10,o),
(485,0,o),
(555,31,c),
(555,402,l),
(325,402,l),
(325,282,l),
(424,282,l),
(424,123,l),
(400,117,o),
(375,113,o),
(346,113,cs),
(230,113,o),
(175,207,o),
(175,352,cs),
(175,508,o),
(238,599,o),
(368,599,cs),
(414,599,o),
(462,588,o),
(504,564,c),
(549,680,l),
(496,706,o),
(428,724,o),
(353,724,cs),
(145,724,o),
(30,584,o),
(30,349,cs),
(30,127,o),
(132,-10,o),
(343,-10,cs)
);
}
);
width = 600;
},
{
anchors = (
{
name = bottom;
pos = (342,0);
},
{
name = top;
pos = (330,714);
},
{
name = topright;
pos = (580,714);
}
);
layerId = "963C7F4A-CFE2-43FC-8D10-B7434095D111";
shapes = (
{
closed = 1;
nodes = (
(421,-10,o),
(484,2,o),
(560,33,c),
(560,418,l),
(320,418,l),
(320,279,l),
(403,279,l),
(403,151,l),
(380,145,o),
(361,143,o),
(345,143,cs),
(241,143,o),
(193,228,o),
(193,355,cs),
(193,499,o),
(255,573,o),
(368,573,cs),
(416,573,o),
(462,560,o),
(506,537,c),
(558,679,l),
(503,704,o),
(433,724,o),
(351,724,cs),
(134,724,o),
(20,584,o),
(20,350,cs),
(20,127,o),
(124,-10,o),
(353,-10,cs)
);
}
);
width = 600;
},
{
anchors = (
{
name = bottom;
pos = (330,0);
},
{
name = top;
pos = (326,714);
},
{
name = topright;
pos = (580,714);
}
);
layerId = "02EF4DD5-EF93-4764-9336-ED93C6797AC3";
shapes = (
{
closed = 1;
nodes = (
(383,-10,o),
(450,5,o),
(505,36,c),
(505,350,l),
(317,350,l),
(317,325,l),
(479,325,l),
(479,52,l),
(436,30,o),
(383,15,o),
(326,15,cs),
(175,15,o),
(82,118,o),
(82,343,cs),
(82,566,o),
(174,701,o),
(336,701,cs),
(374,701,o),
(430,694,o),
(485,662,c),
(497,685,l),
(446,715,o),
(386,726,o),
(337,726,cs),
(157,726,o),
(55,576,o),
(55,344,cs),
(55,124,o),
(147,-10,o),
(324,-10,cs)
);
}
);
width = 600;
},
{
anchors = (
{
name = bottom;
pos = (280,0);
},
{
name = top;
pos = (265,714);
},
{
name = topright;
pos = (480,714);
}
);
layerId = "82FB5ACD-33BC-4284-9837-1B4D88A7F1E9";
shapes = (
{
closed = 1;
nodes = (
(347,-10,o),
(403,2,o),
(435,24,c),
(435,351,l),
(272,351,l),
(272,326,l),
(410,326,l),
(410,40,l),
(390,27,o),
(345,15,o),
(297,15,cs),
(138,15,o),
(76,156,o),
(76,362,cs),
(76,556,o),
(131,699,o),
(290,699,cs),
(327,699,o),
(369,691,o),
(405,661,c),
(418,681,l),
(379,715,o),
(328,724,o),
(287,724,cs),
(119,724,o),
(50,574,o),
(50,358,cs),
(50,141,o),
(119,-10,o),
(295,-10,cs)
);
}
);
width = 500;
},
{
anchors = (
{
name = bottom;
pos = (279,0);
},
{
name = top;
pos = (272,714);
},
{
name = topright;
pos = (480,714);
}
);
layerId = "C5665599-2906-40DA-AF7F-7DBC0844951A";
shapes = (
{
closed = 1;
nodes = (
(343,-10,o),
(393,2,o),
(452,25,c),
(452,377,l),
(269,377,l),
(269,299,l),
(370,299,l),
(370,80,l),
(342,70,o),
(316,65,o),
(281,65,cs),
(163,65,o),
(110,194,o),
(110,357,cs),
(110,545,o),
(173,651,o),
(289,651,cs),
(340,651,o),
(376,641,o),
(422,613,c),
(455,682,l),
(406,712,o),
(346,726,o),
(287,726,cs),
(110,726,o),
(25,572,o),
(25,359,cs),
(25,148,o),
(100,-10,o),
(282,-10,cs)
);
}
);
width = 500;
},
{
anchors = (
{
name = bottom;
pos = (286,0);
},
{
name = top;
pos = (281,714);
},
{
name = topright;
pos = (480,714);
}
);
layerId = "28AE7390-0F8D-4D03-A566-30BDF518EAE7";
shapes = (
{
closed = 1;
nodes = (
(355,-10,o),
(403,2,o),
(465,27,c),
(465,402,l),
(266,402,l),
(266,286,l),
(349,286,l),
(349,119,l),
(328,116,o),
(303,110,o),
(281,110,cs),
(188,110,o),
(150,214,o),
(150,354,cs),
(150,517,o),
(201,604,o),
(310,604,cs),
(343,604,o),
(382,596,o),
(423,568,c),
(464,679,l),
(406,711,o),
(350,724,o),
(295,724,cs),
(119,724,o),
(20,590,o),
(20,347,cs),
(20,136,o),
(94,-10,o),
(297,-10,cs)
);
}
);
width = 500;
},
{
anchors = (
{
name = bottom;
pos = (290,0);
},
{
name = top;
pos = (287,714);
},
{
name = topright;
pos = (480,714);
}
);
layerId = "35DC4C3B-953E-41FE-A906-9781CEBB9B49";
shapes = (
{
closed = 1;
nodes = (
(363,-10,o),
(421,0,o),
(475,32,c),
(475,415,l),
(274,415,l),
(274,278,l),
(333,278,l),
(333,138,l),
(322,133,o),
(300,130,o),
(283,130,cs),
(205,130,o),
(169,221,o),
(169,343,cs),
(169,504,o),
(216,586,o),
(327,586,cs),
(362,586,o),
(392,578,o),
(430,554,c),
(472,680,l),
(433,705,o),
(384,725,o),
(313,725,cs),
(129,725,o),
(15,591,o),
(15,337,cs),
(15,108,o),
(108,-10,o),
(306,-10,cs)
);
}
);
width = 500;
}
);
metricLeft = O;
metricRight = H;
script = latin;
subCategory = Uppercase;
unicode = 71;
}
{
category = Letter;
glyphname = H;
layers = (
{
anchors = (
{
name = bottom;
pos = (300,0);
},
{
name = center;
pos = (300,375);
},
{
name = top;
pos = (300,714);
},
{
name = topleft;
pos = (20,714);
},
{
name = topright;
pos = (600,714);
}
);
layerId = UUID0;
shapes = (
{
closed = 1;
nodes = (
(160,0,l),
(160,333,l),
(440,333,l),
(440,0,l),
(530,0,l),
(530,714,l),
(440,714,l),
(440,413,l),
(160,413,l),
(160,714,l),
(70,714,l),
(70,0,l)
);
}
);
width = 600;
},
{
anchors = (
{
name = bottom;
pos = (300,0);
},
{
name = center;
pos = (300,374);
},
{
name = top;
pos = (300,714);
},
{
name = topleft;
pos = (20,714);
},
{
name = topright;
pos = (600,714);
}
);
layerId = "A3018D0F-8B4B-4295-AE04-84912D9BB11D";
shapes = (
{
closed = 1;
nodes = (
(190,0,l),
(190,310,l),
(410,310,l),
(410,0,l),
(555,0,l),
(555,714,l),
(410,714,l),
(410,435,l),
(190,435,l),
(190,714,l),
(45,714,l),
(45,0,l)
);
}
);
width = 600;
},
{
anchors = (
{
name = bottom;
pos = (300,0);
},
{
name = center;
pos = (300,374);
},
{
name = top;
pos = (300,714);
},
{
name = topleft;
pos = (20,714);
},
{
name = topright;
pos = (600,714);
}
);
layerId = "963C7F4A-CFE2-43FC-8D10-B7434095D111";
shapes = (
{
closed = 1;
nodes = (
(217,0,l),
(217,297,l),
(383,297,l),
(383,0,l),
(560,0,l),
(560,714,l),
(383,714,l),
(383,447,l),
(217,447,l),
(217,714,l),
(40,714,l),
(40,0,l)
);
}
);
width = 600;
},
{
anchors = (
{
name = bottom;
pos = (300,0);
},
{
name = center;
pos = (300,377);
},
{
name = top;
pos = (300,714);
},
{
name = topleft;
pos = (20,714);
},
{
name = topright;
pos = (600,714);
}
);
layerId = "02EF4DD5-EF93-4764-9336-ED93C6797AC3";
shapes = (
{
closed = 1;
nodes = (
(121,0,l),
(121,363,l),
(479,363,l),
(479,0,l),
(505,0,l),
(505,714,l),
(479,714,l),
(479,388,l),
(121,388,l),
(121,714,l),
(95,714,l),
(95,0,l)
);
}
);
width = 600;
},
{
anchors = (
{
name = bottom;
pos = (250,0);
},
{
name = center;
pos = (250,375);
},
{
name = top;
pos = (250,714);
},
{
name = topleft;
pos = (20,714);
},
{
name = topright;
pos = (500,714);
}
);
layerId = "82FB5ACD-33BC-4284-9837-1B4D88A7F1E9";
shapes = (
{
closed = 1;
nodes = (
(91,0,l),
(91,363,l),
(409,363,l),
(409,0,l),
(435,0,l),
(435,714,l),
(409,714,l),
(409,388,l),
(91,388,l),
(91,714,l),
(65,714,l),
(65,0,l)
);
}
);
width = 500;
},
{
anchors = (
{
name = bottom;
pos = (250,0);
},
{
name = center;
pos = (250,370);
},
{
name = top;
pos = (250,714);
},
{
name = topleft;
pos = (20,714);
},
{
name = topright;
pos = (500,714);
}
);
layerId = "C5665599-2906-40DA-AF7F-7DBC0844951A";
shapes = (
{
closed = 1;
nodes = (
(129,0,l),
(129,330,l),
(371,330,l),
(371,0,l),
(455,0,l),
(455,714,l),
(371,714,l),
(371,408,l),
(129,408,l),
(129,714,l),
(45,714,l),
(45,0,l)
);
}
);
width = 500;
},
{
anchors = (
{
name = bottom;
pos = (250,0);
},
{
name = center;
pos = (250,369);
},
{
name = top;
pos = (250,714);
},
{
name = topleft;
pos = (20,714);
},
{
name = topright;
pos = (500,714);
}
);
layerId = "28AE7390-0F8D-4D03-A566-30BDF518EAE7";
shapes = (
{
closed = 1;
nodes = (
(163,0,l),
(163,307,l),
(337,307,l),
(337,0,l),
(465,0,l),
(465,714,l),
(337,714,l),
(337,431,l),
(163,431,l),
(163,714,l),
(35,714,l),
(35,0,l)
);
}
);
width = 500;
},
{
anchors = (
{
name = bottom;
pos = (250,0);
},
{
name = center;
pos = (250,369);
},
{
name = top;
pos = (250,714);
},
{
name = topleft;
pos = (20,714);
},
{
name = topright;
pos = (500,714);
}
);
layerId = "35DC4C3B-953E-41FE-A906-9781CEBB9B49";
shapes = (
{
closed = 1;
nodes = (
(178,0,l),
(178,298,l),
(322,298,l),
(322,0,l),
(475,0,l),
(475,714,l),
(322,714,l),
(322,438,l),
(178,438,l),
(178,714,l),
(25,714,l),
(25,0,l)
);
}
);
width = 500;
}
);
script = latin;
subCategory = Uppercase;
unicode = 72;
}
{
category = Letter;
glyphname = I;
layers = (
{
anchors = (
{
name = bottom;
pos = (300,0);
},
{
name = ogonek;
pos = (367,10);
},
{
name = top;
pos = (300,714);
},
{
name = topleft;
pos = (20,714);
},
{
name = topright;
pos = (580,714);
}
);
layerId = UUID0;
shapes = (
{
closed = 1;
nodes = (
(490,0,l),
(490,62,l),
(344,75,l),
(344,639,l),
(490,652,l),
(490,714,l),
(110,714,l),
(110,652,l),
(254,639,l),
(254,75,l),
(110,62,l),
(110,0,l)
);
}
);
width = 600;
},
{
anchors = (
{
name = bottom;
pos = (300,0);
},
{
name = ogonek;
pos = (386,10);
},
{
name = top;
pos = (300,714);
},
{
name = topleft;
pos = (20,714);
},
{
name = topright;
pos = (580,714);
}
);
layerId = "A3018D0F-8B4B-4295-AE04-84912D9BB11D";
shapes = (
{
closed = 1;
nodes = (
(510,0,l),
(510,100,l),
(368,116,l),
(368,598,l),
(510,614,l),
(510,714,l),
(90,714,l),
(90,614,l),
(229,598,l),
(229,116,l),
(90,100,l),
(90,0,l)
);
}
);
width = 600;
},
{
anchors = (
{
name = bottom;
pos = (300,0);
},
{
name = ogonek;
pos = (401,10);
},
{
name = top;
pos = (300,714);
},
{
name = topleft;
pos = (20,714);
},
{
name = topright;
pos = (580,714);
}
);
layerId = "963C7F4A-CFE2-43FC-8D10-B7434095D111";
shapes = (
{
closed = 1;
nodes = (
(530,0,l),
(530,125,l),
(384,141,l),
(384,573,l),
(530,589,l),
(530,714,l),
(70,714,l),
(70,589,l),
(215,573,l),
(215,141,l),
(70,125,l),
(70,0,l)
);
}
);
width = 600;
},
{
anchors = (
{
name = bottom;
pos = (300,0);
},
{
name = ogonek;
pos = (337,10);
},
{
name = top;
pos = (300,714);
},
{
name = topleft;
pos = (20,714);
},
{
name = topright;
pos = (580,714);
}
);
layerId = "02EF4DD5-EF93-4764-9336-ED93C6797AC3";
shapes = (
{
closed = 1;
nodes = (
(440,0,l),
(440,20,l),
(313,23,l),
(313,690,l),
(440,694,l),
(440,714,l),
(160,714,l),
(160,694,l),
(287,690,l),
(287,23,l),
(160,20,l),
(160,0,l)
);
}
);
width = 600;
},
{
anchors = (
{
name = bottom;
pos = (250,0);
},
{
name = ogonek;
pos = (285,10);
},
{
name = top;
pos = (250,714);
},
{
name = topleft;
pos = (20,714);
},
{
name = topright;
pos = (480,714);
}
);
layerId = "82FB5ACD-33BC-4284-9837-1B4D88A7F1E9";
shapes = (
{
closed = 1;
nodes = (
(380,0,l),
(380,20,l),
(263,23,l),
(263,690,l),
(380,694,l),
(380,714,l),
(120,714,l),
(120,694,l),
(237,690,l),
(237,23,l),
(120,20,l),
(120,0,l)
);
}
);
width = 500;
},
{
anchors = (
{
name = bottom;
pos = (250,0);
},
{
name = ogonek;
pos = (316,10);
},
{
name = top;
pos = (250,714);
},
{
name = topleft;
pos = (20,714);
},
{
name = topright;
pos = (480,714);
}
);
layerId = "C5665599-2906-40DA-AF7F-7DBC0844951A";
shapes = (
{
closed = 1;
nodes = (
(425,0,l),
(425,59,l),
(290,69,l),
(290,645,l),
(425,655,l),
(425,714,l),
(75,714,l),
(75,655,l),
(208,645,l),
(208,69,l),
(75,59,l),
(75,0,l)
);
}
);
width = 500;
},
{
anchors = (
{
name = bottom;
pos = (250,0);
},
{
name = ogonek;
pos = (336,10);
},
{
name = top;
pos = (250,714);
},
{
name = topleft;
pos = (20,714);
},
{
name = topright;
pos = (480,714);
}
);
layerId = "28AE7390-0F8D-4D03-A566-30BDF518EAE7";
shapes = (
{
closed = 1;
nodes = (
(440,0,l),
(440,99,l),
(312,112,l),
(312,604,l),
(440,615,l),
(440,714,l),
(60,714,l),
(60,615,l),
(189,604,l),
(189,112,l),
(60,99,l),
(60,0,l)
);
}
);
width = 500;
},
{
anchors = (
{
name = bottom;
pos = (250,0);
},
{
name = ogonek;
pos = (344,10);
},
{
name = top;
pos = (250,714);
},
{
name = topleft;
pos = (20,714);
},
{
name = topright;
pos = (480,714);
}
);
layerId = "35DC4C3B-953E-41FE-A906-9781CEBB9B49";
shapes = (
{
closed = 1;
nodes = (
(445,0,l),
(445,115,l),
(328,130,l),
(328,584,l),
(445,599,l),
(445,714,l),
(55,714,l),
(55,599,l),
(176,584,l),
(176,130,l),
(55,115,l),
(55,0,l)
);
}
);
width = 500;
}
);
script = latin;
subCategory = Uppercase;
unicode = 73;
}
{
category = Letter;
glyphname = J;
layers = (
{
anchors = (
{
name = bottom;
pos = (300,0);
},
{
name = top;
pos = (420,714);
},
{
name = topright;
pos = (580,714);
}
);
layerId = UUID0;
shapes = (
{
closed = 1;
nodes = (
(392,-10,o),
(465,72,o),
(465,217,cs),
(465,714,l),
(375,714,l),
(375,229,ls),
(375,115,o),
(324,73,o),
(245,73,cs),
(191,73,o),
(131,91,o),
(100,104,c),
(100,19,l),
(137,2,o),
(201,-10,o),
(252,-10,cs)
);
}
);
width = 600;
},
{
anchors = (
{
name = bottom;
pos = (300,0);
},
{
name = top;
pos = (429,714);
},
{
name = topright;
pos = (580,714);
}
);
layerId = "963C7F4A-CFE2-43FC-8D10-B7434095D111";
shapes = (
{
closed = 1;
nodes = (
(446,-10,o),
(515,74,o),
(515,267,cs),
(515,714,l),
(343,714,l),
(343,291,ls),
(343,194,o),
(319,142,o),
(214,142,cs),
(188,142,o),
(134,145,o),
(65,160,c),
(65,7,l),
(131,-5,o),
(198,-10,o),
(247,-10,cs)
);
}
);
width = 600;
},
{
anchors = (
{
name = bottom;
pos = (300,0);
},
{
name = top;
pos = (408,714);
},
{
name = topright;
pos = (580,714);
}
);
layerId = "02EF4DD5-EF93-4764-9336-ED93C6797AC3";
shapes = (
{
closed = 1;
nodes = (
(378,-15,o),
(420,65,o),
(420,196,cs),
(420,714,l),
(394,714,l),
(394,204,ls),
(394,76,o),
(358,9,o),
(255,9,cs),
(196,9,o),
(157,31,o),
(120,55,c),
(120,27,l),
(160,2,o),
(198,-15,o),
(255,-15,cs)
);
}
);
width = 600;
},
{
anchors = (
{
name = bottom;
pos = (250,0);
},
{
name = top;
pos = (348,714);
},
{
name = topright;
pos = (480,714);
}
);
layerId = "82FB5ACD-33BC-4284-9837-1B4D88A7F1E9";
shapes = (
{
closed = 1;
nodes = (
(321,-15,o),
(360,58,o),
(360,196,cs),
(360,714,l),
(334,714,l),
(334,204,ls),
(334,71,o),
(301,10,o),
(201,10,cs),
(144,10,o),
(98,27,o),
(60,48,c),
(60,19,l),
(103,-1,o),
(149,-15,o),
(201,-15,cs)
);
}
);
width = 500;
},
{
anchors = (
{
name = bottom;
pos = (250,0);
},
{
name = top;
pos = (348,714);
},
{
name = topright;
pos = (480,714);
}
);
layerId = "C5665599-2906-40DA-AF7F-7DBC0844951A";
shapes = (
{
closed = 1;
nodes = (
(318,-10,o),
(390,79,o),
(390,203,cs),
(390,714,l),
(308,714,l),
(308,218,ls),
(308,122,o),
(260,65,o),
(170,65,cs),
(132,65,o),
(86,76,o),
(50,95,c),
(50,19,l),
(82,1,o),
(128,-10,o),
(177,-10,cs)
);
}
);
width = 500;
},
{
anchors = (
{
name = bottom;
pos = (250,0);
},
{
name = top;
pos = (352,714);
},
{
name = topright;
pos = (480,714);
}
);
layerId = "35DC4C3B-953E-41FE-A906-9781CEBB9B49";
shapes = (
{
closed = 1;
nodes = (
(338,-9,o),
(430,99,o),
(430,249,cs),
(430,714,l),
(278,714,l),
(278,285,ls),
(278,169,o),
(220,127,o),
(139,127,cs),
(117,127,o),
(82,130,o),
(40,143,c),
(40,10,l),
(77,-3,o),
(117,-9,o),
(159,-9,cs)
);
}
);
width = 500;
}
);
script = latin;
subCategory = Uppercase;
unicode = 74;
}
{
category = Letter;
color = 10;
glyphname = K;
layers = (
{
anchors = (
{
name = bottom;
pos = (310,0);
},
{
name = top;
pos = (300,714);
},
{
name = topright;
pos = (580,714);
}
);
layerId = UUID0;
shapes = (
{
closed = 1;
nodes = (
(160,0,l),
(160,237,l),
(241,330,l),
(447,0,l),
(550,0,l),
(302,391,l),
(541,714,l),
(438,714,l),
(234,441,ls),
(206,403,o),
(183,366,o),
(160,330,c),
(160,714,l),
(70,714,l),
(70,0,l)
);
}
);
width = 600;
},
{
anchors = (
{
name = bottom;
pos = (308,0);
},
{
name = top;
pos = (300,714);
},
{
name = topright;
pos = (580,714);
}
);
associatedMasterId = UUID0;
attr = {
coordinates = (
151,
100
);
};
background = {
shapes = (
{
closed = 1;
nodes = (
(195,0,l),
(195,230.86,l),
(245.63,288,l),
(406.56,0,l),
(574.27,0,l),
(353.8,393.88,l),
(571.44,714,l),
(409.51,714,l),
(232.56,446.1,ls),
(214.12,418.49,o),
(206.17,402.42,o),
(195,373.74,c),
(195,714,l),
(53.9,714,l),
(53.9,0,l)
);
}
);
};
layerId = "8911c5fb-e626-45c9-8018-0292ca453e15";
name = "SemiBold (intermediate)";
shapes = (
{
closed = 1;
nodes = (
(187,0,l),
(187,235,l),
(247,291,l),
(401,0,l),
(560,0,l),
(341,395,l),
(566,714,l),
(407,714,l),
(251,480,ls),
(227,445,o),
(208,413,o),
(187,372,c),
(187,714,l),
(45,714,l),
(45,0,l)
);
}
);
width = 600;
},
{
anchors = (
{
name = bottom;
pos = (304,0);
},
{
name = top;
pos = (300,714);
},
{
name = topright;
pos = (580,714);
}
);
layerId = "963C7F4A-CFE2-43FC-8D10-B7434095D111";
shapes = (
{
closed = 1;
nodes = (
(210,0,l),
(210,220,l),
(257,262,l),
(378,0,l),
(573,0,l),
(378,395,l),
(575,714,l),
(387,714,l),
(252,472,ls),
(237,445,o),
(223,419,o),
(210,388,c),
(210,714,l),
(40,714,l),
(40,0,l)
);
}
);
width = 600;
},
{
anchors = (
{
name = bottom;
pos = (320,0);
},
{
name = top;
pos = (300,714);
},
{
name = topright;
pos = (580,714);
}
);
layerId = "02EF4DD5-EF93-4764-9336-ED93C6797AC3";
shapes = (
{
closed = 1;
nodes = (
(121,0,l),
(121,293,l),
(229,400,l),
(510,0,l),
(540,0,l),
(246,417,l),
(534,714,l),
(497,714,l),
(172,376,ls),
(152,356,o),
(139,343,o),
(121,322,c),
(121,714,l),
(95,714,l),
(95,0,l)
);
}
);
width = 600;
},
{
anchors = (
{
name = bottom;
pos = (250,0);
},
{
name = top;
pos = (250,714);
},
{
name = topright;
pos = (480,714);
}
);
layerId = "82FB5ACD-33BC-4284-9837-1B4D88A7F1E9";
shapes = (
{
closed = 1;
nodes = (
(91,0,l),
(91,283,l),
(181,389,l),
(408,0,l),
(438,0,l),
(202,410,l),
(440,714,l),
(407,714,l),
(153,395,ls),
(127,363,o),
(112,346,o),
(91,321,c),
(91,714,l),
(65,714,l),
(65,0,l)
);
}
);
width = 500;
},
{
anchors = (
{
name = bottom;
pos = (259,0);
},
{
name = top;
pos = (250,714);
},
{
name = topright;
pos = (480,714);
}
);
layerId = "C5665599-2906-40DA-AF7F-7DBC0844951A";
shapes = (
{
closed = 1;
nodes = (
(127,0,l),
(127,264,l),
(195,334,l),
(381,0,l),
(475,0,l),
(252,394,l),
(465,714,l),
(369,714,l),
(210,474,ls),
(176,423,o),
(151,386,o),
(127,354,c),
(127,714,l),
(45,714,l),
(45,0,l)
);
}
);
width = 500;
},
{
anchors = (
{
name = bottom;
pos = (256,0);
},
{
name = top;
pos = (250,714);
},
{
name = topright;
pos = (480,714);
}
);
associatedMasterId = "C5665599-2906-40DA-AF7F-7DBC0844951A";
attr = {
coordinates = (
151,
70
);
};
background = {
shapes = (
{
closed = 1;
nodes = (
(157.5,0,l),
(157.5,237.77,l),
(215.13,292.52,l),
(341.35,0,l),
(484.76,0,l),
(310.56,391.56,l),
(483.3,714,l),
(343.38,714,l),
(223.42,486.81,ls),
(199.79,443.13,o),
(177.23,404.91,o),
(157.5,368.64,c),
(157.5,714,l),
(32.8,714,l),
(32.8,0,l)
);
}
);
};
layerId = "8b5dc3b8-8042-4aef-b414-36d7924c2fe4";
name = "SemiBold Condensed (intermediate)";
shapes = (
{
closed = 1;
nodes = (
(162,0,l),
(162,242,l),
(210,292,l),
(343,0,l),
(495,0,l),
(316,392,l),
(493,714,l),
(346,714,l),
(211,473,ls),
(189,433,o),
(176,409,o),
(162,377,c),
(162,714,l),
(35,714,l),
(35,0,l)
);
}
);
width = 500;
},
{
anchors = (
{
name = bottom;
pos = (251,0);
},
{
name = top;
pos = (250,714);
},
{
name = topright;
pos = (480,714);
}
);
layerId = "35DC4C3B-953E-41FE-A906-9781CEBB9B49";
shapes = (
{
closed = 1;
nodes = (
(177,0,l),
(177,221,l),
(228,266,l),
(316,0,l),
(491,0,l),
(348,390,l),
(495,714,l),
(327,714,l),
(232,495,ls),
(215,456,o),
(194,417,o),
(177,378,c),
(177,714,l),
(25,714,l),
(25,0,l)
);
}
);
width = 500;
}
);
metricLeft = H;
script = latin;
subCategory = Uppercase;
unicode = 75;
}
{
category = Letter;
color = 10;
glyphname = M;
layers = (
{
anchors = (
{
name = bottom;
pos = (300,0);
},
{
name = top;
pos = (305,714);
},
{
name = topright;
pos = (600,714);
}
);
layerId = UUID0;
shapes = (
{
closed = 1;
nodes = (
(135,0,l),
(135,387,ls),
(135,463,o),
(130,566,o),
(121,625,c),
(125,625,l),
(258,178,l),
(341,178,l),
(473,624,l),
(477,624,l),
(468,553,o),
(465,465,o),
(465,387,cs),
(465,0,l),
(550,0,l),
(550,714,l),
(420,714,l),
(301,295,l),
(298,295,l),
(179,714,l),
(50,714,l),
(50,0,l)
);
}
);
width = 600;
},
{
anchors = (
{
name = bottom;
pos = (300,0);
},
{
name = top;
pos = (300,714);
},
{
name = topright;
pos = (600,714);
}
);
associatedMasterId = UUID0;
attr = {
coordinates = (
151,
100
);
};
background = {
shapes = (
{
closed = 1;
nodes = (
(167.66,0,l),
(169.49,182.61,ls),
(170.1,310.83,o),
(144.17,531.82,o),
(141.61,564.7,c),
(145.17,564.7,l),
(228.07,158.49,l),
(365,158.49,l),
(445.9,563.7,l),
(449.46,563.7,l),
(447.51,535.16,o),
(426.07,312.73,o),
(426.68,189.44,cs),
(427.9,0,l),
(560.61,0,l),
(560.61,714,l),
(348.68,714,l),
(298.12,325.59,l),
(290.12,325.59,l),
(245.05,714,l),
(40,714,l),
(40,0,l)
);
}
);
};
layerId = "45eff3a1-ecef-416c-a14d-3aac4a4d3043";
name = "SemiBold (intermediate)";
shapes = (
{
closed = 1;
nodes = (
(170,0,l),
(170,155,ls),
(170,294,o),
(149,532,o),
(145,583,c),
(151,583,l),
(230,168,l),
(371,168,l),
(444,582,l),
(450,582,l),
(448,538,o),
(429,292,o),
(429,163,cs),
(429,0,l),
(559,0,l),
(559,714,l),
(373,714,l),
(301,309,l),
(297,309,l),
(236,714,l),
(40,714,l),
(40,0,l)
);
}
);
width = 600;
},
{
anchors = (
{
name = bottom;
pos = (300,0);
},
{
name = top;
pos = (300,714);
},
{
name = topright;
pos = (600,714);
}
);
layerId = "963C7F4A-CFE2-43FC-8D10-B7434095D111";
shapes = (
{
closed = 1;
nodes = (
(177,0,l),
(177,159,ls),
(177,203,o),
(146,522,o),
(146,552,c),
(150,552,l),
(216,158,l),
(382,158,l),
(446,551,l),
(450,551,l),
(450,523,o),
(421,203,o),
(421,160,cs),
(421,0,l),
(570,0,l),
(570,714,l),
(343,714,l),
(299,308,l),
(296,308,l),
(255,714,l),
(30,714,l),
(30,0,l)
);
}
);
width = 600;
},
{
anchors = (
{
name = bottom;
pos = (300,0);
},
{
name = top;
pos = (304,714);
},
{
name = topright;
pos = (600,714);
}
);
layerId = "02EF4DD5-EF93-4764-9336-ED93C6797AC3";
shapes = (
{
closed = 1;
nodes = (
(86,0,l),
(86,586,ls),
(86,615,o),
(86,630,o),
(84,675,c),
(86,675,l),
(286,203,l),
(314,203,l),
(512,674,l),
(514,674,l),
(514,643,o),
(514,613,o),
(514,582,cs),
(514,0,l),
(540,0,l),
(540,714,l),
(502,714,l),
(301,235,l),
(298,235,l),
(96,714,l),
(60,714,l),
(60,0,l)
);
}
);
width = 600;
},
{
anchors = (
{
name = bottom;
pos = (250,0);
},
{
name = top;
pos = (255,714);
},
{
name = topright;
pos = (500,714);
}
);
layerId = "82FB5ACD-33BC-4284-9837-1B4D88A7F1E9";
shapes = (
{
closed = 1;
nodes = (
(66,0,l),
(66,581,ls),
(66,611,o),
(66,622,o),
(64,670,c),
(66,670,l),
(231,187,l),
(264,187,l),
(432,669,l),
(434,669,l),
(434,638,o),
(434,608,o),
(434,577,cs),
(434,0,l),
(460,0,l),
(460,714,l),
(420,714,l),
(249,219,l),
(246,219,l),
(78,714,l),
(40,714,l),
(40,0,l)
);
}
);
width = 500;
},
{
anchors = (
{
name = bottom;
pos = (250,0);
},
{
name = top;
pos = (254,714);
},
{
name = topright;
pos = (500,714);
}
);
layerId = "C5665599-2906-40DA-AF7F-7DBC0844951A";
shapes = (
{
closed = 1;
nodes = (
(108,0,l),
(108,387,ls),
(108,482,o),
(100,584,o),
(94,645,c),
(99,645,l),
(205,204,l),
(289,204,l),
(398,645,l),
(403,645,l),
(397,566,o),
(392,473,o),
(392,389,cs),
(392,0,l),
(470,0,l),
(470,714,l),
(348,714,l),
(250,294,l),
(247,294,l),
(150,714,l),
(30,714,l),
(30,0,l)
);
}
);
width = 500;
},
{
anchors = (
{
name = bottom;
pos = (250,0);
},
{
name = top;
pos = (254,714);
},
{
name = topright;
pos = (500,714);
}
);
associatedMasterId = "C5665599-2906-40DA-AF7F-7DBC0844951A";
attr = {
coordinates = (
151,
70
);
};
background = {
shapes = (
{
closed = 1;
nodes = (
(129.96,0,l),
(128.13,247.31,ls),
(127.52,321.57,o),
(111.59,580.34,o),
(108.64,618.77,c),
(116.08,618.77,l),
(187.31,186.31,l),
(314.01,186.31,l),
(387.63,618.77,l),
(395.07,618.77,l),
(391.51,574.54,o),
(373.09,317.45,o),
(372.48,248.09,cs),
(371.26,0,l),
(481.59,0,l),
(481.59,714,l),
(308.35,714,l),
(253.66,290.34,l),
(250.66,290.34,l),
(193.31,714,l),
(17.8,714,l),
(17.8,0,l)
);
}
);
};
layerId = "5acfbcc0-e287-47ed-83f9-4b524867b362";
name = "SemiBold Condensed (intermediate)";
shapes = (
{
closed = 1;
nodes = (
(137,0,l),
(137,182,ls),
(137,328,o),
(116,573,o),
(114,603,c),
(121,603,l),
(183,179,l),
(313,179,l),
(377,603,l),
(384,603,l),
(382,575,o),
(361,325,o),
(361,189,cs),
(361,0,l),
(480,0,l),
(480,714,l),
(284,714,l),
(252,313,l),
(244,313,l),
(213,714,l),
(20,714,l),
(20,0,l)
);
}
);
width = 500;
},
{
anchors = (
{
name = bottom;
pos = (250,0);
},
{
name = top;
pos = (254,714);
},
{
name = topright;
pos = (500,714);
}
);
layerId = "35DC4C3B-953E-41FE-A906-9781CEBB9B49";
shapes = (
{
closed = 1;
nodes = (
(144,0,l),
(141,158,ls),
(140,219,o),
(119,578,o),
(118,602,c),
(127,602,l),
(176,175,l),
(330,175,l),
(381,602,l),
(390,602,l),
(388,580,o),
(361,218,o),
(360,158,cs),
(358,0,l),
(489,0,l),
(489,714,l),
(283,714,l),
(256,288,l),
(253,288,l),
(221,714,l),
(10,714,l),
(10,0,l)
);
}
);
width = 500;
}
);
script = latin;
subCategory = Uppercase;
unicode = 77;
}
{
category = Letter;
glyphname = N;
layers = (
{
anchors = (
{
name = bottom;
pos = (300,0);
},
{
name = top;
pos = (305,714);
},
{
name = topright;
pos = (600,714);
}
);
layerId = UUID0;
shapes = (
{
closed = 1;
nodes = (
(157,0,l),
(157,398,ls),
(157,473,o),
(150,547,o),
(144,622,c),
(148,622,l),
(421,0,l),
(530,0,l),
(530,714,l),
(443,714,l),
(443,336,ls),
(443,255,o),
(445,197,o),
(452,119,c),
(449,119,l),
(189,714,l),
(70,714,l),
(70,0,l)
);
}
);
width = 600;
},
{
anchors = (
{
name = bottom;
pos = (300,0);
},
{
name = top;
pos = (305,714);
},
{
name = topright;
pos = (600,714);
}
);
layerId = "963C7F4A-CFE2-43FC-8D10-B7434095D111";
shapes = (
{
closed = 1;
nodes = (
(197,0,l),
(197,328,ls),
(197,384,o),
(196,416,o),
(186,552,c),
(190,552,l),
(329,0,l),
(560,0,l),
(560,714,l),
(403,714,l),
(403,376,ls),
(403,313,o),
(408,248,o),
(416,157,c),
(412,157,l),
(277,714,l),
(40,714,l),
(40,0,l)
);
}
);
width = 600;
},
{
anchors = (
{
name = bottom;
pos = (300,0);
},
{
name = top;
pos = (305,714);
},
{
name = topright;
pos = (600,714);
}
);
layerId = "02EF4DD5-EF93-4764-9336-ED93C6797AC3";
shapes = (
{
closed = 1;
nodes = (
(121,0,l),
(121,530,ls),
(121,585,o),
(121,622,o),
(120,665,c),
(122,665,l),
(478,0,l),
(505,0,l),
(505,714,l),
(479,714,l),
(479,191,ls),
(479,154,o),
(479,100,o),
(480,53,c),
(478,53,l),
(122,714,l),
(95,714,l),
(95,0,l)
);
}
);
width = 600;
},
{
anchors = (
{
name = bottom;
pos = (250,0);
},
{
name = top;
pos = (255,714);
},
{
name = topright;
pos = (500,714);
}
);
layerId = "82FB5ACD-33BC-4284-9837-1B4D88A7F1E9";
shapes = (
{
closed = 1;
nodes = (
(91,0,l),
(91,548,ls),
(91,604,o),
(91,637,o),
(90,664,c),
(92,664,l),
(407,0,l),
(435,0,l),
(435,714,l),
(409,714,l),
(409,181,ls),
(409,152,o),
(410,99,o),
(410,54,c),
(408,54,l),
(94,714,l),
(65,714,l),
(65,0,l)
);
}
);
width = 500;
},
{
anchors = (
{
name = bottom;
pos = (250,0);
},
{
name = top;
pos = (255,714);
},
{
name = topright;
pos = (500,714);
}
);
layerId = "C5665599-2906-40DA-AF7F-7DBC0844951A";
shapes = (
{
closed = 1;
nodes = (
(121,0,l),
(121,436,ls),
(121,509,o),
(116,568,o),
(111,631,c),
(117,631,l),
(344,0,l),
(455,0,l),
(455,714,l),
(378,714,l),
(378,256,ls),
(378,189,o),
(388,109,o),
(389,86,c),
(384,86,l),
(162,714,l),
(45,714,l),
(45,0,l)
);
}
);
width = 500;
},
{
anchors = (
{
name = bottom;
pos = (250,0);
},
{
name = top;
pos = (255,714);
},
{
name = topright;
pos = (500,714);
}
);
layerId = "35DC4C3B-953E-41FE-A906-9781CEBB9B49";
shapes = (
{
closed = 1;
nodes = (
(165,0,l),
(165,309,ls),
(165,390,o),
(153,477,o),
(147,582,c),
(155,582,l),
(263,0,l),
(475,0,l),
(475,714,l),
(334,714,l),
(334,412,ls),
(334,342,o),
(346,218,o),
(350,140,c),
(343,140,l),
(241,714,l),
(25,714,l),
(25,0,l)
);
}
);
width = 500;
}
);
metricLeft = H;
metricRight = H;
script = latin;
subCategory = Uppercase;
unicode = 78;
}
{
category = Letter;
glyphname = O;
layers = (
{
anchors = (
{
name = bottom;
pos = (300,0);
},
{
name = center;
pos = (300,357);
},
{
name = ogonek;
pos = (299,10);
},
{
name = top;
pos = (300,714);
},
{
name = topleft;
pos = (20,714);
},
{
name = topright;
pos = (600,714);
}
);
layerId = UUID0;
shapes = (
{
closed = 1;
nodes = (
(477,-10,o),
(555,137,o),
(555,359,cs),
(555,579,o),
(478,726,o),
(300,726,cs),
(122,726,o),
(45,576,o),
(45,357,cs),
(45,138,o),
(121,-10,o),
(299,-10,cs)
);
},
{
closed = 1;
nodes = (
(181,70,o),
(137,178,o),
(137,358,cs),
(137,537,o),
(181,646,o),
(302,646,cs),
(421,646,o),
(463,539,o),
(463,358,cs),
(463,178,o),
(421,70,o),
(301,70,cs)
);
}
);
width = 600;
},
{
anchors = (
{
name = bottom;
pos = (300,0);
},
{
name = center;
pos = (300,357);
},
{
name = ogonek;
pos = (295,10);
},
{
name = top;
pos = (300,714);
},
{
name = topleft;
pos = (20,714);
},
{
name = topright;
pos = (600,714);
}
);
layerId = "963C7F4A-CFE2-43FC-8D10-B7434095D111";
shapes = (
{
closed = 1;
nodes = (
(495,-10,o),
(580,124,o),
(580,357,cs),
(580,592,o),
(493,725,o),
(300,725,cs),
(110,725,o),
(20,597,o),
(20,358,cs),
(20,121,o),
(108,-10,o),
(300,-10,cs)
);
},
{
closed = 1;
nodes = (
(225,140,o),
(199,203,o),
(199,358,cs),
(199,513,o),
(226,574,o),
(300,574,cs),
(377,574,o),
(401,507,o),
(401,360,cs),
(401,207,o),
(376,140,o),
(300,140,cs)
);
}
);
width = 600;
},
{
anchors = (
{
name = bottom;
pos = (300,0);
},
{
name = center;
pos = (300,357);
},
{
name = ogonek;
pos = (302,10);
},
{
name = top;
pos = (300,714);
},
{
name = topleft;
pos = (20,714);
},
{
name = topright;
pos = (600,714);
}
);
layerId = "02EF4DD5-EF93-4764-9336-ED93C6797AC3";
shapes = (
{
closed = 1;
nodes = (
(474,-10,o),
(545,154,o),
(545,360,cs),
(545,579,o),
(465,724,o),
(303,724,cs),
(145,724,o),
(55,587,o),
(55,360,cs),
(55,158,o),
(126,-10,o),
(301,-10,cs)
);
},
{
closed = 1;
nodes = (
(155,15,o),
(81,151,o),
(81,358,cs),
(81,564,o),
(157,699,o),
(302,699,cs),
(442,699,o),
(518,576,o),
(518,358,cs),
(518,146,o),
(446,15,o),
(302,15,cs)
);
}
);
width = 600;
},
{
anchors = (
{
name = bottom;
pos = (250,0);
},
{
name = center;
pos = (250,357);
},
{
name = ogonek;
pos = (251,10);
},
{
name = top;
pos = (250,714);
},
{
name = topleft;
pos = (20,714);
},
{
name = topright;
pos = (500,714);
}
);
layerId = "82FB5ACD-33BC-4284-9837-1B4D88A7F1E9";
shapes = (
{
closed = 1;
nodes = (
(409,-10,o),
(450,165,o),
(450,358,cs),
(450,570,o),
(397,724,o),
(251,724,cs),
(121,724,o),
(50,602,o),
(50,358,cs),
(50,173,o),
(93,-10,o),
(251,-10,cs)
);
},
{
closed = 1;
nodes = (
(138,15,o),
(76,141,o),
(76,358,cs),
(76,574,o),
(132,699,o),
(251,699,cs),
(367,699,o),
(424,577,o),
(424,358,cs),
(424,135,o),
(367,15,o),
(251,15,cs)
);
}
);
width = 500;
},
{
anchors = (
{
name = bottom;
pos = (250,0);
},
{
name = center;
pos = (250,357);
},
{
name = ogonek;
pos = (249,10);
},
{
name = top;
pos = (250,714);
},
{
name = topleft;
pos = (20,714);
},
{
name = topright;
pos = (500,714);
}
);
layerId = "C5665599-2906-40DA-AF7F-7DBC0844951A";
shapes = (
{
closed = 1;
nodes = (
(419,-10,o),
(475,152,o),
(475,358,cs),
(475,563,o),
(415,726,o),
(250,726,cs),
(97,726,o),
(25,597,o),
(25,359,cs),
(25,156,o),
(81,-10,o),
(251,-10,cs)
);
},
{
closed = 1;
nodes = (
(158,65,o),
(110,168,o),
(110,358,cs),
(110,547,o),
(150,651,o),
(250,651,cs),
(343,651,o),
(390,549,o),
(390,358,cs),
(390,165,o),
(344,65,o),
(251,65,cs)
);
}
);
width = 500;
},
{
anchors = (
{
name = bottom;
pos = (250,0);
},
{
name = center;
pos = (250,357);
},
{
name = ogonek;
pos = (267,10);
},
{
name = top;
pos = (250,714);
},
{
name = topleft;
pos = (20,714);
},
{
name = topright;
pos = (500,714);
}
);
layerId = "35DC4C3B-953E-41FE-A906-9781CEBB9B49";
shapes = (
{
closed = 1;
nodes = (
(412,-7,o),
(485,124,o),
(485,358,cs),
(485,595,o),
(412,725,o),
(249,725,cs),
(81,725,o),
(15,588,o),
(15,360,cs),
(15,123,o),
(87,-7,o),
(249,-7,cs)
);
},
{
closed = 1;
nodes = (
(189,135,o),
(172,224,o),
(172,359,cs),
(172,496,o),
(189,582,o),
(251,582,cs),
(313,582,o),
(328,506,o),
(328,358,cs),
(328,227,o),
(316,135,o),
(252,135,cs)
);
}
);
width = 500;
}
);
script = latin;
subCategory = Uppercase;
unicode = 79;
}
{
category = Letter;
glyphname = P;
layers = (
{
anchors = (
{
name = bottom;
pos = (300,0);
},
{
name = top;
pos = (300,714);
},
{
name = topright;
pos = (600,714);
}
);
layerId = UUID0;
shapes = (
{
closed = 1;
nodes = (
(185,0,l),
(185,275,l),
(286,275,ls),
(480,275,o),
(545,386,o),
(545,505,cs),
(545,638,o),
(470,714,o),
(299,714,cs),
(95,714,l),
(95,0,l)
);
},
{
closed = 1;
nodes = (
(185,353,l),
(185,636,l),
(291,636,ls),
(401,636,o),
(453,598,o),
(453,500,cs),
(453,395,o),
(394,353,o),
(276,353,cs)
);
}
);
width = 600;
},
{
anchors = (
{
name = bottom;
pos = (300,0);
},
{
name = top;
pos = (300,714);
},
{
name = topright;
pos = (600,714);
}
);
layerId = "963C7F4A-CFE2-43FC-8D10-B7434095D111";
shapes = (
{
closed = 1;
nodes = (
(225,0,l),
(225,237,l),
(319,237,ls),
(500,237,o),
(570,351,o),
(570,486,cs),
(570,632,o),
(488,714,o),
(324,714,cs),
(60,714,l),
(60,0,l)
);
},
{
closed = 1;
nodes = (
(225,382,l),
(225,569,l),
(302,569,ls),
(368,569,o),
(395,535,o),
(395,484,cs),
(395,417,o),
(359,382,o),
(299,382,cs)
);
}
);
width = 600;
},
{
anchors = (
{
name = bottom;
pos = (300,0);
},
{
name = top;
pos = (300,714);
},
{
name = topright;
pos = (600,714);
}
);
layerId = "02EF4DD5-EF93-4764-9336-ED93C6797AC3";
shapes = (
{
closed = 1;
nodes = (
(141,0,l),
(141,305,l),
(280,305,ls),
(445,305,o),
(540,364,o),
(540,516,cs),
(540,658,o),
(456,714,o),
(294,714,cs),
(115,714,l),
(115,0,l)
);
},
{
closed = 1;
nodes = (
(141,330,l),
(141,689,l),
(290,689,ls),
(443,689,o),
(513,639,o),
(513,516,cs),
(513,372,o),
(417,330,o),
(278,330,cs)
);
}
);
width = 600;
},
{
anchors = (
{
name = bottom;
pos = (250,0);
},
{
name = top;
pos = (250,714);
},
{
name = topright;
pos = (500,714);
}
);
layerId = "82FB5ACD-33BC-4284-9837-1B4D88A7F1E9";
shapes = (
{
closed = 1;
nodes = (
(121,0,l),
(121,306,l),
(250,306,ls),
(385,306,o),
(455,372,o),
(455,515,cs),
(455,663,o),
(378,714,o),
(243,714,cs),
(95,714,l),
(95,0,l)
);
},
{
closed = 1;
nodes = (
(121,331,l),
(121,689,l),
(234,689,ls),
(367,689,o),
(428,645,o),
(428,516,cs),
(428,385,o),
(366,331,o),
(241,331,cs)
);
}
);
width = 500;
},
{
anchors = (
{
name = bottom;
pos = (250,0);
},
{
name = top;
pos = (250,714);
},
{
name = topright;
pos = (500,714);
}
);
layerId = "C5665599-2906-40DA-AF7F-7DBC0844951A";
shapes = (
{
closed = 1;
nodes = (
(147,0,l),
(147,278,l),
(239,278,ls),
(395,278,o),
(455,374,o),
(455,505,cs),
(455,638,o),
(390,714,o),
(249,714,cs),
(65,714,l),
(65,0,l)
);
},
{
closed = 1;
nodes = (
(147,355,l),
(147,637,l),
(246,637,ls),
(331,637,o),
(369,593,o),
(369,500,cs),
(369,394,o),
(325,355,o),
(231,355,cs)
);
}
);
width = 500;
},
{
anchors = (
{
name = bottom;
pos = (250,0);
},
{
name = top;
pos = (256,714);
},
{
name = topright;
pos = (500,714);
}
);
layerId = "35DC4C3B-953E-41FE-A906-9781CEBB9B49";
shapes = (
{
closed = 1;
nodes = (
(200,0,l),
(200,245,l),
(245,245,ls),
(410,245,o),
(475,345,o),
(475,486,cs),
(475,633,o),
(404,714,o),
(248,714,cs),
(45,714,l),
(45,0,l)
);
},
{
closed = 1;
nodes = (
(200,377,l),
(200,584,l),
(242,584,ls),
(297,584,o),
(328,552,o),
(328,478,cs),
(328,411,o),
(302,377,o),
(230,377,cs)
);
}
);
width = 500;
}
);
metricLeft = B;
metricRight = B;
script = latin;
subCategory = Uppercase;
unicode = 80;
}
{
category = Letter;
glyphname = Q;
layers = (
{
anchors = (
{
name = bottom;
pos = (300,-220);
},
{
name = top;
pos = (300,714);
},
{
name = topright;
pos = (600,714);
}
);
layerId = UUID0;
shapes = (
{
closed = 1;
nodes = (
(541,-180,l),
(397,93,l),
(337,27,l),
(441,-180,l)
);
},
{
alignment = -1;
ref = O;
}
);
width = 600;
},
{
anchors = (
{
name = bottom;
pos = (300,-220);
},
{
name = top;
pos = (300,714);
},
{
name = topright;
pos = (600,714);
}
);
layerId = "963C7F4A-CFE2-43FC-8D10-B7434095D111";
shapes = (
{
closed = 1;
nodes = (
(580,-180,l),
(441,93,l),
(300,27,l),
(394,-180,l)
);
},
{
alignment = -1;
ref = O;
}
);
width = 600;
},
{
anchors = (
{
name = bottom;
pos = (300,-210);
},
{
name = top;
pos = (300,714);
},
{
name = topright;
pos = (600,714);
}
);
layerId = "02EF4DD5-EF93-4764-9336-ED93C6797AC3";
shapes = (
{
closed = 1;
nodes = (
(497,-170,l),
(387,16,l),
(361,12,l),
(467,-170,l)
);
},
{
alignment = -1;
ref = O;
}
);
width = 600;
},
{
anchors = (
{
name = bottom;
pos = (250,-210);
},
{
name = top;
pos = (250,714);
},
{
name = topright;
pos = (500,714);
}
);
layerId = "82FB5ACD-33BC-4284-9837-1B4D88A7F1E9";
shapes = (
{
closed = 1;
nodes = (
(427,-170,l),
(337,16,l),
(311,12,l),
(397,-170,l)
);
},
{
alignment = -1;
ref = O;
}
);
width = 500;
},
{
anchors = (
{
name = bottom;
pos = (250,-220);
},
{
name = top;
pos = (250,714);
},
{
name = topright;
pos = (500,714);
}
);
layerId = "C5665599-2906-40DA-AF7F-7DBC0844951A";
shapes = (
{
closed = 1;
nodes = (
(469,-180,l),
(347,92,l),
(290,27,l),
(379,-180,l)
);
},
{
alignment = -1;
ref = O;
}
);
width = 500;
},
{
anchors = (
{
name = bottom;
pos = (250,-220);
},
{
name = top;
pos = (250,714);
},
{
name = topright;
pos = (500,714);
}
);
layerId = "35DC4C3B-953E-41FE-A906-9781CEBB9B49";
shapes = (
{
closed = 1;
nodes = (
(485,-180,l),
(374,103,l),
(255,28,l),
(324,-180,l)
);
},
{
alignment = -1;
ref = O;
}
);
width = 500;
}
);
metricLeft = O;
metricRight = O;
script = latin;
subCategory = Uppercase;
unicode = 81;
}
{
category = Letter;
glyphname = R;
layers = (
{
anchors = (
{
name = bottom;
pos = (330,0);
},
{
name = top;
pos = (300,714);
},
{
name = topright;
pos = (580,714);
}
);
layerId = UUID0;
shapes = (
{
closed = 1;
nodes = (
(185,0,l),
(185,292,l),
(297,292,l),
(469,0,l),
(569,0,l),
(378,318,l),
(453,346,o),
(513,401,o),
(513,514,cs),
(513,647,o),
(430,714,o),
(262,714,cs),
(95,714,l),
(95,0,l)
);
},
{
closed = 1;
nodes = (
(185,370,l),
(185,636,l),
(257,636,ls),
(371,636,o),
(420,600,o),
(420,506,cs),
(420,417,o),
(376,370,o),
(259,370,cs)
);
}
);
width = 600;
},
{
anchors = (
{
name = bottom;
pos = (322,0);
},
{
name = top;
pos = (300,714);
},
{
name = topright;
pos = (580,714);
}
);
layerId = "963C7F4A-CFE2-43FC-8D10-B7434095D111";
shapes = (
{
closed = 1;
nodes = (
(224,0,l),
(224,258,l),
(294,258,l),
(409,0,l),
(595,0,l),
(437,311,l),
(509,357,o),
(546,417,o),
(546,507,cs),
(546,643,o),
(462,714,o),
(285,714,cs),
(60,714,l),
(60,0,l)
);
},
{
closed = 1;
nodes = (
(224,403,l),
(224,569,l),
(289,569,ls),
(352,569,o),
(381,539,o),
(381,490,cs),
(381,428,o),
(337,403,o),
(284,403,cs)
);
}
);
width = 600;
},
{
anchors = (
{
name = bottom;
pos = (340,0);
},
{
name = top;
pos = (300,714);
},
{
name = topright;
pos = (580,714);
}
);
layerId = "02EF4DD5-EF93-4764-9336-ED93C6797AC3";
shapes = (
{
closed = 1;
nodes = (
(141,0,l),
(141,320,l),
(344,320,l),
(535,0,l),
(565,0,l),
(369,327,l),
(474,351,o),
(530,407,o),
(530,520,cs),
(530,669,o),
(433,714,o),
(276,714,cs),
(115,714,l),
(115,0,l)
);
},
{
closed = 1;
nodes = (
(141,345,l),
(141,689,l),
(271,689,ls),
(416,689,o),
(503,648,o),
(503,522,cs),
(503,397,o),
(417,345,o),
(307,345,cs)
);
}
);
width = 600;
},
{
anchors = (
{
name = bottom;
pos = (276,0);
},
{
name = top;
pos = (250,714);
},
{
name = topright;
pos = (480,714);
}
);
layerId = "82FB5ACD-33BC-4284-9837-1B4D88A7F1E9";
shapes = (
{
closed = 1;
nodes = (
(121,0,l),
(121,321,l),
(268,321,l),
(436,0,l),
(468,0,l),
(295,328,l),
(388,352,o),
(440,416,o),
(440,525,cs),
(440,671,o),
(360,714,o),
(219,714,cs),
(95,714,l),
(95,0,l)
);
},
{
closed = 1;
nodes = (
(121,347,l),
(121,689,l),
(212,689,ls),
(352,689,o),
(413,647,o),
(413,526,cs),
(413,404,o),
(336,347,o),
(229,347,cs)
);
}
);
width = 500;
},
{
anchors = (
{
name = bottom;
pos = (262,0);
},
{
name = top;
pos = (250,714);
},
{
name = topright;
pos = (480,714);
}
);
layerId = "C5665599-2906-40DA-AF7F-7DBC0844951A";
shapes = (
{
closed = 1;
nodes = (
(147,0,l),
(147,294,l),
(249,294,l),
(387,0,l),
(480,0,l),
(325,316,l),
(387,341,o),
(436,398,o),
(436,511,cs),
(436,647,o),
(362,714,o),
(222,714,cs),
(65,714,l),
(65,0,l)
);
},
{
closed = 1;
nodes = (
(147,369,l),
(147,639,l),
(217,639,ls),
(304,639,o),
(348,601,o),
(348,507,cs),
(348,417,o),
(308,369,o),
(221,369,cs)
);
}
);
width = 500;
},
{
anchors = (
{
name = bottom;
pos = (266,0);
},
{
name = top;
pos = (250,714);
},
{
name = topright;
pos = (480,714);
}
);
layerId = "35DC4C3B-953E-41FE-A906-9781CEBB9B49";
shapes = (
{
closed = 1;
nodes = (
(198,0,l),
(198,261,l),
(239,261,l),
(325,0,l),
(495,0,l),
(373,303,l),
(443,347,o),
(467,413,o),
(467,503,cs),
(467,643,o),
(387,714,o),
(223,714,cs),
(45,714,l),
(45,0,l)
);
},
{
closed = 1;
nodes = (
(198,397,l),
(198,578,l),
(221,578,ls),
(289,578,o),
(316,550,o),
(316,492,cs),
(316,428,o),
(283,397,o),
(220,397,cs)
);
}
);
width = 500;
}
);
metricLeft = B;
script = latin;
subCategory = Uppercase;
unicode = 82;
}
{
category = Letter;
color = 10;
glyphname = S;
layers = (
{
anchors = (
{
name = bottom;
pos = (300,0);
},
{
name = top;
pos = (319,714);
},
{
name = topright;
pos = (580,714);
}
);
layerId = UUID0;
shapes = (
{
closed = 1;
nodes = (
(445,-10,o),
(529,64,o),
(529,191,cs),
(529,314,o),
(450,349,o),
(336,398,cs),
(235,441,o),
(193,461,o),
(193,532,cs),
(193,614,o),
(249,644,o),
(327,644,cs),
(381,644,o),
(441,630,o),
(486,609,c),
(515,684,l),
(467,707,o),
(401,724,o),
(329,724,cs),
(187,724,o),
(101,657,o),
(101,534,cs),
(101,409,o),
(189,368,o),
(274,331,cs),
(402,275,o),
(437,259,o),
(437,192,cs),
(437,110,o),
(385,67,o),
(283,67,cs),
(210,67,o),
(134,89,o),
(85,110,c),
(85,27,l),
(127,6,o),
(205,-10,o),
(281,-10,cs)
);
}
);
width = 600;
},
{
anchors = (
{
name = bottom;
pos = (300,0);
},
{
name = top;
pos = (314,714);
},
{
name = topright;
pos = (580,714);
}
);
associatedMasterId = UUID0;
attr = {
coordinates = (
151,
100
);
};
background = {
shapes = (
{
closed = 1;
nodes = (
(481.74,-10,o),
(547.05,99.96,o),
(547.05,202,cs),
(547.05,313.83,o),
(473.73,360.71,o),
(390.45,392.8,cs),
(267.15,450.78,o),
(227.93,464.61,o),
(227.93,521.27,cs),
(227.93,584.78,o),
(279.44,592.95,o),
(335.22,592.95,cs),
(381.61,592.95,o),
(433.83,584.78,o),
(492.27,558.61,c),
(540.98,680.44,l),
(482.32,707.22,o),
(416.05,723.83,o),
(332.9,723.83,cs),
(151.8,723.83,o),
(78.78,640.76,o),
(78.78,522.1,cs),
(78.78,394.37,o),
(162.14,357.71,o),
(248.46,318.05,cs),
(355.43,267.32,o),
(395.07,251.88,o),
(395.07,196.39,cs),
(395.07,132,o),
(347.58,118.49,o),
(283.56,118.49,cs),
(212.98,118.49,o),
(142.37,138.51,o),
(65.07,174,c),
(65.07,32.17,l),
(132.05,5.17,o),
(199.34,-10,o),
(275.29,-10,cs)
);
}
);
};
layerId = "f287dd7a-6291-4011-8b99-3b1ad8200b96";
name = "SemiBold (intermediate)";
shapes = (
{
closed = 1;
nodes = (
(437,-10,o),
(545,60,o),
(545,199,cs),
(545,310,o),
(477,352,o),
(359,411,cs),
(273,454,o),
(232,468,o),
(232,527,cs),
(232,576,o),
(261,604,o),
(326,604,cs),
(367,604,o),
(421,593,o),
(486,565,c),
(532,678,l),
(457,714,o),
(374,724,o),
(318,724,cs),
(178,724,o),
(84,662,o),
(84,534,cs),
(84,421,o),
(157,366,o),
(250,316,cs),
(342,267,o),
(397,254,o),
(397,191,cs),
(397,129,o),
(348,110,o),
(279,110,cs),
(213,110,o),
(144,127,o),
(70,165,c),
(70,33,l),
(131,4,o),
(203,-10,o),
(275,-10,cs)
);
}
);
width = 600;
},
{
anchors = (
{
name = bottom;
pos = (300,0);
},
{
name = top;
pos = (316,714);
},
{
name = topright;
pos = (580,714);
}
);
layerId = "963C7F4A-CFE2-43FC-8D10-B7434095D111";
shapes = (
{
closed = 1;
nodes = (
(493,-10,o),
(554,92,o),
(554,198,cs),
(554,318,o),
(477,364,o),
(387,411,cs),
(276,469,o),
(252,482,o),
(252,519,cs),
(252,562,o),
(286,574,o),
(335,574,cs),
(379,574,o),
(435,564,o),
(496,534,c),
(551,673,l),
(489,703,o),
(415,725,o),
(318,725,cs),
(141,725,o),
(73,652,o),
(73,528,cs),
(73,417,o),
(127,368,o),
(236,307,cs),
(329,255,o),
(374,245,o),
(374,196,cs),
(374,152,o),
(338,140,o),
(280,140,cs),
(216,140,o),
(142,155,o),
(60,203,c),
(60,35,l),
(138,2,o),
(200,-10,o),
(275,-10,cs)
);
}
);
width = 600;
},
{
anchors = (
{
name = bottom;
pos = (300,0);
},
{
name = top;
pos = (321,714);
},
{
name = topright;
pos = (580,714);
}
);
layerId = "02EF4DD5-EF93-4764-9336-ED93C6797AC3";
shapes = (
{
closed = 1;
nodes = (
(424,-10,o),
(525,52,o),
(525,181,cs),
(525,302,o),
(435,334,o),
(311,375,cs),
(205,410,o),
(125,438,o),
(125,542,cs),
(125,657,o),
(223,699,o),
(328,699,cs),
(374,699,o),
(432,691,o),
(494,664,c),
(505,688,l),
(446,714,o),
(386,724,o),
(329,724,cs),
(199,724,o),
(98,668,o),
(98,540,cs),
(98,426,o),
(179,392,o),
(297,352,cs),
(422,310,o),
(498,283,o),
(498,180,cs),
(498,65,o),
(402,15,o),
(278,15,cs),
(215,15,o),
(144,28,o),
(90,48,c),
(90,20,l),
(133,7,o),
(202,-10,o),
(278,-10,cs)
);
}
);
width = 600;
},
{
anchors = (
{
name = bottom;
pos = (250,0);
},
{
name = top;
pos = (257,714);
},
{
name = topright;
pos = (480,714);
}
);
layerId = "82FB5ACD-33BC-4284-9837-1B4D88A7F1E9";
shapes = (
{
closed = 1;
nodes = (
(345,-10,o),
(418,55,o),
(418,183,cs),
(418,298,o),
(359,328,o),
(253,376,cs),
(176,411,o),
(112,441,o),
(112,546,cs),
(112,647,o),
(171,699,o),
(263,699,cs),
(294,699,o),
(337,693,o),
(387,669,c),
(398,692,l),
(355,712,o),
(308,724,o),
(262,724,cs),
(157,724,o),
(85,664,o),
(85,543,cs),
(85,427,o),
(152,394,o),
(240,353,cs),
(341,306,o),
(391,282,o),
(391,182,cs),
(391,74,o),
(331,16,o),
(229,16,cs),
(180,16,o),
(123,30,o),
(83,46,c),
(83,17,l),
(129,1,o),
(180,-10,o),
(228,-10,cs)
);
}
);
width = 500;
},
{
anchors = (
{
name = bottom;
pos = (250,0);
},
{
name = top;
pos = (260,714);
},
{
name = topright;
pos = (480,714);
}
);
layerId = "C5665599-2906-40DA-AF7F-7DBC0844951A";
shapes = (
{
closed = 1;
nodes = (
(355,-10,o),
(440,62,o),
(440,194,cs),
(440,311,o),
(374,349,o),
(281,398,cs),
(199,441,o),
(150,468,o),
(150,544,cs),
(150,608,o),
(185,651,o),
(267,651,cs),
(312,651,o),
(358,638,o),
(400,617,c),
(430,688,l),
(377,713,o),
(321,726,o),
(265,726,cs),
(148,726,o),
(66,668,o),
(66,540,cs),
(66,426,o),
(138,376,o),
(219,334,cs),
(306,289,o),
(355,263,o),
(355,188,cs),
(355,121,o),
(316,65,o),
(217,65,cs),
(167,65,o),
(110,79,o),
(60,101,c),
(60,24,l),
(102,2,o),
(163,-10,o),
(219,-10,cs)
);
}
);
width = 500;
},
{
anchors = (
{
name = bottom;
pos = (250,0);
},
{
name = top;
pos = (260,714);
},
{
name = topright;
pos = (480,714);
}
);
associatedMasterId = "C5665599-2906-40DA-AF7F-7DBC0844951A";
attr = {
coordinates = (
151,
70
);
};
background = {
shapes = (
{
closed = 1;
nodes = (
(363.54,-10,o),
(452.2,57.12,o),
(452.2,198.27,cs),
(452.2,311.61,o),
(394.74,351.44,o),
(284.66,418.13,cs),
(214.86,459.3,o),
(178.06,480.2,o),
(178.06,531.8,cs),
(178.06,577.5,o),
(205.13,611.35,o),
(270.66,611.35,cs),
(310.17,611.35,o),
(352.51,598.96,o),
(401.83,570.64,c),
(440.98,678.85,l),
(383.1,709.34,o),
(326.49,724.78,o),
(264.39,724.78,cs),
(132.14,724.78,o),
(50.14,655.19,o),
(50.14,530.24,cs),
(50.14,420.51,o),
(116.04,369.29,o),
(204.36,316.31,cs),
(284.04,269.48,o),
(324.5,249.58,o),
(324.5,191.05,cs),
(324.5,146.62,o),
(300.75,104.04,o),
(217.61,104.04,cs),
(159.68,104.04,o),
(104.51,124.75,o),
(52.68,157.73,c),
(52.68,30.71,l),
(105.66,1.39,o),
(163.61,-10,o),
(222.05,-10,cs)
);
}
);
};
layerId = "733aa695-6942-49c2-9590-8909e6008706";
name = "SemiBold Condensed (intermediate)";
shapes = (
{
closed = 1;
nodes = (
(371,-10,o),
(455,76,o),
(455,205,cs),
(455,309,o),
(402,354,o),
(308,405,cs),
(222,452,o),
(177,471,o),
(177,529,cs),
(177,580,o),
(213,603,o),
(274,603,cs),
(312,603,o),
(349,594,o),
(402,566,c),
(445,682,l),
(385,712,o),
(333,724,o),
(275,724,cs),
(125,724,o),
(45,642,o),
(45,522,cs),
(45,401,o),
(127,359,o),
(202,318,cs),
(282,274,o),
(321,251,o),
(321,193,cs),
(321,143,o),
(292,111,o),
(220,111,cs),
(159,111,o),
(108,134,o),
(48,165,c),
(48,31,l),
(104,3,o),
(161,-10,o),
(220,-10,cs)
);
}
);
width = 500;
},
{
anchors = (
{
name = bottom;
pos = (250,0);
},
{
name = top;
pos = (259,714);
},
{
name = topright;
pos = (480,714);
}
);
layerId = "35DC4C3B-953E-41FE-A906-9781CEBB9B49";
shapes = (
{
closed = 1;
nodes = (
(369,-10,o),
(460,54,o),
(460,201,cs),
(460,312,o),
(408,353,o),
(287,431,cs),
(225,471,o),
(196,488,o),
(196,524,cs),
(196,558,o),
(218,586,o),
(273,586,cs),
(309,586,o),
(349,574,o),
(403,541,c),
(448,673,l),
(387,707,o),
(330,724,o),
(264,724,cs),
(122,724,o),
(40,647,o),
(40,524,cs),
(40,417,o),
(102,365,o),
(195,305,cs),
(270,257,o),
(305,241,o),
(305,193,cs),
(305,163,o),
(291,129,o),
(218,129,cs),
(155,129,o),
(101,154,o),
(48,194,c),
(48,35,l),
(108,1,o),
(164,-10,o),
(224,-10,cs)
);
}
);
width = 500;
}
);
script = latin;
subCategory = Uppercase;
unicode = 83;
}
{
category = Letter;
glyphname = T;
layers = (
{
anchors = (
{
name = bottom;
pos = (300,0);
},
{
name = center;
pos = (300,357);
},
{
name = top;
pos = (300,714);
},
{
name = topright;
pos = (580,714);
}
);
layerId = UUID0;
shapes = (
{
closed = 1;
nodes = (
(345,0,l),
(345,634,l),
(555,634,l),
(555,714,l),
(45,714,l),
(45,634,l),
(255,634,l),
(255,0,l)
);
}
);
width = 600;
},
{
anchors = (
{
name = bottom;
pos = (301,0);
},
{
name = center;
pos = (300,357);
},
{
name = top;
pos = (300,714);
},
{
name = topright;
pos = (580,714);
}
);
layerId = "963C7F4A-CFE2-43FC-8D10-B7434095D111";
shapes = (
{
closed = 1;
nodes = (
(387,0,l),
(387,564,l),
(580,564,l),
(580,714,l),
(20,714,l),
(20,564,l),
(212,564,l),
(212,0,l)
);
}
);
width = 600;
},
{
anchors = (
{
name = bottom;
pos = (299,0);
},
{
name = center;
pos = (300,357);
},
{
name = top;
pos = (300,714);
},
{
name = topright;
pos = (580,714);
}
);
layerId = "02EF4DD5-EF93-4764-9336-ED93C6797AC3";
shapes = (
{
closed = 1;
nodes = (
(313,0,l),
(313,689,l),
(550,689,l),
(550,714,l),
(50,714,l),
(50,689,l),
(287,689,l),
(287,0,l)
);
}
);
width = 600;
},
{
anchors = (
{
name = bottom;
pos = (250,0);
},
{
name = center;
pos = (250,357);
},
{
name = top;
pos = (250,714);
},
{
name = topright;
pos = (480,714);
}
);
layerId = "82FB5ACD-33BC-4284-9837-1B4D88A7F1E9";
shapes = (
{
closed = 1;
nodes = (
(262,0,l),
(262,689,l),
(455,689,l),
(455,714,l),
(45,714,l),
(45,689,l),
(236,689,l),
(236,0,l)
);
}
);
width = 500;
},
{
anchors = (
{
name = bottom;
pos = (250,0);
},
{
name = center;
pos = (250,357);
},
{
name = top;
pos = (250,714);
},
{
name = topright;
pos = (480,714);
}
);
layerId = "C5665599-2906-40DA-AF7F-7DBC0844951A";
shapes = (
{
closed = 1;
nodes = (
(291,0,l),
(291,636,l),
(465,636,l),
(465,714,l),
(35,714,l),
(35,636,l),
(207,636,l),
(207,0,l)
);
}
);
width = 500;
},
{
anchors = (
{
name = bottom;
pos = (250,0);
},
{
name = center;
pos = (250,357);
},
{
name = top;
pos = (250,714);
},
{
name = topright;
pos = (480,714);
}
);
layerId = "35DC4C3B-953E-41FE-A906-9781CEBB9B49";
shapes = (
{
closed = 1;
nodes = (
(327,0,l),
(327,574,l),
(485,574,l),
(485,714,l),
(15,714,l),
(15,574,l),
(174,574,l),
(174,0,l)
);
}
);
width = 500;
}
);
script = latin;
subCategory = Uppercase;
unicode = 84;
}
{
category = Letter;
glyphname = U;
layers = (
{
anchors = (
{
name = bottom;
pos = (300,0);
},
{
name = ogonek;
pos = (540,10);
},
{
name = top;
pos = (300,714);
},
{
name = topright;
pos = (580,714);
}
);
layerId = UUID0;
shapes = (
{
closed = 1;
nodes = (
(470,-10,o),
(530,103,o),
(530,252,cs),
(530,714,l),
(440,714,l),
(440,260,ls),
(440,153,o),
(414,70,o),
(300,70,cs),
(192,70,o),
(160,146,o),
(160,259,cs),
(160,714,l),
(70,714,l),
(70,254,ls),
(70,94,o),
(133,-10,o),
(298,-10,cs)
);
}
);
width = 600;
},
{
anchors = (
{
name = bottom;
pos = (300,0);
},
{
name = ogonek;
pos = (540,10);
},
{
name = top;
pos = (300,714);
},
{
name = topright;
pos = (580,714);
}
);
layerId = "963C7F4A-CFE2-43FC-8D10-B7434095D111";
shapes = (
{
closed = 1;
nodes = (
(468,-10,o),
(560,93,o),
(560,263,cs),
(560,714,l),
(385,714,l),
(385,274,ls),
(385,176,o),
(352,145,o),
(297,145,cs),
(241,145,o),
(215,177,o),
(215,273,cs),
(215,714,l),
(40,714,l),
(40,259,ls),
(40,84,o),
(140,-10,o),
(300,-10,cs)
);
}
);
width = 600;
},
{
anchors = (
{
name = bottom;
pos = (300,0);
},
{
name = ogonek;
pos = (540,10);
},
{
name = top;
pos = (300,714);
},
{
name = topright;
pos = (580,714);
}
);
layerId = "02EF4DD5-EF93-4764-9336-ED93C6797AC3";
shapes = (
{
closed = 1;
nodes = (
(429,-10,o),
(505,74,o),
(505,252,cs),
(505,714,l),
(479,714,l),
(479,258,ls),
(479,91,o),
(416,15,o),
(297,15,cs),
(174,15,o),
(121,97,o),
(121,258,cs),
(121,714,l),
(95,714,l),
(95,254,ls),
(95,82,o),
(157,-10,o),
(296,-10,cs)
);
}
);
width = 600;
},
{
anchors = (
{
name = bottom;
pos = (250,0);
},
{
name = ogonek;
pos = (450,10);
},
{
name = top;
pos = (250,714);
},
{
name = topright;
pos = (480,714);
}
);
layerId = "82FB5ACD-33BC-4284-9837-1B4D88A7F1E9";
shapes = (
{
closed = 1;
nodes = (
(356,-10,o),
(435,58,o),
(435,230,cs),
(435,714,l),
(409,714,l),
(409,233,ls),
(409,78,o),
(345,15,o),
(250,15,cs),
(149,15,o),
(91,84,o),
(91,239,cs),
(91,714,l),
(65,714,l),
(65,236,ls),
(65,70,o),
(132,-10,o),
(249,-10,cs)
);
}
);
width = 500;
},
{
anchors = (
{
name = bottom;
pos = (250,0);
},
{
name = ogonek;
pos = (450,10);
},
{
name = top;
pos = (250,714);
},
{
name = topright;
pos = (480,714);
}
);
layerId = "C5665599-2906-40DA-AF7F-7DBC0844951A";
shapes = (
{
closed = 1;
nodes = (
(386,-10,o),
(455,63,o),
(455,219,cs),
(455,714,l),
(371,714,l),
(371,223,ls),
(371,111,o),
(331,65,o),
(251,65,cs),
(172,65,o),
(129,110,o),
(129,222,cs),
(129,714,l),
(45,714,l),
(45,219,ls),
(45,63,o),
(115,-10,o),
(251,-10,cs)
);
}
);
width = 500;
},
{
anchors = (
{
name = bottom;
pos = (250,0);
},
{
name = ogonek;
pos = (450,10);
},
{
name = top;
pos = (250,714);
},
{
name = topright;
pos = (480,714);
}
);
layerId = "35DC4C3B-953E-41FE-A906-9781CEBB9B49";
shapes = (
{
closed = 1;
nodes = (
(416,-10,o),
(475,83,o),
(475,280,cs),
(475,714,l),
(320,714,l),
(320,293,ls),
(320,182,o),
(314,132,o),
(249,132,cs),
(188,132,o),
(180,178,o),
(180,291,cs),
(180,714,l),
(25,714,l),
(25,277,ls),
(25,81,o),
(84,-10,o),
(249,-10,cs)
);
}
);
width = 500;
}
);
metricLeft = H;
metricRight = H;
script = latin;
subCategory = Uppercase;
unicode = 85;
}
{
category = Letter;
color = 10;
glyphname = V;
layers = (
{
anchors = (
{
name = bottom;
pos = (300,0);
},
{
name = top;
pos = (300,714);
},
{
name = topright;
pos = (580,714);
}
);
layerId = UUID0;
shapes = (
{
closed = 1;
nodes = (
(349,0,l),
(575,714,l),
(480,714,l),
(346,253,ls),
(328,192,o),
(314,134,o),
(304,87,c),
(301,87,l),
(290,135,o),
(276,191,o),
(258,250,cs),
(119,714,l),
(25,714,l),
(255,0,l)
);
}
);
width = 600;
},
{
anchors = (
{
name = bottom;
pos = (300,0);
},
{
name = top;
pos = (300,714);
},
{
name = topright;
pos = (580,714);
}
);
layerId = "963C7F4A-CFE2-43FC-8D10-B7434095D111";
shapes = (
{
closed = 1;
nodes = (
(415,0,l),
(595,714,l),
(420,714,l),
(334,298,ls),
(326,259,o),
(313,185,o),
(306,140,c),
(301,140,l),
(294,185,o),
(279,257,o),
(270,298,cs),
(180,714,l),
(5,714,l),
(186,0,l)
);
}
);
width = 600;
},
{
anchors = (
{
name = bottom;
pos = (300,0);
},
{
name = top;
pos = (300,714);
},
{
name = topright;
pos = (580,714);
}
);
layerId = "02EF4DD5-EF93-4764-9336-ED93C6797AC3";
shapes = (
{
closed = 1;
nodes = (
(314,0,l),
(560,714,l),
(531,714,l),
(336,143,ls),
(321,99,o),
(311,64,o),
(301,34,c),
(300,34,l),
(290,64,o),
(280,98,o),
(265,143,cs),
(68,714,l),
(40,714,l),
(287,0,l)
);
}
);
width = 600;
},
{
anchors = (
{
name = bottom;
pos = (250,0);
},
{
name = top;
pos = (250,714);
},
{
name = topright;
pos = (480,714);
}
);
layerId = "82FB5ACD-33BC-4284-9837-1B4D88A7F1E9";
shapes = (
{
closed = 1;
nodes = (
(263,0,l),
(475,714,l),
(448,714,l),
(279,140,ls),
(267,100,o),
(258,67,o),
(250,34,c),
(249,34,l),
(241,68,o),
(230,102,o),
(219,140,cs),
(52,714,l),
(25,714,l),
(234,0,l)
);
}
);
width = 500;
},
{
anchors = (
{
name = bottom;
pos = (250,0);
},
{
name = top;
pos = (250,714);
},
{
name = topright;
pos = (480,714);
}
);
layerId = "C5665599-2906-40DA-AF7F-7DBC0844951A";
shapes = (
{
closed = 1;
nodes = (
(292,0,l),
(485,714,l),
(405,714,l),
(285,254,ls),
(269,192,o),
(257,127,o),
(249,81,c),
(248,81,l),
(241,128,o),
(228,192,o),
(213,251,cs),
(95,714,l),
(15,714,l),
(205,0,l)
);
}
);
width = 500;
},
{
anchors = (
{
name = bottom;
pos = (250,0);
},
{
name = top;
pos = (250,714);
},
{
name = topright;
pos = (480,714);
}
);
associatedMasterId = "C5665599-2906-40DA-AF7F-7DBC0844951A";
attr = {
coordinates = (
151,
70
);
};
background = {
shapes = (
{
closed = 1;
nodes = (
(323.11,0,l),
(491.1,714,l),
(362.3,714,l),
(277.07,286.33,ls),
(266.56,235.92,o),
(256.39,162.38,o),
(250.83,115.16,c),
(248.61,115.16,l),
(242.83,162.77,o),
(232.27,235.92,o),
(222.15,285.16,cs),
(135.26,714,l),
(8.9,714,l),
(173.28,0,l)
);
}
);
};
layerId = "fdae9b73-4d41-4eb6-8948-c18cd9b081cd";
name = "SemiBold Condensed (intermediate)";
shapes = (
{
closed = 1;
nodes = (
(322,0,l),
(490,714,l),
(354,714,l),
(278,294,ls),
(270,249,o),
(258,174,o),
(253,131,c),
(252,131,l),
(247,174,o),
(235,249,o),
(227,294,cs),
(148,714,l),
(10,714,l),
(177,0,l)
);
}
);
width = 500;
},
{
anchors = (
{
name = bottom;
pos = (250,0);
},
{
name = top;
pos = (250,714);
},
{
name = topright;
pos = (480,714);
}
);
layerId = "35DC4C3B-953E-41FE-A906-9781CEBB9B49";
shapes = (
{
closed = 1;
nodes = (
(343,0,l),
(495,714,l),
(335,714,l),
(272,307,ls),
(265,264,o),
(256,185,o),
(252,137,c),
(249,137,l),
(244,185,o),
(235,264,o),
(228,307,cs),
(161,714,l),
(5,714,l),
(153,0,l)
);
}
);
width = 500;
}
);
script = latin;
subCategory = Uppercase;
unicode = 86;
}
{
category = Letter;
glyphname = W;
layers = (
{
anchors = (
{
name = bottom;
pos = (300,0);
},
{
name = top;
pos = (300,714);
},
{
name = topright;
pos = (580,714);
}
);
layerId = UUID0;
shapes = (
{
closed = 1;
nodes = (
(201,0,l),
(277,328,ls),
(291,389,o),
(298,434,o),
(300,450,c),
(302,450,l),
(305,434,o),
(313,388,o),
(327,328,cs),
(406,0,l),
(503,0,l),
(575,714,l),
(492,714,l),
(483,610,o),
(474,506,o),
(465,402,cs),
(454,273,o),
(448,146,o),
(446,98,c),
(444,98,l),
(437,144,o),
(417,233,o),
(400,302,cs),
(344,536,l),
(258,536,l),
(204,304,ls),
(190,242,o),
(169,144,o),
(161,98,c),
(159,98,l),
(158,146,o),
(148,297,o),
(138,399,cs),
(128,504,o),
(118,609,o),
(108,714,c),
(25,714,l),
(105,0,l)
);
}
);
width = 600;
},
{
anchors = (
{
name = bottom;
pos = (300,0);
},
{
name = top;
pos = (300,714);
},
{
name = topright;
pos = (580,714);
}
);
layerId = "A3018D0F-8B4B-4295-AE04-84912D9BB11D";
shapes = (
{
closed = 1;
nodes = (
(241,0,l),
(277,244,ls),
(283,282,o),
(292,343,o),
(298,397,c),
(304,397,l),
(310,343,o),
(318,283,o),
(324,244,cs),
(360,0,l),
(540,0,l),
(590,714,l),
(464,714,l),
(443,428,o),
(438,357,o),
(438,302,cs),
(438,264,o),
(440,182,o),
(443,120,c),
(436,120,l),
(427,185,o),
(413,261,o),
(404,320,cs),
(370,546,l),
(232,546,l),
(197,320,ls),
(192,287,o),
(179,192,o),
(170,121,c),
(163,121,l),
(165,165,o),
(165,219,o),
(165,268,cs),
(165,349,o),
(165,425,o),
(136,714,c),
(10,714,l),
(63,0,l)
);
}
);
width = 600;
},
{
anchors = (
{
name = bottom;
pos = (300,0);
},
{
name = top;
pos = (300,714);
},
{
name = topright;
pos = (580,714);
}
);
layerId = "963C7F4A-CFE2-43FC-8D10-B7434095D111";
shapes = (
{
closed = 1;
nodes = (
(260,0,l),
(274,143,ls),
(280,200,o),
(293,315,o),
(297,371,c),
(300,371,l),
(305,315,o),
(318,200,o),
(325,143,cs),
(342,0,l),
(555,0,l),
(595,714,l),
(445,714,l),
(430,486,o),
(427,466,o),
(427,375,cs),
(427,312,o),
(429,236,o),
(429,140,c),
(424,140,l),
(416,199,o),
(401,335,o),
(394,394,cs),
(374,552,l),
(226,552,l),
(203,395,ls),
(194,337,o),
(175,200,o),
(170,141,c),
(165,141,l),
(166,228,o),
(167,303,o),
(167,364,cs),
(167,436,o),
(164,468,o),
(148,714,c),
(5,714,l),
(41,0,l)
);
}
);
width = 600;
},
{
anchors = (
{
name = bottom;
pos = (300,0);
},
{
name = top;
pos = (300,714);
},
{
name = topright;
pos = (580,714);
}
);
layerId = "02EF4DD5-EF93-4764-9336-ED93C6797AC3";
shapes = (
{
closed = 1;
nodes = (
(190,0,l),
(276,388,ls),
(286,434,o),
(291,450,o),
(299,495,c),
(301,495,l),
(309,450,o),
(312,434,o),
(322,388,cs),
(408,0,l),
(443,0,l),
(560,714,l),
(533,714,l),
(504,528,o),
(474,342,o),
(445,156,cs),
(438,111,o),
(434,75,o),
(426,29,c),
(424,29,l),
(416,77,o),
(410,104,o),
(398,156,cs),
(314,528,l),
(285,528,l),
(200,152,ls),
(185,84,o),
(181,70,o),
(175,29,c),
(173,29,l),
(168,67,o),
(164,88,o),
(154,152,cs),
(125,339,o),
(96,527,o),
(67,714,c),
(40,714,l),
(155,0,l)
);
}
);
width = 600;
},
{
anchors = (
{
name = bottom;
pos = (250,0);
},
{
name = top;
pos = (250,714);
},
{
name = topright;
pos = (480,714);
}
);
layerId = "82FB5ACD-33BC-4284-9837-1B4D88A7F1E9";
shapes = (
{
closed = 1;
nodes = (
(163,0,l),
(233,375,ls),
(240,411,o),
(244,433,o),
(250,475,c),
(252,475,l),
(257,433,o),
(260,410,o),
(267,375,cs),
(337,0,l),
(373,0,l),
(475,714,l),
(447,714,l),
(422,526,o),
(396,339,o),
(371,151,cs),
(365,109,o),
(361,73,o),
(357,26,c),
(355,26,l),
(348,68,o),
(342,109,o),
(334,151,cs),
(263,528,l),
(237,528,l),
(165,151,ls),
(157,110,o),
(153,70,o),
(146,29,c),
(144,29,l),
(139,75,o),
(133,110,o),
(128,151,cs),
(103,340,o),
(77,526,o),
(52,714,c),
(25,714,l),
(125,0,l)
);
}
);
width = 500;
},
{
anchors = (
{
name = bottom;
pos = (250,0);
},
{
name = top;
pos = (250,714);
},
{
name = topright;
pos = (480,714);
}
);
layerId = "C5665599-2906-40DA-AF7F-7DBC0844951A";
shapes = (
{
closed = 1;
nodes = (
(175,0,l),
(229,326,ls),
(239,387,o),
(244,416,o),
(249,444,c),
(252,444,l),
(257,416,o),
(263,387,o),
(273,327,cs),
(328,0,l),
(427,0,l),
(485,714,l),
(410,714,l),
(402,608,o),
(394,503,o),
(386,397,cs),
(382,344,o),
(375,125,o),
(374,79,c),
(370,79,l),
(365,125,o),
(350,232,o),
(337,301,cs),
(292,536,l),
(207,536,l),
(165,303,ls),
(154,241,o),
(139,124,o),
(134,79,c),
(131,79,l),
(130,125,o),
(117,335,o),
(112,396,cs),
(103,502,o),
(93,608,o),
(84,714,c),
(15,714,l),
(77,0,l)
);
}
);
width = 500;
},
{
anchors = (
{
name = bottom;
pos = (250,0);
},
{
name = top;
pos = (250,714);
},
{
name = topright;
pos = (480,714);
}
);
layerId = "28AE7390-0F8D-4D03-A566-30BDF518EAE7";
shapes = (
{
closed = 1;
nodes = (
(210,0,l),
(236,246,ls),
(241,293,o),
(245,356,o),
(246,405,c),
(252,405,l),
(255,355,o),
(256,293,o),
(261,246,cs),
(287,0,l),
(460,0,l),
(490,714,l),
(369,714,l),
(367,589,o),
(362,464,o),
(362,339,cs),
(362,284,o),
(364,194,o),
(364,120,c),
(357,120,l),
(351,181,o),
(343,264,o),
(336,318,cs),
(308,545,l),
(193,545,l),
(162,319,ls),
(156,276,o),
(146,183,o),
(140,120,c),
(133,120,l),
(134,181,o),
(134,253,o),
(134,339,cs),
(134,377,o),
(129,554,o),
(125,714,c),
(10,714,l),
(38,0,l)
);
}
);
width = 500;
},
{
anchors = (
{
name = bottom;
pos = (250,0);
},
{
name = top;
pos = (250,714);
},
{
name = topright;
pos = (480,714);
}
);
layerId = "35DC4C3B-953E-41FE-A906-9781CEBB9B49";
shapes = (
{
closed = 1;
nodes = (
(225,0,l),
(238,194,ls),
(242,247,o),
(246,334,o),
(248,382,c),
(254,382,l),
(256,334,o),
(261,247,o),
(265,194,cs),
(278,0,l),
(458,0,l),
(495,714,l),
(370,714,l),
(367,622,o),
(363,530,o),
(360,438,cs),
(358,377,o),
(355,262,o),
(353,140,c),
(347,140,l),
(344,199,o),
(335,295,o),
(329,357,cs),
(310,553,l),
(190,553,l),
(174,358,ls),
(170,309,o),
(161,203,o),
(155,141,c),
(149,141,l),
(147,261,o),
(144,381,o),
(142,437,cs),
(138,530,o),
(133,622,o),
(129,714,c),
(5,714,l),
(42,0,l)
);
}
);
width = 500;
}
);
metricLeft = V;
metricRight = V;
script = latin;
subCategory = Uppercase;
unicode = 87;
}
{
category = Letter;
glyphname = Y;
layers = (
{
anchors = (
{
name = bottom;
pos = (300,0);
},
{
name = top;
pos = (300,714);
},
{
name = topleft;
pos = (20,714);
},
{
name = topright;
pos = (580,714);
}
);
layerId = UUID0;
shapes = (
{
closed = 1;
nodes = (
(343,0,l),
(343,278,l),
(565,714,l),
(469,714,l),
(301,353,l),
(134,714,l),
(35,714,l),
(257,278,l),
(257,0,l)
);
}
);
width = 600;
},
{
anchors = (
{
name = bottom;
pos = (300,0);
},
{
name = top;
pos = (300,714);
},
{
name = topleft;
pos = (20,714);
},
{
name = topright;
pos = (580,714);
}
);
layerId = "963C7F4A-CFE2-43FC-8D10-B7434095D111";
shapes = (
{
closed = 1;
nodes = (
(388,0,l),
(388,276,l),
(585,714,l),
(403,714,l),
(302,460,l),
(199,714,l),
(15,714,l),
(213,276,l),
(213,0,l)
);
}
);
width = 600;
},
{
anchors = (
{
name = bottom;
pos = (300,0);
},
{
name = top;
pos = (300,714);
},
{
name = topleft;
pos = (20,714);
},
{
name = topright;
pos = (580,714);
}
);
layerId = "02EF4DD5-EF93-4764-9336-ED93C6797AC3";
shapes = (
{
closed = 1;
nodes = (
(315,0,l),
(315,271,l),
(550,714,l),
(521,714,l),
(302,294,l),
(79,714,l),
(50,714,l),
(289,271,l),
(289,0,l)
);
}
);
width = 600;
},
{
anchors = (
{
name = bottom;
pos = (250,0);
},
{
name = top;
pos = (250,714);
},
{
name = topleft;
pos = (20,714);
},
{
name = topright;
pos = (480,714);
}
);
layerId = "82FB5ACD-33BC-4284-9837-1B4D88A7F1E9";
shapes = (
{
closed = 1;
nodes = (
(264,0,l),
(264,277,l),
(465,714,l),
(437,714,l),
(251,305,l),
(62,714,l),
(35,714,l),
(238,275,l),
(238,0,l)
);
}
);
width = 500;
},
{
anchors = (
{
name = bottom;
pos = (250,0);
},
{
name = top;
pos = (250,714);
},
{
name = topleft;
pos = (20,714);
},
{
name = topright;
pos = (480,714);
}
);
layerId = "C5665599-2906-40DA-AF7F-7DBC0844951A";
shapes = (
{
closed = 1;
nodes = (
(290,0,l),
(290,273,l),
(480,714,l),
(390,714,l),
(250,351,l),
(111,714,l),
(20,714,l),
(208,273,l),
(208,0,l)
);
}
);
width = 500;
},
{
anchors = (
{
name = bottom;
pos = (250,0);
},
{
name = top;
pos = (250,714);
},
{
name = topleft;
pos = (20,714);
},
{
name = topright;
pos = (480,714);
}
);
layerId = "35DC4C3B-953E-41FE-A906-9781CEBB9B49";
shapes = (
{
closed = 1;
nodes = (
(322,0,l),
(322,277,l),
(495,714,l),
(328,714,l),
(250,443,l),
(173,714,l),
(5,714,l),
(174,276,l),
(174,0,l)
);
}
);
width = 500;
}
);
metricLeft = X;
metricRight = X;
script = latin;
subCategory = Uppercase;
unicode = 89;
}
{
category = Letter;
glyphname = Z;
layers = (
{
anchors = (
{
name = bottom;
pos = (312,0);
},
{
name = top;
pos = (312,714);
},
{
name = topright;
pos = (580,714);
}
);
layerId = UUID0;
shapes = (
{
closed = 1;
nodes = (
(505,0,l),
(505,80,l),
(192,80,l),
(505,643,l),
(505,714,l),
(115,714,l),
(115,636,l),
(412,636,l),
(95,71,l),
(95,0,l)
);
}
);
width = 600;
},
{
anchors = (
{
name = bottom;
pos = (311,0);
},
{
name = top;
pos = (308,714);
},
{
name = topright;
pos = (580,714);
}
);
layerId = "963C7F4A-CFE2-43FC-8D10-B7434095D111";
shapes = (
{
closed = 1;
nodes = (
(550,0,l),
(550,150,l),
(260,150,l),
(543,595,l),
(543,714,l),
(76,714,l),
(76,569,l),
(352,569,l),
(60,119,l),
(60,0,l)
);
}
);
width = 600;
},
{
anchors = (
{
name = bottom;
pos = (320,0);
},
{
name = top;
pos = (317,714);
},
{
name = topright;
pos = (580,714);
}
);
layerId = "02EF4DD5-EF93-4764-9336-ED93C6797AC3";
shapes = (
{
closed = 1;
nodes = (
(495,0,l),
(495,25,l),
(148,25,l),
(483,696,l),
(483,714,l),
(143,714,l),
(143,689,l),
(450,689,l),
(115,18,l),
(115,0,l)
);
}
);
width = 600;
},
{
anchors = (
{
name = bottom;
pos = (277,0);
},
{
name = top;
pos = (265,714);
},
{
name = topright;
pos = (480,714);
}
);
layerId = "82FB5ACD-33BC-4284-9837-1B4D88A7F1E9";
shapes = (
{
closed = 1;
nodes = (
(431,0,l),
(431,25,l),
(125,25,l),
(421,693,l),
(421,714,l),
(115,714,l),
(115,689,l),
(392,689,l),
(95,21,l),
(95,0,l)
);
}
);
width = 500;
},
{
anchors = (
{
name = bottom;
pos = (271,0);
},
{
name = top;
pos = (261,714);
},
{
name = topright;
pos = (480,714);
}
);
layerId = "C5665599-2906-40DA-AF7F-7DBC0844951A";
shapes = (
{
closed = 1;
nodes = (
(445,0,l),
(445,78,l),
(157,78,l),
(438,644,l),
(438,714,l),
(78,714,l),
(78,636,l),
(347,636,l),
(65,70,l),
(65,0,l)
);
}
);
width = 500;
},
{
anchors = (
{
name = bottom;
pos = (266,0);
},
{
name = top;
pos = (254,714);
},
{
name = topright;
pos = (480,714);
}
);
layerId = "35DC4C3B-953E-41FE-A906-9781CEBB9B49";
shapes = (
{
closed = 1;
nodes = (
(462,0,l),
(462,140,l),
(222,140,l),
(461,601,l),
(461,714,l),
(49,714,l),
(49,574,l),
(294,574,l),
(45,113,l),
(45,0,l)
);
}
);
width = 500;
}
);
metricLeft = B;
script = latin;
subCategory = Uppercase;
unicode = 90;
}
{
category = Punctuation;
glyphname = bracketleft;
layers = (
{
layerId = UUID0;
shapes = (
{
closed = 1;
nodes = (
(465,-158,l),
(465,-86,l),
(326,-86,l),
(326,642,l),
(465,642,l),
(465,714,l),
(240,714,l),
(240,-158,l)
);
}
);
width = 600;
},
{
layerId = "963C7F4A-CFE2-43FC-8D10-B7434095D111";
shapes = (
{
closed = 1;
nodes = (
(475,-168,l),
(475,-44,l),
(373,-44,l),
(373,610,l),
(475,610,l),
(475,734,l),
(220,734,l),
(220,-168,l)
);
}
);
width = 600;
},
{
layerId = "02EF4DD5-EF93-4764-9336-ED93C6797AC3";
shapes = (
{
closed = 1;
nodes = (
(438,-158,l),
(438,-133,l),
(263,-133,l),
(263,689,l),
(438,689,l),
(438,714,l),
(238,714,l),
(238,-158,l)
);
}
);
width = 600;
},
{
layerId = "82FB5ACD-33BC-4284-9837-1B4D88A7F1E9";
shapes = (
{
closed = 1;
nodes = (
(399,-158,l),
(399,-134,l),
(231,-134,l),
(231,690,l),
(399,690,l),
(399,714,l),
(206,714,l),
(206,-158,l)
);
}
);
width = 500;
},
{
layerId = "C5665599-2906-40DA-AF7F-7DBC0844951A";
shapes = (
{
closed = 1;
nodes = (
(390,-161,l),
(390,-93,l),
(258,-93,l),
(258,652,l),
(390,652,l),
(390,720,l),
(181,720,l),
(181,-161,l)
);
}
);
width = 500;
},
{
layerId = "35DC4C3B-953E-41FE-A906-9781CEBB9B49";
shapes = (
{
closed = 1;
nodes = (
(409,-166,l),
(409,-54,l),
(307,-54,l),
(307,618,l),
(409,618,l),
(409,731,l),
(171,731,l),
(171,-166,l)
);
}
);
width = 500;
}
);
script = "";
subCategory = Parenthesis;
unicode = 91;
}
{
category = Symbol;
color = 10;
glyphname = asciicircum;
layers = (
{
layerId = UUID0;
shapes = (
{
closed = 1;
nodes = (
(128,267,l),
(290,626,l),
(472,267,l),
(550,267,l),
(314,719,l),
(264,719,l),
(50,267,l)
);
}
);
width = 600;
},
{
associatedMasterId = UUID0;
attr = {
coordinates = (
151,
100
);
};
background = {
shapes = (
{
closed = 1;
nodes = (
(143.37,248.45,l),
(291.83,549.7,l),
(454.19,248.45,l),
(571.46,248.45,l),
(326.05,717.56,l),
(253.78,717.56,l),
(27.93,248.45,l)
);
}
);
};
layerId = "664f4cc9-1018-4425-aaf3-b2ce545c9d92";
name = "SemiBold (intermediate)";
shapes = (
{
closed = 1;
nodes = (
(158,266,l),
(294,554,l),
(442,266,l),
(560,266,l),
(327,716,l),
(258,716,l),
(40,266,l)
);
}
);
width = 600;
},
{
layerId = "963C7F4A-CFE2-43FC-8D10-B7434095D111";
shapes = (
{
closed = 1;
nodes = (
(173,244,l),
(294,511,l),
(425,244,l),
(570,244,l),
(333,716,l),
(250,716,l),
(30,244,l)
);
}
);
width = 600;
},
{
layerId = "02EF4DD5-EF93-4764-9336-ED93C6797AC3";
shapes = (
{
closed = 1;
nodes = (
(90,278,l),
(307,686,l),
(510,278,l),
(539,278,l),
(320,719,l),
(297,719,l),
(61,278,l)
);
}
);
width = 600;
},
{
layerId = "82FB5ACD-33BC-4284-9837-1B4D88A7F1E9";
shapes = (
{
closed = 1;
nodes = (
(71,325,l),
(257,684,l),
(430,325,l),
(460,325,l),
(270,716,l),
(247,716,l),
(41,325,l)
);
}
);
width = 500;
},
{
layerId = "C5665599-2906-40DA-AF7F-7DBC0844951A";
shapes = (
{
closed = 1;
nodes = (
(121,332,l),
(249,609,l),
(377,332,l),
(456,332,l),
(273,713,l),
(225,713,l),
(43,332,l)
);
}
);
width = 500;
},
{
associatedMasterId = "C5665599-2906-40DA-AF7F-7DBC0844951A";
attr = {
coordinates = (
151,
70
);
};
background = {
shapes = (
{
closed = 1;
nodes = (
(138.08,290.52,l),
(249.61,557.15,l),
(361.14,290.52,l),
(476.74,290.52,l),
(281.54,713.61,l),
(217.68,713.61,l),
(22.87,290.52,l)
);
}
);
};
layerId = "ca987bca-00d0-4c02-9cd8-11efeb609020";
name = "SemiBold Condensed (intermediate)";
shapes = (
{
closed = 1;
nodes = (
(126,286,l),
(249,551,l),
(372,286,l),
(486,286,l),
(282,714,l),
(216,714,l),
(13,286,l)
);
}
);
width = 500;
},
{
layerId = "35DC4C3B-953E-41FE-A906-9781CEBB9B49";
shapes = (
{
closed = 1;
nodes = (
(149,264,l),
(250,524,l),
(351,264,l),
(490,264,l),
(287,714,l),
(213,714,l),
(10,264,l)
);
}
);
width = 500;
}
);
script = "";
subCategory = Other;
unicode = 94;
}
{
category = Punctuation;
glyphname = underscore;
layers = (
{
layerId = UUID0;
shapes = (
{
closed = 1;
nodes = (
(600,-154,l),
(600,-74,l),
(0,-74,l),
(0,-154,l)
);
}
);
width = 600;
},
{
layerId = "A3018D0F-8B4B-4295-AE04-84912D9BB11D";
shapes = (
{
closed = 1;
nodes = (
(600,-187,l),
(600,-67,l),
(0,-67,l),
(0,-187,l)
);
}
);
width = 600;
},
{
layerId = "963C7F4A-CFE2-43FC-8D10-B7434095D111";
shapes = (
{
closed = 1;
nodes = (
(600,-182,l),
(600,-42,l),
(0,-42,l),
(0,-182,l)
);
}
);
width = 600;
},
{
layerId = "02EF4DD5-EF93-4764-9336-ED93C6797AC3";
shapes = (
{
closed = 1;
nodes = (
(600,-110,l),
(600,-85,l),
(0,-85,l),
(0,-110,l)
);
}
);
width = 600;
},
{
layerId = "82FB5ACD-33BC-4284-9837-1B4D88A7F1E9";
shapes = (
{
closed = 1;
nodes = (
(500,-113,l),
(500,-88,l),
(0,-88,l),
(0,-113,l)
);
}
);
width = 500;
},
{
layerId = "C5665599-2906-40DA-AF7F-7DBC0844951A";
shapes = (
{
closed = 1;
nodes = (
(500,-157,l),
(500,-79,l),
(0,-79,l),
(0,-157,l)
);
}
);
width = 500;
},
{
layerId = "28AE7390-0F8D-4D03-A566-30BDF518EAE7";
shapes = (
{
closed = 1;
nodes = (
(500,-191,l),
(500,-71,l),
(0,-71,l),
(0,-191,l)
);
}
);
width = 500;
},
{
layerId = "35DC4C3B-953E-41FE-A906-9781CEBB9B49";
shapes = (
{
closed = 1;
nodes = (
(500,-198,l),
(500,-68,l),
(0,-68,l),
(0,-198,l)
);
}
);
width = 500;
}
);
script = "";
subCategory = Other;
unicode = 95;
}
{
category = Letter;
glyphname = a;
layers = (
{
anchors = (
{
name = bottom;
pos = (300,0);
},
{
name = ogonek;
pos = (540,10);
},
{
name = top;
pos = (305,536);
},
{
name = topright;
pos = (580,536);
}
);
layerId = UUID0;
shapes = (
{
closed = 1;
nodes = (
(324,-10,o),
(380,18,o),
(424,74,c),
(428,74,l),
(438,0,l),
(510,0,l),
(510,359,ls),
(510,487,o),
(434,546,o),
(300,546,cs),
(219,546,o),
(158,524,o),
(108,499,c),
(139,431,l),
(185,458,o),
(237,473,o),
(295,473,cs),
(376,473,o),
(428,444,o),
(428,348,cs),
(428,326,l),
(313,323,ls),
(156,319,o),
(70,263,o),
(70,147,cs),
(70,42,o),
(141,-10,o),
(246,-10,cs)
);
},
{
closed = 1;
nodes = (
(197,63,o),
(155,88,o),
(155,150,cs),
(155,216,o),
(204,255,o),
(332,259,cs),
(428,262,l),
(428,214,ls),
(428,111,o),
(350,63,o),
(261,63,cs)
);
}
);
width = 600;
},
{
anchors = (
{
name = bottom;
pos = (306,0);
},
{
name = ogonek;
pos = (540,10);
},
{
name = top;
pos = (309,553);
},
{
name = topright;
pos = (580,553);
}
);
layerId = "963C7F4A-CFE2-43FC-8D10-B7434095D111";
shapes = (
{
closed = 1;
nodes = (
(264,-10,o),
(335,-4,o),
(392,66,c),
(396,66,l),
(415,0,l),
(545,0,l),
(545,377,ls),
(545,501,o),
(471,563,o),
(307,563,cs),
(227,563,o),
(152,548,o),
(81,513,c),
(134,393,l),
(188,418,o),
(246,427,o),
(289,427,cs),
(353,427,o),
(379,407,o),
(379,369,cs),
(379,350,l),
(264,346,ls),
(132,341,o),
(40,292,o),
(40,165,cs),
(40,62,o),
(100,-10,o),
(227,-10,cs)
);
},
{
closed = 1;
nodes = (
(226,125,o),
(202,143,o),
(202,179,cs),
(202,226,o),
(241,242,o),
(321,243,cs),
(379,244,l),
(379,217,ls),
(379,154,o),
(327,125,o),
(271,125,cs)
);
}
);
width = 600;
},
{
anchors = (
{
name = bottom;
pos = (306,0);
},
{
name = ogonek;
pos = (540,10);
},
{
name = top;
pos = (305,528);
},
{
name = topright;
pos = (580,528);
}
);
layerId = "02EF4DD5-EF93-4764-9336-ED93C6797AC3";
shapes = (
{
closed = 1;
nodes = (
(363,-10,o),
(432,39,o),
(462,103,c),
(464,103,l),
(468,0,l),
(490,0,l),
(490,350,ls),
(490,480,o),
(429,537,o),
(305,537,cs),
(247,537,o),
(192,523,o),
(139,497,c),
(148,472,l),
(205,501,o),
(255,512,o),
(304,512,cs),
(413,512,o),
(464,465,o),
(464,343,cs),
(464,300,l),
(341,294,ls),
(189,286,o),
(90,240,o),
(90,128,cs),
(90,44,o),
(146,-10,o),
(254,-10,cs)
);
},
{
closed = 1;
nodes = (
(164,15,o),
(117,58,o),
(117,128,cs),
(117,228,o),
(211,264,o),
(346,270,cs),
(464,275,l),
(464,220,ls),
(464,100,o),
(392,15,o),
(256,15,cs)
);
}
);
width = 600;
},
{
anchors = (
{
name = bottom;
pos = (252,0);
},
{
name = ogonek;
pos = (450,10);
},
{
name = top;
pos = (254,528);
},
{
name = topright;
pos = (480,528);
}
);
layerId = "82FB5ACD-33BC-4284-9837-1B4D88A7F1E9";
shapes = (
{
closed = 1;
nodes = (
(312,-10,o),
(354,43,o),
(374,98,c),
(376,98,l),
(378,0,l),
(400,0,l),
(400,354,ls),
(400,485,o),
(354,537,o),
(258,537,cs),
(211,537,o),
(164,524,o),
(122,502,c),
(132,478,l),
(179,503,o),
(219,512,o),
(258,512,cs),
(338,512,o),
(374,469,o),
(374,349,cs),
(374,302,l),
(292,295,ls),
(158,284,o),
(80,234,o),
(80,129,cs),
(80,51,o),
(125,-10,o),
(220,-10,cs)
);
},
{
closed = 1;
nodes = (
(148,14,o),
(107,56,o),
(107,129,cs),
(107,220,o),
(175,263,o),
(292,272,cs),
(374,278,l),
(374,220,ls),
(373,98,o),
(328,14,o),
(220,14,cs)
);
}
);
width = 500;
},
{
anchors = (
{
name = bottom;
pos = (252,0);
},
{
name = ogonek;
pos = (450,10);
},
{
name = top;
pos = (265,536);
},
{
name = topright;
pos = (480,536);
}
);
layerId = "C5665599-2906-40DA-AF7F-7DBC0844951A";
shapes = (
{
closed = 1;
nodes = (
(275,-10,o),
(320,22,o),
(357,76,c),
(360,76,l),
(378,0,l),
(440,0,l),
(440,367,ls),
(440,490,o),
(373,547,o),
(256,547,cs),
(189,547,o),
(140,528,o),
(86,499,c),
(116,433,l),
(156,455,o),
(203,474,o),
(251,474,cs),
(313,474,o),
(359,443,o),
(359,357,cs),
(359,322,l),
(265,319,ls),
(129,315,o),
(60,262,o),
(60,150,cs),
(60,41,o),
(125,-10,o),
(209,-10,cs)
);
},
{
closed = 1;
nodes = (
(185,63,o),
(146,88,o),
(146,152,cs),
(146,221,o),
(190,255,o),
(285,259,cs),
(358,262,l),
(358,214,ls),
(358,110,o),
(295,63,o),
(231,63,cs)
);
}
);
width = 500;
},
{
anchors = (
{
name = bottom;
pos = (260,0);
},
{
name = ogonek;
pos = (450,10);
},
{
name = top;
pos = (264,553);
},
{
name = topright;
pos = (496,553);
}
);
layerId = "35DC4C3B-953E-41FE-A906-9781CEBB9B49";
shapes = (
{
closed = 1;
nodes = (
(247,-10,o),
(290,16,o),
(320,73,c),
(323,73,l),
(343,0,l),
(460,0,l),
(460,374,ls),
(460,498,o),
(389,563,o),
(257,563,cs),
(187,563,o),
(128,545,o),
(74,513,c),
(126,393,l),
(161,413,o),
(195,425,o),
(235,425,cs),
(282,425,o),
(313,408,o),
(313,362,cs),
(313,352,l),
(226,349,ls),
(114,345,o),
(40,290,o),
(40,164,cs),
(40,58,o),
(93,-10,o),
(188,-10,cs)
);
},
{
closed = 1;
nodes = (
(211,128,o),
(186,143,o),
(186,180,cs),
(186,222,o),
(220,243,o),
(268,245,cs),
(313,247,l),
(313,212,ls),
(313,156,o),
(282,128,o),
(241,128,cs)
);
}
);
width = 500;
}
);
script = latin;
subCategory = Lowercase;
unicode = 97;
}
{
category = Letter;
glyphname = b;
layers = (
{
anchors = (
{
name = bottom;
pos = (300,0);
},
{
name = top;
pos = (300,760);
},
{
name = topright;
pos = (580,760);
}
);
layerId = UUID0;
shapes = (
{
closed = 1;
nodes = (
(457,-10,o),
(545,85,o),
(545,269,cs),
(545,451,o),
(458,546,o),
(329,546,cs),
(247,546,o),
(195,508,o),
(167,466,c),
(163,466,l),
(167,503,o),
(167,539,o),
(167,576,cs),
(167,760,l),
(80,760,l),
(80,0,l),
(152,0,l),
(160,68,l),
(166,68,l),
(196,26,o),
(250,-10,o),
(329,-10,cs)
);
},
{
closed = 1;
nodes = (
(213,63,o),
(167,136,o),
(167,271,cs),
(167,400,o),
(219,473,o),
(311,473,cs),
(410,473,o),
(453,400,o),
(453,269,cs),
(453,136,o),
(409,63,o),
(312,63,cs)
);
}
);
width = 600;
},
{
anchors = (
{
name = bottom;
pos = (300,0);
},
{
name = top;
pos = (300,760);
},
{
name = topright;
pos = (580,760);
}
);
layerId = "963C7F4A-CFE2-43FC-8D10-B7434095D111";
shapes = (
{
closed = 1;
nodes = (
(516,-10,o),
(570,132,o),
(570,279,cs),
(570,420,o),
(520,563,o),
(372,563,cs),
(312,563,o),
(255,539,o),
(217,480,c),
(210,480,l),
(214,536,o),
(217,573,o),
(217,587,cs),
(217,760,l),
(45,760,l),
(45,0,l),
(175,0,l),
(205,56,l),
(217,56,l),
(259,7,o),
(313,-10,o),
(365,-10,cs)
);
},
{
closed = 1;
nodes = (
(252,130,o),
(217,166,o),
(217,278,cs),
(217,385,o),
(249,422,o),
(304,422,cs),
(364,422,o),
(395,377,o),
(395,279,cs),
(395,176,o),
(361,130,o),
(303,130,cs)
);
}
);
width = 600;
},
{
anchors = (
{
name = bottom;
pos = (300,0);
},
{
name = top;
pos = (300,760);
},
{
name = topright;
pos = (580,760);
}
);
layerId = "02EF4DD5-EF93-4764-9336-ED93C6797AC3";
shapes = (
{
closed = 1;
nodes = (
(469,-10,o),
(530,112,o),
(530,273,cs),
(530,438,o),
(459,537,o),
(325,537,cs),
(221,537,o),
(152,477,o),
(131,398,c),
(129,398,l),
(130,440,o),
(131,491,o),
(131,525,cs),
(131,760,l),
(105,760,l),
(105,0,l),
(127,0,l),
(131,104,l),
(133,104,l),
(156,38,o),
(212,-10,o),
(309,-10,cs)
);
},
{
closed = 1;
nodes = (
(188,15,o),
(131,97,o),
(131,256,cs),
(131,420,o),
(195,512,o),
(323,512,cs),
(446,512,o),
(503,421,o),
(503,272,cs),
(503,105,o),
(435,15,o),
(309,15,cs)
);
}
);
width = 600;
},
{
anchors = (
{
name = bottom;
pos = (250,0);
},
{
name = top;
pos = (250,760);
},
{
name = topright;
pos = (480,760);
}
);
layerId = "82FB5ACD-33BC-4284-9837-1B4D88A7F1E9";
shapes = (
{
closed = 1;
nodes = (
(381,-10,o),
(440,99,o),
(440,268,cs),
(440,445,o),
(381,538,o),
(263,538,cs),
(183,538,o),
(128,486,o),
(112,412,c),
(110,412,l),
(111,437,o),
(111,476,o),
(111,503,cs),
(111,760,l),
(85,760,l),
(85,0,l),
(107,0,l),
(111,101,l),
(113,101,l),
(133,36,o),
(178,-10,o),
(253,-10,cs)
);
},
{
closed = 1;
nodes = (
(156,16,o),
(111,98,o),
(111,262,cs),
(111,426,o),
(159,513,o),
(263,513,cs),
(366,513,o),
(413,430,o),
(413,268,cs),
(413,101,o),
(357,16,o),
(253,16,cs)
);
}
);
width = 500;
},
{
anchors = (
{
name = bottom;
pos = (250,0);
},
{
name = top;
pos = (250,760);
},
{
name = topright;
pos = (480,760);
}
);
layerId = "C5665599-2906-40DA-AF7F-7DBC0844951A";
shapes = (
{
closed = 1;
nodes = (
(393,-10,o),
(460,86,o),
(460,269,cs),
(460,451,o),
(394,547,o),
(283,547,cs),
(216,547,o),
(173,512,o),
(142,465,c),
(139,465,l),
(142,502,o),
(142,539,o),
(142,576,cs),
(142,760,l),
(60,760,l),
(60,0,l),
(120,0,l),
(136,68,l),
(142,68,l),
(177,20,o),
(220,-10,o),
(282,-10,cs)
);
},
{
closed = 1;
nodes = (
(183,63,o),
(142,131,o),
(142,274,cs),
(142,409,o),
(182,474,o),
(256,474,cs),
(331,474,o),
(374,406,o),
(374,267,cs),
(374,135,o),
(335,63,o),
(258,63,cs)
);
}
);
width = 500;
},
{
anchors = (
{
name = bottom;
pos = (250,0);
},
{
name = top;
pos = (250,760);
},
{
name = topright;
pos = (480,760);
}
);
layerId = "35DC4C3B-953E-41FE-A906-9781CEBB9B49";
shapes = (
{
closed = 1;
nodes = (
(404,-10,o),
(480,100,o),
(480,279,cs),
(480,435,o),
(422,563,o),
(307,563,cs),
(258,563,o),
(209,540,o),
(184,484,c),
(178,484,l),
(182,520,o),
(185,538,o),
(185,574,cs),
(185,760,l),
(35,760,l),
(35,0,l),
(160,0,l),
(176,56,l),
(185,56,l),
(218,8,o),
(261,-10,o),
(302,-10,cs)
);
},
{
closed = 1;
nodes = (
(202,128,o),
(182,178,o),
(182,277,cs),
(182,373,o),
(201,424,o),
(252,424,cs),
(300,424,o),
(320,378,o),
(320,278,cs),
(320,178,o),
(300,128,o),
(251,128,cs)
);
}
);
width = 500;
}
);
metricLeft = n;
metricRight = o;
script = latin;
subCategory = Lowercase;
unicode = 98;
}
{
category = Letter;
glyphname = c;
layers = (
{
anchors = (
{
name = bottom;
pos = (332,0);
},
{
name = top;
pos = (328,536);
},
{
name = topright;
pos = (580,536);
}
);
layerId = UUID0;
shapes = (
{
closed = 1;
nodes = (
(395,-10,o),
(459,1,o),
(499,20,c),
(499,99,l),
(460,82,o),
(407,67,o),
(348,67,cs),
(235,67,o),
(177,123,o),
(177,266,cs),
(177,401,o),
(228,468,o),
(351,468,cs),
(398,468,o),
(435,458,o),
(478,436,c),
(505,509,l),
(459,533,o),
(410,546,o),
(347,546,cs),
(194,546,o),
(85,470,o),
(85,264,cs),
(85,71,o),
(181,-10,o),
(338,-10,cs)
);
}
);
width = 600;
},
{
anchors = (
{
name = bottom;
pos = (330,0);
},
{
name = top;
pos = (313,553);
},
{
name = topright;
pos = (580,553);
}
);
layerId = "963C7F4A-CFE2-43FC-8D10-B7434095D111";
shapes = (
{
closed = 1;
nodes = (
(390,-10,o),
(452,2,o),
(509,32,c),
(509,181,l),
(451,140,o),
(392,130,o),
(353,130,cs),
(282,130,o),
(230,171,o),
(230,280,cs),
(230,374,o),
(270,422,o),
(348,422,cs),
(383,422,o),
(417,416,o),
(478,392,c),
(530,520,l),
(470,549,o),
(402,563,o),
(335,563,cs),
(144,563,o),
(60,449,o),
(60,270,cs),
(60,87,o),
(148,-10,o),
(327,-10,cs)
);
}
);
width = 600;
},
{
anchors = (
{
name = bottom;
pos = (335,0);
},
{
name = top;
pos = (330,528);
},
{
name = topright;
pos = (580,528);
}
);
layerId = "02EF4DD5-EF93-4764-9336-ED93C6797AC3";
shapes = (
{
closed = 1;
nodes = (
(409,-10,o),
(463,2,o),
(496,16,c),
(496,42,l),
(457,26,o),
(401,15,o),
(351,15,cs),
(186,15,o),
(117,126,o),
(117,257,cs),
(117,412,o),
(213,512,o),
(369,512,cs),
(407,512,o),
(455,505,o),
(495,487,c),
(500,513,l),
(462,529,o),
(418,537,o),
(371,537,cs),
(195,537,o),
(90,426,o),
(90,256,cs),
(90,108,o),
(169,-10,o),
(351,-10,cs)
);
}
);
width = 600;
},
{
anchors = (
{
name = bottom;
pos = (297,0);
},
{
name = top;
pos = (288,528);
},
{
name = topright;
pos = (480,528);
}
);
layerId = "82FB5ACD-33BC-4284-9837-1B4D88A7F1E9";
shapes = (
{
closed = 1;
nodes = (
(344,-10,o),
(390,-1,o),
(417,11,c),
(417,37,l),
(385,23,o),
(340,15,o),
(301,15,cs),
(174,15,o),
(122,120,o),
(122,259,cs),
(122,418,o),
(195,513,o),
(313,513,cs),
(346,513,o),
(383,507,o),
(412,493,c),
(420,517,l),
(391,531,o),
(354,538,o),
(312,538,cs),
(177,538,o),
(95,431,o),
(95,259,cs),
(95,100,o),
(158,-10,o),
(299,-10,cs)
);
}
);
width = 500;
},
{
anchors = (
{
name = bottom;
pos = (290,0);
},
{
name = top;
pos = (285,536);
},
{
name = topright;
pos = (480,536);
}
);
layerId = "C5665599-2906-40DA-AF7F-7DBC0844951A";
shapes = (
{
closed = 1;
nodes = (
(350,-10,o),
(392,1,o),
(431,20,c),
(431,95,l),
(392,76,o),
(348,63,o),
(304,63,cs),
(207,63,o),
(156,125,o),
(156,266,cs),
(156,408,o),
(207,474,o),
(307,474,cs),
(346,474,o),
(377,468,o),
(413,448,c),
(440,517,l),
(398,537,o),
(352,547,o),
(301,547,cs),
(169,547,o),
(70,469,o),
(70,265,cs),
(70,70,o),
(161,-10,o),
(299,-10,cs)
);
}
);
width = 500;
},
{
anchors = (
{
name = bottom;
pos = (299,0);
},
{
name = top;
pos = (290,553);
},
{
name = topright;
pos = (480,553);
}
);
layerId = "35DC4C3B-953E-41FE-A906-9781CEBB9B49";
shapes = (
{
closed = 1;
nodes = (
(350,-10,o),
(410,0,o),
(451,28,c),
(451,178,l),
(409,141,o),
(359,128,o),
(321,128,cs),
(250,128,o),
(205,172,o),
(205,278,cs),
(205,370,o),
(239,423,o),
(316,423,cs),
(357,423,o),
(392,411,o),
(422,393,c),
(469,521,l),
(423,549,o),
(361,563,o),
(301,563,cs),
(118,563,o),
(45,435,o),
(45,275,cs),
(45,78,o),
(156,-10,o),
(301,-10,cs)
);
}
);
width = 500;
}
);
script = latin;
subCategory = Lowercase;
unicode = 99;
}
{
category = Letter;
color = 10;
glyphname = d;
layers = (
{
anchors = (
{
name = bottom;
pos = (300,0);
},
{
name = center;
pos = (300,268);
},
{
name = top;
pos = (300,760);
},
{
name = topright;
pos = (580,760);
}
);
layerId = UUID0;
shapes = (
{
closed = 1;
nodes = (
(355,-10,o),
(402,24,o),
(432,72,c),
(436,72,l),
(446,0,l),
(520,0,l),
(520,760,l),
(431,760,l),
(431,547,ls),
(431,521,o),
(434,487,o),
(437,468,c),
(431,468,l),
(406,513,o),
(358,546,o),
(284,546,cs),
(131,546,o),
(55,449,o),
(55,271,cs),
(55,81,o),
(142,-10,o),
(274,-10,cs)
);
},
{
closed = 1;
nodes = (
(193,63,o),
(147,130,o),
(147,262,cs),
(147,405,o),
(200,473,o),
(294,473,cs),
(396,473,o),
(431,384,o),
(431,267,cs),
(431,247,ls),
(431,134,o),
(386,63,o),
(291,63,cs)
);
}
);
width = 600;
},
{
anchors = (
{
name = bottom;
pos = (300,0);
},
{
name = center;
pos = (300,273);
},
{
name = top;
pos = (300,760);
},
{
name = topright;
pos = (580,760);
}
);
associatedMasterId = UUID0;
attr = {
coordinates = (
151,
100
);
};
background = {
shapes = (
{
closed = 1;
nodes = (
(291.87,-10,o),
(347.8,15.39,o),
(394.9,69.17,c),
(401.9,69.17,l),
(442.98,0,l),
(541.1,0,l),
(541.1,761,l),
(396.95,761,l),
(396.95,584.93,ls),
(396.95,555.76,o),
(397.9,525.01,o),
(410.39,473.95,c),
(409.05,473.95,l),
(371.29,526.56,o),
(308.8,555.61,o),
(241.75,555.61,cs),
(90.24,555.61,o),
(41.95,426.8,o),
(41.95,272.17,cs),
(41.95,120.86,o),
(87.7,-10,o),
(227.97,-10,cs)
);
},
{
closed = 1;
nodes = (
(237.32,108.22,o),
(193.71,152.95,o),
(193.71,271.73,cs),
(193.71,381.12,o),
(232.71,438.39,o),
(305.1,438.39,cs),
(397.03,438.39,o),
(416.1,350.9,o),
(416.1,268.78,cs),
(416.1,253,ls),
(416.1,174.81,o),
(390.52,108.22,o),
(305.71,108.22,cs)
);
}
);
};
layerId = "befbf81e-553a-4f58-a0e7-c265d346bf1a";
name = "SemiBold (intermediate)";
shapes = (
{
closed = 1;
nodes = (
(309,-10,o),
(365,17,o),
(399,71,c),
(405,71,l),
(435,0,l),
(545,0,l),
(545,760,l),
(403,760,l),
(403,596,ls),
(403,553,o),
(407,517,o),
(414,476,c),
(409,476,l),
(373,529,o),
(324,556,o),
(254,556,cs),
(105,556,o),
(40,436,o),
(40,273,cs),
(40,114,o),
(101,-10,o),
(243,-10,cs)
);
},
{
closed = 1;
nodes = (
(224,110,o),
(187,158,o),
(187,267,cs),
(187,378,o),
(225,436,o),
(305,436,cs),
(391,436,o),
(414,367,o),
(414,271,cs),
(414,255,ls),
(414,159,o),
(376,110,o),
(300,110,cs)
);
}
);
width = 600;
},
{
anchors = (
{
name = bottom;
pos = (300,0);
},
{
name = center;
pos = (300,277);
},
{
name = top;
pos = (300,760);
},
{
name = topright;
pos = (580,760);
}
);
layerId = "963C7F4A-CFE2-43FC-8D10-B7434095D111";
shapes = (
{
closed = 1;
nodes = (
(285,-10,o),
(343,13,o),
(383,70,c),
(391,70,l),
(425,0,l),
(555,0,l),
(555,760,l),
(383,760,l),
(383,606,ls),
(383,568,o),
(385,544,o),
(396,480,c),
(392,480,l),
(352,540,o),
(295,563,o),
(235,563,cs),
(89,563,o),
(30,430,o),
(30,276,cs),
(30,130,o),
(79,-10,o),
(226,-10,cs)
);
},
{
closed = 1;
nodes = (
(243,130,o),
(206,172,o),
(206,272,cs),
(206,368,o),
(241,422,o),
(305,422,cs),
(380,422,o),
(398,363,o),
(398,273,cs),
(398,259,ls),
(398,183,o),
(373,130,o),
(301,130,cs)
);
}
);
width = 600;
},
{
anchors = (
{
name = bottom;
pos = (300,0);
},
{
name = center;
pos = (300,264);
},
{
name = top;
pos = (300,760);
},
{
name = topright;
pos = (580,760);
}
);
layerId = "02EF4DD5-EF93-4764-9336-ED93C6797AC3";
shapes = (
{
closed = 1;
nodes = (
(387,-10,o),
(442,42,o),
(469,113,c),
(471,113,l),
(473,0,l),
(495,0,l),
(495,760,l),
(469,760,l),
(469,543,ls),
(469,501,o),
(469,454,o),
(471,409,c),
(469,409,l),
(447,477,o),
(394,537,o),
(289,537,cs),
(150,537,o),
(70,437,o),
(70,254,cs),
(70,86,o),
(140,-10,o),
(281,-10,cs)
);
},
{
closed = 1;
nodes = (
(160,15,o),
(97,95,o),
(97,254,cs),
(97,427,o),
(167,512,o),
(289,512,cs),
(412,512,o),
(469,426,o),
(469,266,cs),
(469,263,ls),
(469,106,o),
(417,15,o),
(283,15,cs)
);
}
);
width = 600;
},
{
anchors = (
{
name = bottom;
pos = (250,0);
},
{
name = center;
pos = (250,264);
},
{
name = top;
pos = (250,760);
},
{
name = topright;
pos = (480,760);
}
);
layerId = "82FB5ACD-33BC-4284-9837-1B4D88A7F1E9";
shapes = (
{
closed = 1;
nodes = (
(326,-10,o),
(371,49,o),
(389,110,c),
(391,110,l),
(394,0,l),
(415,0,l),
(415,760,l),
(389,760,l),
(389,520,ls),
(389,488,o),
(390,457,o),
(391,422,c),
(389,422,l),
(373,482,o),
(325,538,o),
(238,538,cs),
(124,538,o),
(60,439,o),
(60,255,cs),
(60,83,o),
(116,-10,o),
(232,-10,cs)
);
},
{
closed = 1;
nodes = (
(132,15,o),
(87,99,o),
(87,255,cs),
(87,426,o),
(140,513,o),
(239,513,cs),
(339,513,o),
(389,429,o),
(389,291,cs),
(389,242,ls),
(389,102,o),
(343,15,o),
(233,15,cs)
);
}
);
width = 500;
},
{
anchors = (
{
name = bottom;
pos = (250,0);
},
{
name = center;
pos = (250,268);
},
{
name = top;
pos = (250,760);
},
{
name = topright;
pos = (480,760);
}
);
layerId = "C5665599-2906-40DA-AF7F-7DBC0844951A";
shapes = (
{
closed = 1;
nodes = (
(289,-10,o),
(333,27,o),
(358,72,c),
(362,72,l),
(377,0,l),
(440,0,l),
(440,760,l),
(358,760,l),
(358,547,ls),
(358,523,o),
(360,495,o),
(364,467,c),
(359,467,l),
(332,511,o),
(289,547,o),
(222,547,cs),
(111,547,o),
(40,450,o),
(40,267,cs),
(40,85,o),
(111,-10,o),
(221,-10,cs)
);
},
{
closed = 1;
nodes = (
(158,63,o),
(126,129,o),
(126,259,cs),
(126,400,o),
(164,474,o),
(249,474,cs),
(336,474,o),
(360,398,o),
(360,267,cs),
(360,247,ls),
(360,134,o),
(332,63,o),
(246,63,cs)
);
}
);
width = 500;
},
{
anchors = (
{
name = bottom;
pos = (250,0);
},
{
name = center;
pos = (250,273);
},
{
name = top;
pos = (250,761);
},
{
name = topright;
pos = (480,761);
}
);
associatedMasterId = "C5665599-2906-40DA-AF7F-7DBC0844951A";
attr = {
coordinates = (
151,
70
);
};
background = {
shapes = (
{
closed = 1;
nodes = (
(266.43,-10,o),
(309.21,20.9,o),
(334.21,72.61,c),
(340.65,72.61,l),
(353.21,0,l),
(455.25,0,l),
(455.25,760,l),
(331.77,760,l),
(331.77,575.06,ls),
(331.77,541.91,o),
(336.21,504.76,o),
(339.6,477.37,c),
(332.16,477.37,l),
(305.77,529.91,o),
(262.77,556.76,o),
(207.36,556.76,cs),
(95.14,556.76,o),
(27.8,450.61,o),
(27.8,271.88,cs),
(27.8,99.03,o),
(90.87,-10,o),
(205.75,-10,cs)
);
},
{
closed = 1;
nodes = (
(181.18,102.65,o),
(155.28,157.67,o),
(155.28,269.37,cs),
(155.28,382.31,o),
(182.3,443.5,o),
(249.61,443.5,cs),
(312.21,443.5,o),
(333.77,391.29,o),
(333.77,271.88,cs),
(333.77,254.32,ls),
(333.77,151.08,o),
(304.55,102.65,o),
(245.39,102.65,cs)
);
}
);
};
layerId = "153f48de-55b8-4fce-94d6-34883e1c5ac3";
name = "SemiBold Condensed (intermediate)";
shapes = (
{
closed = 1;
nodes = (
(246,-10,o),
(291,19,o),
(327,71,c),
(334,71,l),
(363,0,l),
(455,0,l),
(455,761,l),
(327,761,l),
(327,577,ls),
(327,548,o),
(330,508,o),
(338,476,c),
(334,476,l),
(304,527,o),
(252,556,o),
(195,556,cs),
(80,556,o),
(30,440,o),
(30,270,cs),
(30,109,o),
(75,-10,o),
(189,-10,cs)
);
},
{
closed = 1;
nodes = (
(195,107,o),
(166,155,o),
(166,273,cs),
(166,381,o),
(190,440,o),
(254,440,cs),
(323,440,o),
(339,371,o),
(339,270,cs),
(339,253,ls),
(339,162,o),
(317,107,o),
(254,107,cs)
);
}
);
width = 500;
},
{
anchors = (
{
name = bottom;
pos = (250,0);
},
{
name = center;
pos = (250,277);
},
{
name = top;
pos = (250,760);
},
{
name = topright;
pos = (500,760);
}
);
layerId = "35DC4C3B-953E-41FE-A906-9781CEBB9B49";
shapes = (
{
closed = 1;
nodes = (
(252,-10,o),
(294,17,o),
(319,73,c),
(327,73,l),
(338,0,l),
(465,0,l),
(465,760,l),
(315,760,l),
(315,593,ls),
(315,554,o),
(321,511,o),
(324,484,c),
(315,484,l),
(289,542,o),
(246,563,o),
(198,563,cs),
(85,563,o),
(20,451,o),
(20,275,cs),
(20,108,o),
(78,-10,o),
(196,-10,cs)
);
},
{
closed = 1;
nodes = (
(196,128,o),
(174,176,o),
(174,276,cs),
(174,371,o),
(194,424,o),
(250,424,cs),
(297,424,o),
(317,387,o),
(317,275,cs),
(317,259,ls),
(317,162,o),
(287,128,o),
(245,128,cs)
);
}
);
width = 500;
}
);
metricLeft = o;
metricRight = "=|n";
script = latin;
subCategory = Lowercase;
unicode = 100;
}
